<svg width="9" height="9" viewBox="0 0 9 9" fill="none" xmlns="http://www.w3.org/2000/svg">
<path d="M4.5 0C3.60999 0 2.73996 0.263921 1.99994 0.758387C1.25991 1.25285 0.683139 1.95566 0.342544 2.77792C0.00194979 3.60019 -0.0871652 4.50499 0.0864683 5.37791C0.260102 6.25082 0.688685 7.05264 1.31802 7.68198C1.94736 8.31132 2.74918 8.7399 3.6221 8.91353C4.49501 9.08717 5.39981 8.99805 6.22208 8.65746C7.04434 8.31686 7.74715 7.74009 8.24162 7.00007C8.73608 6.26005 9 5.39002 9 4.5C9 3.30653 8.5259 2.16193 7.68198 1.31802C6.83807 0.474106 5.69348 0 4.5 0ZM4.5 7.5C3.90666 7.5 3.32664 7.32405 2.83329 6.99441C2.33994 6.66476 1.95543 6.19623 1.72836 5.64805C1.5013 5.09987 1.44189 4.49667 1.55765 3.91473C1.6734 3.33279 1.95912 2.79824 2.37868 2.37868C2.79824 1.95912 3.33279 1.6734 3.91473 1.55764C4.49667 1.44189 5.09987 1.5013 5.64805 1.72836C6.19623 1.95542 6.66477 2.33994 6.99441 2.83329C7.32405 3.32664 7.5 3.90666 7.5 4.5C7.5 5.29565 7.18393 6.05871 6.62132 6.62132C6.05871 7.18393 5.29565 7.5 4.5 7.5Z" fill="#444444"/>
</svg>
