<svg width="20" height="20" viewBox="0 0 20 20" fill="none" xmlns="http://www.w3.org/2000/svg">
<path d="M10.0001 16.6665C11.7682 16.6665 13.4639 15.9641 14.7141 14.7139C15.9644 13.4636 16.6667 11.7679 16.6667 9.99984C16.6667 8.23173 15.9644 6.53603 14.7141 5.28579C13.4639 4.03555 11.7682 3.33317 10.0001 3.33317C8.23197 3.33317 6.53628 4.03555 5.28604 5.28579C4.03579 6.53603 3.33341 8.23173 3.33341 9.99984C3.33341 11.7679 4.03579 13.4636 5.28604 14.7139C6.53628 15.9641 8.23197 16.6665 10.0001 16.6665ZM10.0001 18.3332C5.39758 18.3332 1.66675 14.6023 1.66675 9.99984C1.66675 5.39734 5.39758 1.6665 10.0001 1.6665C14.6026 1.6665 18.3334 5.39734 18.3334 9.99984C18.3334 14.6023 14.6026 18.3332 10.0001 18.3332Z" fill="#444444"/>
<path d="M12.436 7.10498H7.56433C6.6085 7.10498 5.8335 7.87165 5.8335 8.81665V11.225C5.8335 12.1708 6.6085 12.9366 7.56433 12.9366H12.436C13.3918 12.9366 14.1668 12.17 14.1668 11.225V8.81665C14.1668 7.87081 13.3918 7.10498 12.436 7.10498ZM11.266 10.1383L8.98683 11.2133C8.97289 11.2199 8.95751 11.2229 8.94211 11.2219C8.92672 11.221 8.91181 11.2162 8.89877 11.208C8.88572 11.1997 8.87497 11.1884 8.86749 11.1749C8.86001 11.1614 8.85606 11.1462 8.856 11.1308V8.91415C8.85613 8.89853 8.86026 8.8832 8.86799 8.86963C8.87571 8.85605 8.88678 8.84467 8.90014 8.83657C8.91349 8.82848 8.9287 8.82393 8.94431 8.82336C8.95992 8.82279 8.97542 8.82621 8.98933 8.83331L11.2677 9.97498C11.2826 9.98281 11.2952 9.99463 11.3039 10.0091C11.3125 10.0236 11.317 10.0403 11.3169 10.0572C11.3167 10.0741 11.3119 10.0906 11.3029 10.1049C11.2939 10.1192 11.2811 10.1308 11.266 10.1383Z" fill="#444444"/>
</svg>
