<svg width="57" height="22" viewBox="0 0 57 22" fill="none" xmlns="http://www.w3.org/2000/svg">
<path d="M56.4857 12.7037C56.3681 14.3505 55.3094 15.6444 53.8979 16.4678C53.8979 16.3502 53.8979 16.3502 53.8979 16.2326C53.8979 11.7627 50.2515 8.11628 45.664 8.11628C41.0765 8.11628 37.5477 11.7627 37.5477 16.2326C37.5477 16.7031 37.5477 17.1736 37.6654 17.6441H20.6094C20.727 17.1736 20.727 16.7031 20.727 16.2326C20.727 11.7627 17.0806 8.11628 12.6107 8.11628C8.1409 8.11628 4.49446 11.7627 4.49446 16.2326C4.49446 16.7031 4.49446 17.1736 4.61209 17.6441H2.84768C1.90666 17.6441 0.96564 17.1736 0.495131 16.2326C-0.32826 14.7034 -0.0930058 12.4685 0.96564 10.9393C5.20022 4.46984 19.1979 4.94035 22.2562 5.1756C23.7853 3.99933 29.0786 0.117627 32.2545 0C32.9603 0 33.4308 0.47051 33.5484 1.05865C33.5484 1.76441 33.0779 2.23492 32.4898 2.35255C30.9606 2.47017 28.3728 3.99933 26.0203 5.41085C29.4314 5.52848 32.9603 5.29323 36.3715 4.70509L37.3125 1.99966C37.5477 1.41153 38.2535 1.05864 38.8416 1.2939C39.4298 1.52915 39.7826 2.23492 39.5474 2.82306L39.0769 4.11696C39.4298 3.99933 39.7826 3.99933 40.1355 3.8817V1.64678C40.1355 0.941019 40.606 0.47051 41.3118 0.47051C42.0176 0.47051 42.4881 0.941019 42.4881 1.64678V3.41119L52.604 3.99933C54.8389 4.11696 55.4271 5.99899 55.6623 6.82238C56.1328 8.58679 56.6033 10.7041 56.4857 12.7037Z" fill="#00C070"/>
<path d="M6.84717 16.2325C6.84717 13.0565 9.43497 10.4688 12.6109 10.4688C15.7868 10.4688 18.3746 13.0565 18.3746 16.2325C18.3746 19.4084 15.7868 21.9962 12.6109 21.9962C9.43497 22.1139 6.84717 19.4084 6.84717 16.2325Z" fill="#00C070"/>
<path d="M39.9003 16.2325C39.9003 13.0565 42.4881 10.4688 45.664 10.4688C48.8399 10.4688 51.5454 13.0565 51.5454 16.2325C51.5454 19.4084 48.9576 21.9962 45.664 21.9962C42.4881 22.1139 39.9003 19.4084 39.9003 16.2325Z" fill="#00C070"/>
</svg>
