<svg width="24" height="24" viewBox="0 0 24 24" fill="none" xmlns="http://www.w3.org/2000/svg">
<path d="M13.3887 1.99121C11.5324 1.99121 9.96683 3.32776 9.96683 5.03809C9.96683 5.90199 10.3666 6.67027 11.0012 7.21932L11.3983 6.43791C11.0292 6.05345 10.8105 5.5629 10.8105 5.03809C10.8105 3.84887 11.9313 2.83496 13.3887 2.83496C14.846 2.83496 15.9668 3.84887 15.9668 5.03809C15.9668 5.85385 15.4393 6.58712 14.6376 6.96718L14.2869 7.97762C14.3755 7.95618 14.4632 7.93147 14.55 7.90355L14.9793 8.65416C14.4952 8.99462 14.0268 9.41663 13.5246 9.94191L17.3378 18.3509C19.694 18.4596 21.9674 17.2102 23.1388 15.1629L18.0843 7.43621C17.139 7.62498 16.3785 7.86062 15.6995 8.21424L15.3203 7.55124C16.2136 7.00679 16.8106 6.0939 16.8106 5.03813C16.8106 3.3278 15.2451 1.99126 13.3887 1.99126V1.99121ZM7.63874 2.26998C7.51405 2.27138 7.38308 2.29201 7.25661 2.33316C6.9674 2.4271 6.72271 2.6207 6.6163 2.82957L6.6028 2.85629L3.56043 7.18271C3.46035 7.3914 3.44877 7.69585 3.53901 7.97818C3.63135 8.26679 3.82237 8.5081 4.01722 8.60734L10.7523 12.0367C10.9432 12.134 11.2487 12.1494 11.5327 12.0567C11.8114 11.9658 12.0481 11.7809 12.161 11.5649L13.3497 8.08398C13.3521 8.08398 13.3544 8.08412 13.3567 8.08416L13.6533 7.22963C13.6493 7.23001 13.6451 7.2301 13.6411 7.23048L13.8711 6.55712L13.8846 6.53049C13.9911 6.32162 14.0037 6.00924 13.9104 5.7204C13.8171 5.43155 13.6245 5.18813 13.4213 5.08468L11.9177 4.31907C11.611 4.70241 11.5169 5.25038 11.9015 5.7661L12.0004 5.93166L12.4826 6.18479L12.0956 6.94482L12.0888 6.94154L11.7082 7.69013C11.7103 7.69121 11.7125 7.69215 11.7146 7.69318L11.4191 8.2733L6.65708 5.84855L7.52924 4.13584L7.72058 3.7599L9.16686 4.4964C9.2398 4.03655 9.39758 3.59415 9.65132 3.16496L8.06722 2.35848C7.94938 2.29848 7.79905 2.26824 7.63874 2.26998ZM17.8541 8.42841L18.983 10.4825L15.6143 12.3336L14.6886 10.6494L14.4855 10.2796L17.8541 8.42846V8.42841ZM17.521 9.57423L15.6314 10.6127L15.9474 11.1879L17.8371 10.1494L17.521 9.57423ZM5.36708 10.2415L4.3888 12.1631L7.64699 13.8221L8.62541 11.9006L5.36708 10.2415ZM19.299 11.0576L20.4277 13.1116L17.0592 14.9626L16.1336 13.2784L15.9305 12.9087L19.2991 11.0575L19.299 11.0576ZM18.9659 12.2034L17.0762 13.2418L17.3923 13.817L19.282 12.7785L18.9659 12.2034H18.9659ZM4.67427 13.2552H4.67418L0.861084 20.7438L1.1481 21.6264L4.76985 14.5138L5.52163 14.8966L1.89997 22.0092L2.9488 21.6682L3.55668 21.4705L3.22921 20.4601L4.23683 20.1334L3.9089 19.1252L4.91765 18.7972L4.66593 18.0235L6.59577 14.2336L4.67427 13.2552Z" fill="#444444"/>
</svg>
