<svg width="1" height="1" viewBox="0 0 1 1" fill="none" xmlns="http://www.w3.org/2000/svg">
<g clip-path="url(#clip0_1_2100)">
<path fill-rule="evenodd" clip-rule="evenodd" d="M0.118185 0.243434L0.237479 0.137519H0.365703V0.438549H0.187678C0.187678 0.396245 0.153378 0.361957 0.111074 0.361957C0.0687824 0.361957 0.0344816 0.396245 0.0344816 0.438549H0.0200671C0.00902718 0.438549 0 0.429522 0 0.418482V0.327053C6.02614e-05 0.30795 0.00776168 0.292644 0.0300946 0.284677L0.118185 0.243434ZM0.349312 0.256174V0.15391H0.243709L0.127284 0.25727L0.349312 0.256174Z" fill="black"/>
<path fill-rule="evenodd" clip-rule="evenodd" d="M1.00005 9.18386e-07V0.439271H0.859939C0.859939 0.396967 0.825651 0.362678 0.783347 0.362678C0.741043 0.362678 0.706755 0.396967 0.706755 0.439271H0.393551V0.0749412H0.229821V0C0.486559 0 0.74331 9.18386e-07 1.00005 9.18386e-07ZM0.46413 0.131021H0.950222V0.15556H0.46413V0.131021ZM0.46413 0.0841982H0.950222V0.108737H0.46413V0.0841982Z" fill="black"/>
<path fill-rule="evenodd" clip-rule="evenodd" d="M0.111024 0.379671C0.144288 0.379671 0.171237 0.40662 0.171237 0.439873C0.171237 0.473125 0.144288 0.500074 0.111024 0.500074C0.0777712 0.500074 0.0508221 0.473125 0.0508221 0.439873C0.0508221 0.40662 0.0777711 0.379671 0.111024 0.379671Z" fill="black"/>
<path d="M0.7833 0.500083C0.816551 0.500083 0.843505 0.473128 0.843505 0.439877C0.843505 0.406626 0.816551 0.379671 0.7833 0.379671C0.750049 0.379671 0.723094 0.406626 0.723094 0.439877C0.723094 0.473128 0.750049 0.500083 0.7833 0.500083Z" fill="black"/>
</g>
<defs>
<clipPath id="clip0_1_2100">
<rect width="0.326669" height="0.203946" fill="white" transform="scale(3.06129)"/>
</clipPath>
</defs>
</svg>
