<svg width="24" height="24" viewBox="0 0 24 24" fill="none" xmlns="http://www.w3.org/2000/svg">
<path d="M1.63177 11.394V19.9824H5.26777L5.45137 20.004C8.82697 20.7912 11.0638 21.3588 12.1786 21.7104C13.6594 22.1772 14.2114 22.2912 15.2158 22.3584C15.967 22.41 16.8202 22.1208 17.209 21.7248C17.4238 21.5064 17.5846 21.0576 17.6482 20.3616C17.6613 20.2157 17.7135 20.076 17.7992 19.9571C17.8849 19.8382 18.001 19.7446 18.1354 19.686C18.4342 19.5564 18.6826 19.3452 18.8902 19.038C19.0822 18.7572 19.207 18.234 19.2298 17.4768C19.2338 17.3376 19.2732 17.2017 19.3444 17.082C19.4156 16.9624 19.5162 16.8628 19.6366 16.7928C20.335 16.3884 20.6806 15.9324 20.7526 15.3972C20.8318 14.8056 20.6398 14.1396 20.137 13.3812C20.019 13.2034 19.9751 12.9865 20.0145 12.7767C20.0539 12.567 20.1737 12.3809 20.3482 12.258C20.8294 11.9196 21.0934 11.4492 21.1594 10.782C21.265 9.71882 20.587 8.93282 19.0522 8.77562C17.6852 8.64043 16.3051 8.75551 14.9794 9.11522C14.829 9.15452 14.6705 9.15005 14.5226 9.10234C14.3747 9.05463 14.2434 8.96567 14.1443 8.84591C14.0453 8.72615 13.9824 8.58059 13.9633 8.42634C13.9441 8.2721 13.9694 8.11558 14.0362 7.97522C14.6362 6.70562 14.9698 5.65802 15.0478 4.84682C15.1498 3.77042 14.9014 2.99042 14.3206 2.34722C13.8802 1.86002 13.1758 1.58162 12.9118 1.63922C12.5638 1.71362 12.337 1.91522 12.0418 2.62082C11.8678 3.03842 11.7838 3.39362 11.6398 4.22282C11.5018 5.01002 11.4262 5.36522 11.269 5.83082C10.795 7.24202 9.63217 8.70482 8.07097 9.71402C6.9768 10.4205 5.79097 10.9736 4.54657 11.358C4.46883 11.382 4.38792 11.3941 4.30657 11.394H1.63177ZM1.58137 21.618C1.19377 21.6288 0.845768 21.5424 0.554168 21.3384C0.182168 21.078 0.00696836 20.6676 0.00336836 20.1948L0.00696836 11.4072C-0.0338316 10.9392 0.104168 10.5096 0.430568 10.1904C0.736568 9.89042 1.13617 9.74882 1.55857 9.75842H4.18057C5.2412 9.42047 6.25239 8.94352 7.18777 8.34002C8.44537 7.52642 9.37177 6.36002 9.72577 5.30882C9.84697 4.94642 9.91177 4.64642 10.0342 3.94082C10.1998 2.99402 10.303 2.55362 10.5406 1.98722C11.0326 0.808822 11.6782 0.232822 12.5686 0.0396221C13.4446 -0.149978 14.7202 0.355222 15.5266 1.24802C16.4206 2.23682 16.8154 3.47402 16.669 5.00282C16.6066 5.66042 16.4242 6.39602 16.1242 7.21562C17.1487 7.06631 18.1877 7.04374 19.2178 7.14842C21.6262 7.39442 22.9786 8.96282 22.7818 10.9452C22.6954 11.7996 22.3858 12.5256 21.859 13.0956C22.3018 13.9488 22.4782 14.7924 22.3678 15.6156C22.2406 16.5636 21.7126 17.3532 20.8342 17.9664C20.7658 18.798 20.575 19.4616 20.2366 19.9584C19.9699 20.3598 19.622 20.7007 19.2154 20.9592C19.0858 21.78 18.8134 22.422 18.3682 22.8732C17.6302 23.6244 16.3114 24.072 15.1066 23.9904C13.963 23.9136 13.2862 23.7744 11.6902 23.2704C10.6378 22.938 8.45857 22.386 5.17417 21.618H1.58137ZM3.62257 11.0208C3.62225 10.9135 3.64313 10.8071 3.68399 10.7078C3.72486 10.6085 3.78492 10.5183 3.86072 10.4423C3.93652 10.3662 4.02659 10.3059 4.12574 10.2648C4.2249 10.2236 4.33121 10.2024 4.43857 10.2024C4.54573 10.2027 4.65177 10.2242 4.75066 10.2655C4.84954 10.3068 4.93932 10.3671 5.01487 10.4431C5.09042 10.5191 5.15026 10.6092 5.19097 10.7084C5.23169 10.8075 5.25248 10.9137 5.25217 11.0208V20.2344C5.25233 20.3416 5.23138 20.4477 5.19051 20.5468C5.14965 20.6458 5.08968 20.7359 5.01402 20.8118C4.93835 20.8877 4.84849 20.9479 4.74955 20.9891C4.65061 21.0302 4.54453 21.0515 4.43737 21.0516C4.33021 21.0515 4.22413 21.0302 4.12519 20.9891C4.02625 20.9479 3.93638 20.8877 3.86072 20.8118C3.78506 20.7359 3.72509 20.6458 3.68422 20.5468C3.64336 20.4477 3.62241 20.3416 3.62257 20.2344V11.0208Z" fill="#444444"/>
</svg>
