<svg width="32" height="23" viewBox="0 0 32 23" fill="none" xmlns="http://www.w3.org/2000/svg">
<path d="M31.8811 14.856C31.9224 14.5275 31.9433 14.3133 31.9433 14.3133C31.9433 14.3133 31.9835 12.0111 31.9433 11.21C31.9032 10.4097 31.8669 9.78105 31.6219 9.38849C31.5295 9.24088 31.0989 8.92832 31.0989 8.92832C31.0989 8.92832 30.7771 8.26745 30.2545 7.64728C29.7314 7.02677 29.1288 6.68624 29.1288 6.68624L29.5305 6.22572C29.5305 6.22572 30.5922 6.11882 30.9179 5.98572C31.1654 5.88413 31.6415 5.4852 31.5206 5.10503C31.4004 4.72416 31.1885 4.4877 30.9983 4.36416C30.717 4.18187 30.2342 4.02399 29.7112 3.98399C29.1889 3.94399 28.9876 4.48451 28.9876 4.48451L28.5048 6.22572C28.5048 6.22572 27.3922 3.76099 26.4742 2.44243C25.303 0.760693 24.3832 0.560697 22.6335 0.360347C21.0751 0.182297 16.9954 0.0357513 16.1232 0.00530941V0C16.1232 0 16.0944 0.00070794 16.0404 0.00247782C15.9871 0.00070794 15.9583 0 15.9583 0V0.00530941C15.0868 0.0353973 11.0064 0.182297 9.44802 0.360347C7.69869 0.560343 6.77886 0.760693 5.60766 2.44208C4.68926 3.76063 3.57708 6.22537 3.57708 6.22537L3.09388 4.48416C3.09388 4.48416 2.89334 3.94364 2.37032 3.98364C1.8473 4.02364 1.36481 4.18186 1.08356 4.36381C0.892985 4.48699 0.681429 4.7238 0.560896 5.10432C0.440362 5.48449 0.916452 5.88378 1.16392 5.98537C1.48961 6.11846 2.5513 6.22537 2.5513 6.22537L2.95343 6.68589C2.95343 6.68589 2.35005 7.02641 1.82739 7.64693C1.30472 8.2671 0.982941 8.92797 0.982941 8.92797C0.982941 8.92797 0.552362 9.24053 0.459918 9.38813C0.213873 9.78069 0.178317 10.4094 0.138139 11.2097C0.0979616 12.0107 0.138139 14.3126 0.138139 14.3126C0.138139 14.3126 0.141695 14.348 0.14845 14.411L0.140628 14.3941C0.140628 14.3941 -0.0485276 18.1158 0.011917 19.3773C0.0723615 20.6389 0.0520949 21.9196 0.95663 22.0399H4.83753C4.83753 22.0399 5.0185 21.9996 5.03841 21.7398C5.05868 21.4796 5.03841 20.4424 5.03841 20.4424L5.0377 20.4421C8.21886 20.6598 14.8336 20.8608 15.9583 20.8941V20.8987C15.9583 20.8987 15.9871 20.8976 16.0407 20.8959C16.0944 20.8976 16.1232 20.8987 16.1232 20.8987V20.8941C17.2386 20.8608 23.7496 20.664 26.9609 20.4477C26.9595 20.5231 26.9417 21.4891 26.9609 21.7394C26.9809 21.9996 27.1618 22.0399 27.1618 22.0399H31.0427C31.9476 21.9196 31.9273 20.6389 31.9881 19.3777C32.0354 18.3897 31.9291 15.8924 31.8811 14.856ZM4.53957 5.20485C4.53957 5.20485 5.29655 3.58577 5.96713 2.5826C6.90722 1.17626 8.24233 1.046 9.54936 0.905823C10.856 0.765649 16.0393 0.620873 16.0407 0.620873C16.0422 0.620873 21.2258 0.765649 22.5325 0.905823C23.8395 1.046 25.175 1.17626 26.1144 2.5826C26.7853 3.58577 27.5419 5.20485 27.5419 5.20485C27.5419 5.20485 27.8641 5.66538 27.2404 5.66538C26.6168 5.66538 16.0407 5.34503 16.0407 5.34503C16.0407 5.34503 5.46473 5.66538 4.84144 5.66538C4.21779 5.66538 4.53957 5.20485 4.53957 5.20485ZM27.3211 11.5403C27.3211 12.4748 26.5869 13.2316 25.6813 13.2316C24.7764 13.2316 24.0425 12.4744 24.0425 11.5403C24.0425 10.6065 24.7764 9.84901 25.6813 9.84901C26.5869 9.84901 27.3211 10.6065 27.3211 11.5403ZM10.813 13.9523C10.0692 13.8723 9.90847 13.2925 9.90847 13.2925C9.90847 13.2925 9.62722 11.5867 9.55184 11.0101C9.45584 10.2745 10.2487 10.1095 10.2487 10.1095C11.5223 9.72618 16.0411 9.63486 16.0411 9.63486C16.0411 9.63486 20.5606 9.73255 21.8335 10.1156C21.8335 10.1156 22.6264 10.2802 22.5304 11.0157C22.4546 11.5927 22.1737 13.2978 22.1737 13.2978C22.1737 13.2978 22.013 13.8783 21.2692 13.9583C20.5556 14.0355 16.5485 14.1307 16.0816 14.1024H15.9792V14.0981C15.4253 14.1222 11.5174 14.0284 10.813 13.9523ZM8.03931 11.5346C8.03931 12.4688 7.30544 13.2259 6.40019 13.2259C5.49495 13.2259 4.76073 12.4684 4.76073 11.5346C4.76073 10.6005 5.49459 9.84299 6.40019 9.84299C7.30544 9.84299 8.03931 10.6005 8.03931 11.5346ZM1.62828 11.2996C1.62828 10.495 2.22383 9.84299 2.95841 9.84299C3.69263 9.84299 4.28819 10.495 4.28819 11.2996C4.28819 12.1035 3.69263 12.7551 2.95841 12.7551C2.22383 12.7555 1.62828 12.1038 1.62828 11.2996ZM5.2233 18.897L3.89637 18.6768C3.89637 18.6768 2.68961 18.5968 2.22739 17.3958C1.76481 16.1947 2.54881 16.2744 2.54881 16.2744L4.86099 16.4347C4.86099 16.4347 5.26313 17.8159 5.46437 18.3568C5.66597 18.897 5.2233 18.897 5.2233 18.897ZM25.2297 18.5122C25.0089 18.7731 24.9083 19.3331 23.4804 19.4934C22.0525 19.6531 16.0407 19.8577 16.0407 19.8538V19.858C16.0407 19.858 10.029 19.658 8.60144 19.4977C7.17388 19.3373 7.07326 18.777 6.85246 18.5168C6.63095 18.2563 6.14846 16.5342 6.14846 16.5342C6.14846 16.5342 8.68215 16.8545 9.14438 17.0549C9.60696 17.2552 9.98918 17.3954 10.6726 17.4754C11.3563 17.5554 16.0397 17.5752 16.0411 17.5752V17.571C16.0411 17.571 20.7259 17.5512 21.41 17.4712C22.0934 17.3912 22.4756 17.2506 22.9382 17.0506C23.4004 16.8506 25.9341 16.5299 25.9341 16.5299C25.9341 16.5299 25.4516 18.2527 25.2297 18.5122ZM29.8541 17.3919C29.3915 18.5926 28.1851 18.6733 28.1851 18.6733L26.8585 18.8927C26.8585 18.8927 26.4159 18.8927 26.6168 18.3526C26.818 17.8124 27.2201 16.4305 27.2201 16.4305L29.5327 16.2705C29.5327 16.2705 30.3163 16.1905 29.8541 17.3919ZM29.1234 12.7615C28.3896 12.7615 27.7933 12.1091 27.7933 11.3056C27.7933 10.501 28.3896 9.84901 29.1234 9.84901C29.858 9.84901 30.4532 10.501 30.4532 11.3056C30.4532 12.1091 29.858 12.7615 29.1234 12.7615Z" fill="#0066FF"/>
</svg>
