<svg width="24" height="24" viewBox="0 0 24 24" fill="none" xmlns="http://www.w3.org/2000/svg">
<path d="M11.2213 4.49025C12.4242 3.49437 13.9939 2.96241 15.6077 3.0037C17.2216 3.04499 18.757 3.65638 19.8985 4.71225C21.0391 5.76693 21.7002 7.18515 21.7464 8.67619C21.7926 10.1672 21.2204 11.6181 20.147 12.7315L11.2192 21L2.29358 12.7315C1.21894 11.6176 0.646155 10.1654 0.692829 8.67317C0.739503 7.18093 1.40209 5.76183 2.54456 4.70721C3.68703 3.6526 5.22269 3.04248 6.83627 3.00214C8.44986 2.96179 10.0189 3.49426 11.2213 4.49025ZM18.4078 6.08806C17.6472 5.38518 16.6246 4.97814 15.5499 4.95044C14.4751 4.92274 13.4296 5.27648 12.6279 5.93909L11.2224 7.10556L9.81585 5.94006C9.01748 5.2798 7.97709 4.92567 6.90639 4.94975C5.8357 4.97382 4.81515 5.37429 4.05241 6.06965C3.28968 6.76502 2.84207 7.70303 2.80069 8.69281C2.7593 9.6826 3.12723 10.6498 3.82962 11.3975L11.2203 18.2435L18.611 11.3985C19.3104 10.654 19.6784 9.69189 19.6407 8.70626C19.603 7.72064 19.1623 6.78494 18.4078 6.08806Z" fill="white"/>
</svg>
