<svg width="32" height="41" viewBox="0 0 32 41" fill="none" xmlns="http://www.w3.org/2000/svg">
<path fill-rule="evenodd" clip-rule="evenodd" d="M18.021 0.683319C21.1895 3.05513 20.4707 2.7936 24.4225 3.01327C25.9404 3.09789 27.1729 4.13188 27.5199 5.61195C28.4225 9.46519 28.0403 8.80303 30.9262 11.5115C32.0344 12.5518 32.314 14.1363 31.6284 15.4931C29.8431 19.0249 29.9759 18.2723 30.4454 22.2016C30.6259 23.7109 29.8211 25.1046 28.4238 25.7028C25.0149 27.1626 25.3273 26.8372 23.2053 30.0814C22.3734 31.3535 20.8609 31.904 19.4061 31.4642C15.6177 30.3195 16.3825 30.3195 12.594 31.4642C11.1387 31.904 9.62669 31.3535 8.79482 30.0814C6.62873 26.7692 7.21436 27.2608 3.57629 25.7028C2.17905 25.1046 1.37419 23.7109 1.5547 22.2016C2.0242 18.2718 2.15699 19.0249 0.371716 15.4931C-0.313854 14.1363 -0.0347644 12.5518 1.07394 11.5115C3.95982 8.80303 3.57719 9.46519 4.48018 5.61195C4.8268 4.13188 6.05974 3.09744 7.57763 3.01327C11.529 2.7936 10.8106 3.05513 13.9791 0.683319C15.195 -0.227773 16.8038 -0.227773 18.021 0.683319ZM16.4243 22.8106L21.8517 19.6772C22.1222 19.521 22.2766 19.2531 22.2766 18.9412V12.6738C22.2766 12.3619 22.1218 12.0936 21.8517 11.9378L20.0484 10.8966L13.7707 14.5212V16.934C13.7707 17.1312 13.5587 17.2531 13.3881 17.155L12.2474 16.4964C12.0584 16.3871 11.9499 16.1998 11.9499 15.981V13.4701L18.2276 9.84556L16.4239 8.80438C16.1533 8.64818 15.8441 8.64818 15.574 8.80438L10.1466 11.9378C9.87607 12.094 9.72167 12.3619 9.72167 12.6738V18.9407C9.72167 19.2527 9.87652 19.521 10.1466 19.6767L15.574 22.8102C15.8445 22.9668 16.1542 22.9668 16.4243 22.8106ZM19.994 32.956L22.6327 39.0829L25.5848 34.3258L31.0693 35.4489L27.6491 27.5083C25.8706 28.2686 25.9435 28.3798 24.3428 30.8268C23.3696 32.315 21.7032 33.1032 19.994 32.956ZM9.25757 40.8047L12.9866 32.7669C10.9587 33.38 8.81508 32.5995 7.6555 30.8268C6.93167 29.7199 6.3888 28.4365 5.1509 27.8603L0.929445 36.9276L6.44461 35.9638L9.25757 40.8047ZM15.9994 6.0747C10.6242 6.0747 6.26681 10.4321 6.26681 15.8073C6.26681 21.1825 10.6242 25.5399 15.9994 25.5399C21.3746 25.5399 25.732 21.1825 25.732 15.8073C25.732 10.4321 21.3746 6.0747 15.9994 6.0747Z" fill="#0066FF"/>
</svg>
