<svg width="47" height="22" viewBox="0 0 47 22" fill="none" xmlns="http://www.w3.org/2000/svg">
<path fill-rule="evenodd" clip-rule="evenodd" d="M44.3989 16.6811C44.3989 16.053 44.3989 15.8153 44.6818 15.8153H46.3058C46.4558 15.8153 46.5998 15.7557 46.7059 15.6496C46.812 15.5435 46.8716 15.3996 46.8716 15.2495V11.6281C46.8716 10.6492 46.6 10.6718 45.8192 10.6379L18.1607 10.6718C17.7759 10.6718 17.4421 10.5926 17.4421 11.0679V12.839C17.4421 13.054 17.1875 13.0823 16.8763 13.0766C16.6669 13.0766 16.4179 13.0427 16.4179 12.8333V1.26183C16.4179 0.497942 16.2765 0 15.4164 0H7.49457C5.58768 0 4.98222 0.701646 4.30321 1.88992C2.10774 5.76595 0.732738 8.61214 0.670495 13.1276V14.5082C0.53999 14.519 0.411005 14.5437 0.285721 14.5818C0.0367501 14.6667 0.0254333 14.7572 0.00845802 15.0005C-0.00281934 15.189 -0.00281934 15.3779 0.00845802 15.5664C0.00845802 16.0473 0.008458 17.1564 0.336647 17.4223C0.540952 17.5619 0.779872 17.6421 1.02698 17.6543L2.94519 17.6939C3.74868 17.6939 3.39786 17.858 3.68644 17.0715C3.99993 16.1835 4.58551 15.417 5.35985 14.8811C6.13419 14.3452 7.05784 14.0672 7.99934 14.0866C8.94085 14.106 9.85223 14.4219 10.6038 14.9893C11.3554 15.5567 11.9088 16.3467 12.1854 17.2469C12.5419 18.3786 12.0609 18.1692 13.4359 18.1692H31.4241C31.6448 18.1692 32.1936 18.2088 32.3181 18.0448C32.4663 17.7332 32.5874 17.4095 32.6803 17.0772C33.0104 16.1863 33.6154 15.4235 34.4079 14.8993C35.2003 14.3752 36.139 14.1167 37.088 14.1615C38.037 14.2062 38.9472 14.5518 39.6868 15.1482C40.4264 15.7446 40.957 16.5609 41.2019 17.4789C41.3773 18.1523 41.4848 18.1466 42.1072 18.1409C42.9956 18.1409 43.5331 18.1409 43.6124 18.1409C44.297 18.0448 44.4102 17.875 44.4215 17.4393C44.4215 17.2582 44.4215 16.9244 44.4215 16.6924L44.3989 16.6811ZM5.18593 7.39557C4.94827 7.39557 5.31041 7.1749 5.33305 6.71656C5.35568 5.93004 4.3994 5.87911 3.80527 5.93004C4.21463 4.65913 4.78512 3.44589 5.5028 2.31996C5.68818 1.87643 6.01367 1.50578 6.42953 1.26465C6.84539 1.02351 7.32875 0.925138 7.80578 0.984567H12.7116C12.7734 0.978329 12.8357 0.984851 12.8948 1.00372C12.9539 1.0226 13.0085 1.05342 13.0552 1.09428C13.1019 1.13514 13.1397 1.18516 13.1663 1.24124C13.1928 1.29732 13.2076 1.35825 13.2096 1.42027V6.58076C13.2096 7.23714 13.0398 7.38992 12.5928 7.38992L5.18593 7.39557ZM36.8732 15.2099C37.5446 15.2099 38.201 15.409 38.7594 15.782C39.3177 16.1551 39.7528 16.6853 40.0098 17.3057C40.2668 17.9261 40.334 18.6087 40.203 19.2673C40.072 19.9259 39.7486 20.5308 39.2738 21.0056C38.799 21.4804 38.1941 21.8038 37.5355 21.9348C36.8769 22.0658 36.1943 21.9985 35.5739 21.7416C34.9536 21.4846 34.4233 21.0494 34.0503 20.4911C33.6772 19.9328 33.4781 19.2764 33.4781 18.6049C33.4781 17.7045 33.8358 16.841 34.4725 16.2043C35.1092 15.5676 35.9727 15.2099 36.8732 15.2099ZM7.92461 15.2099C8.59609 15.2099 9.25249 15.409 9.8108 15.782C10.3691 16.1551 10.8043 16.6853 11.0612 17.3057C11.3182 17.9261 11.3854 18.6087 11.2544 19.2673C11.1234 19.9259 10.8001 20.5308 10.3253 21.0056C9.85047 21.4804 9.24553 21.8038 8.58695 21.9348C7.92838 22.0658 7.24574 21.9985 6.62538 21.7416C6.00501 21.4846 5.47477 21.0494 5.10172 20.4911C4.72866 19.9328 4.52955 19.2764 4.52955 18.6049C4.52955 17.7045 4.88724 16.841 5.52394 16.2043C6.16064 15.5676 7.02418 15.2099 7.92461 15.2099Z" fill="#00C070"/>
</svg>
