<svg width="48" height="21" viewBox="0 0 48 21" fill="none" xmlns="http://www.w3.org/2000/svg">
<path d="M47.6 7.70488C47.3 6.80488 46.7 5.90488 45.8 5.40488C40.1 1.60488 39.7 1.10488 37.9 0.804877C34.3 0.204876 23 -0.795124 19.9 1.10488C18.2 2.10488 13.1 5.00488 12.5 5.20488C3 7.50488 1.1 6.70488 0.5 9.40488C0.2 10.4049 0 11.5049 0 12.4049C0 13.5049 0.3 14.5049 0.9 15.3049C1.5 16.0049 2.3 16.5049 3.2 16.8049C3.2 16.5049 3.1 16.2049 3.1 15.9049C3.1 12.3049 6 9.40488 9.6 9.40488C13.2 9.40488 16.1 12.3049 16.1 15.9049C16.1 16.2049 16.1 16.6049 16 16.9049H32C32 16.6049 31.9 16.2049 31.9 15.9049C31.9 12.3049 34.8 9.40488 38.4 9.40488C42 9.40488 44.9 12.3049 44.9 15.9049C44.9 16.1049 44.9 16.3049 44.9 16.5049C46.5 15.8049 47.7 14.3049 47.9 12.4049C48.1 10.7049 48 9.10488 47.6 7.70488ZM26.4 6.30488C21.1 6.30488 19.4 6.30488 19.2 6.30488L15.8 5.70488C17.8 4.60488 20.1 3.20488 20.7 2.90488C22.4 2.50488 24.3 2.20488 26.4 2.10488V6.30488ZM37.1 4.40488C36.6 5.50488 35.5 6.30488 34.3 6.30488H28.4V2.00488C31.9 2.00488 36.4 2.50488 37.8 2.80488L37.1 4.40488Z" fill="#00C070"/>
<path d="M14 15.9048C14 18.4048 12 20.4048 9.5 20.4048C7 20.4048 5 18.4048 5 15.9048C5 13.4048 7 11.4048 9.5 11.4048C12 11.4048 14 13.5048 14 15.9048Z" fill="#00C070"/>
<path d="M42.9 15.9048C42.9 18.4048 40.9 20.4048 38.4 20.4048C35.9 20.4048 33.9 18.4048 33.9 15.9048C33.9 13.4048 35.9 11.4048 38.4 11.4048C40.9 11.4048 42.9 13.5048 42.9 15.9048Z" fill="#00C070"/>
</svg>
