<svg width="32" height="25" viewBox="0 0 32 25" fill="none" xmlns="http://www.w3.org/2000/svg">
<path fill-rule="evenodd" clip-rule="evenodd" d="M13.804 14.6367C13.9052 14.6953 13.9795 14.791 14.0111 14.9036C14.0427 15.0161 14.0291 15.1365 13.9732 15.2392C13.9172 15.3419 13.8234 15.4186 13.7117 15.4531C13.5999 15.4876 13.4791 15.4771 13.375 15.4239C12.123 14.7675 10.7603 14.3483 9.35571 14.1877C7.79327 13.9912 6.20997 14.0345 4.6606 14.316C4.60211 14.3281 4.54179 14.3283 4.48319 14.3168C4.42459 14.3052 4.36889 14.2821 4.31936 14.2487C4.26983 14.2154 4.22746 14.1724 4.19475 14.1225C4.16203 14.0725 4.13963 14.0166 4.12885 13.9578C4.11807 13.8991 4.11913 13.8388 4.13198 13.7805C4.14482 13.7222 4.16919 13.6671 4.20365 13.6183C4.2381 13.5695 4.28196 13.5281 4.33263 13.4965C4.38331 13.465 4.4398 13.4438 4.49877 13.4343C6.13863 13.1363 7.81441 13.0905 9.46811 13.2985C10.9837 13.4731 12.4538 13.9268 13.804 14.6367ZM13.804 16.5957C12.4532 15.8859 10.9827 15.4323 9.46669 15.2578C7.813 15.0498 6.13722 15.0954 4.49734 15.3933C4.38032 15.4147 4.27662 15.4818 4.20904 15.5797C4.14147 15.6775 4.11557 15.7982 4.13703 15.9152C4.15849 16.0322 4.22556 16.1358 4.32348 16.2034C4.4214 16.2709 4.54216 16.2968 4.65918 16.2754C6.20855 15.9939 7.79182 15.9505 9.35429 16.1467C10.7588 16.3077 12.1215 16.7268 13.3736 17.3828C13.4254 17.4128 13.4827 17.4321 13.5421 17.4396C13.6015 17.4471 13.6618 17.4426 13.7195 17.4265C13.7771 17.4103 13.831 17.3827 13.8778 17.3454C13.9246 17.3081 13.9635 17.2618 13.9921 17.2093C14.0208 17.1567 14.0386 17.099 14.0446 17.0394C14.0505 16.9798 14.0445 16.9197 14.0268 16.8625C14.0091 16.8053 13.9802 16.7523 13.9417 16.7064C13.9032 16.6606 13.8559 16.623 13.8025 16.5957H13.804ZM18.4091 15.4224C18.3056 15.4712 18.1874 15.4786 18.0787 15.4432C17.9699 15.4077 17.8788 15.3321 17.824 15.2317C17.7692 15.1313 17.7549 15.0138 17.7839 14.9032C17.8129 14.7926 17.8831 14.6973 17.9801 14.6367C19.3308 13.9267 20.8014 13.4729 22.3174 13.2985C23.9711 13.0905 25.6469 13.1363 27.2868 13.4343C27.3457 13.4438 27.4022 13.465 27.4529 13.4965C27.5036 13.5281 27.5474 13.5695 27.5819 13.6183C27.6163 13.6671 27.6407 13.7222 27.6535 13.7805C27.6664 13.8388 27.6674 13.8991 27.6567 13.9578C27.6459 14.0166 27.6235 14.0725 27.5908 14.1225C27.5581 14.1724 27.5157 14.2154 27.4662 14.2487C27.4166 14.2821 27.3609 14.3052 27.3023 14.3168C27.2437 14.3283 27.1834 14.3281 27.1249 14.316C25.5755 14.0345 23.9922 13.9912 22.4298 14.1877C21.0252 14.3483 19.6625 14.7675 18.4105 15.4239L18.4091 15.4224ZM18.4091 17.3814C19.6612 16.7253 21.0239 16.3062 22.4284 16.1452C23.9909 15.9491 25.5741 15.9925 27.1235 16.2739C27.1814 16.2846 27.2409 16.2837 27.2985 16.2713C27.3561 16.259 27.4107 16.2354 27.4592 16.202C27.5077 16.1685 27.5491 16.1259 27.5811 16.0764C27.6131 16.027 27.635 15.9717 27.6456 15.9138C27.6563 15.8559 27.6554 15.7964 27.643 15.7388C27.6307 15.6813 27.6071 15.6267 27.5736 15.5782C27.5402 15.5298 27.4975 15.4884 27.448 15.4564C27.3986 15.4244 27.3433 15.4025 27.2853 15.3919C25.6454 15.094 23.9697 15.0483 22.316 15.2564C20.8004 15.4315 19.3303 15.8856 17.9801 16.5957C17.8789 16.6542 17.8046 16.75 17.773 16.8625C17.7414 16.9751 17.755 17.0955 17.8109 17.1982C17.8669 17.3008 17.9607 17.3776 18.0724 17.4121C18.1842 17.4466 18.305 17.4361 18.4091 17.3828V17.3814ZM8.63402 10.2797V7.32876L6.08123 5.85579V8.806L7.5826 9.67243L8.63437 10.2793L8.63402 10.2797ZM12.0863 5.85722L9.53391 7.33018V10.279L12.0863 8.806V5.85722ZM12.7358 4.67756C12.8106 4.71474 12.8735 4.77204 12.9175 4.84302C12.9615 4.91399 12.9848 4.99582 12.9848 5.07931V9.06411C12.9848 9.1486 12.961 9.23138 12.9162 9.30299C12.8714 9.37461 12.8072 9.43216 12.7312 9.46906L9.33437 11.4295C9.2584 11.4805 9.1687 11.5073 9.07715 11.5062C8.98561 11.5051 8.89656 11.4763 8.82182 11.4234L7.13158 10.4478L5.40542 9.45235C5.33722 9.41304 5.2806 9.35645 5.24126 9.28829C5.20192 9.22013 5.18125 9.1428 5.18134 9.06411V5.07931C5.18133 4.99306 5.20614 4.90862 5.25281 4.83606C5.29948 4.7635 5.36603 4.70589 5.44455 4.6701L7.13301 3.69558L8.85917 2.70009C8.92838 2.66001 9.00704 2.63914 9.08702 2.63964C9.167 2.64014 9.2454 2.662 9.3141 2.70294L11.0353 3.69629C11.0435 3.70092 11.0509 3.70554 11.0584 3.71052L12.7362 4.67898L12.7358 4.67756ZM9.08397 6.5537L6.52833 5.07896L7.58224 4.47064L9.08361 3.60421L10.5846 4.47064L10.6095 4.48415L11.6389 5.07825L9.08361 6.55299L9.08397 6.5537ZM16.4507 3.01901V20.8471C17.9056 19.6123 19.6695 18.797 21.553 18.4885C23.9732 18.037 26.4651 18.1502 28.8344 18.8192L29.1516 0.758181C26.8147 -0.0189799 24.321 -0.20226 21.8956 0.224883C19.7589 0.603169 17.7617 1.48489 16.4535 3.01758L16.4507 3.01901ZM15.5508 3.01901C14.2415 1.48631 12.2428 0.604592 10.1087 0.226306C7.68323 -0.200837 5.18952 -0.0175572 2.85263 0.759603L3.16991 18.8206C5.53919 18.1516 8.03102 18.0385 10.4512 18.49C12.3348 18.7984 14.0987 19.6138 15.5536 20.8486V3.01901H15.5508ZM17.3129 23.033C17.3128 22.9485 17.3366 22.8658 17.3815 22.7942C17.4263 22.7226 17.4904 22.6652 17.5665 22.6284C19.479 21.4946 21.8945 20.8834 24.3367 20.6776C26.7774 20.4654 29.2365 20.6557 31.6155 21.2407L32 2.80427C31.6903 2.70946 31.3619 2.62176 31.0147 2.54117C30.6939 2.46604 30.3619 2.39837 30.0188 2.33816L29.7182 19.441C29.7171 19.5134 29.6984 19.5844 29.6638 19.648C29.6292 19.7116 29.5797 19.7659 29.5196 19.8063C29.4594 19.8466 29.3904 19.8717 29.3184 19.8796C29.2464 19.8874 29.1735 19.8777 29.1061 19.8513C26.7247 19.068 24.1831 18.9026 21.7202 19.3706C19.6085 19.7738 17.6415 20.6754 16.3678 22.2266C16.3264 22.286 16.2712 22.3345 16.207 22.368C16.1427 22.4015 16.0714 22.419 15.9989 22.419C15.9265 22.419 15.8551 22.4015 15.7909 22.368C15.7267 22.3345 15.6715 22.286 15.6301 22.2266C14.3564 20.6754 12.3894 19.7734 10.2777 19.3706C7.8153 18.9029 5.27441 19.0683 2.89354 19.8513C2.8261 19.8777 2.75327 19.8874 2.68126 19.8796C2.60926 19.8717 2.54023 19.8466 2.48007 19.8063C2.41991 19.7659 2.37042 19.7116 2.33582 19.648C2.30122 19.5844 2.28255 19.5134 2.2814 19.441L1.98084 2.33994C1.637 2.40038 1.30372 2.46841 0.980993 2.54402C0.636329 2.62472 0.308383 2.71254 0 2.8064L0.385924 21.2407C2.72128 20.666 5.13419 20.4723 7.53138 20.6669C9.95007 20.856 12.3524 21.4398 14.2717 22.5313C14.3463 22.5686 14.4091 22.6259 14.4531 22.6967C14.4971 22.7676 14.5205 22.8493 14.5207 22.9327V23.6754C14.5217 23.9139 14.617 24.1424 14.7857 24.3111C14.9544 24.4797 15.183 24.5749 15.4216 24.576H16.4151C16.6537 24.5749 16.8823 24.4797 17.051 24.3111C17.2198 24.1424 17.315 23.9139 17.3161 23.6754V23.033H17.3129ZM18.4091 4.74725C18.3573 4.77723 18.3 4.79653 18.2406 4.80402C18.1811 4.81151 18.1208 4.80703 18.0632 4.79086C18.0055 4.77468 17.9517 4.74713 17.9049 4.70983C17.8581 4.67253 17.8192 4.62623 17.7905 4.57367C17.7619 4.52112 17.7441 4.46336 17.7381 4.4038C17.7322 4.34425 17.7382 4.28411 17.7559 4.22692C17.7735 4.16974 17.8025 4.11667 17.841 4.07084C17.8795 4.02501 17.9268 3.98736 17.9801 3.9601C19.3308 3.25021 20.8014 2.79649 22.3174 2.62188C23.9711 2.41409 25.6469 2.45989 27.2868 2.75769C27.4038 2.77914 27.5075 2.84618 27.5751 2.94406C27.6426 3.04194 27.6685 3.16264 27.6471 3.27961C27.6256 3.39658 27.5585 3.50024 27.4606 3.56778C27.3627 3.63532 27.2419 3.66122 27.1249 3.63977C25.5756 3.35796 23.9923 3.31455 22.4298 3.51106C21.0252 3.67172 19.6625 4.09084 18.4105 4.74725H18.4091ZM18.4091 6.70658C18.305 6.75983 18.1842 6.77032 18.0724 6.73582C17.9607 6.70133 17.8669 6.62457 17.8109 6.52192C17.755 6.41927 17.7414 6.29883 17.773 6.18629C17.8046 6.07374 17.8789 5.97799 17.9801 5.91943C19.3308 5.20955 20.8014 4.75582 22.3174 4.58121C23.9711 4.37355 25.6469 4.41947 27.2868 4.71738C27.3457 4.72687 27.4022 4.74803 27.4529 4.77962C27.5036 4.81122 27.5474 4.85261 27.5819 4.90138C27.6163 4.95015 27.6407 5.0053 27.6535 5.06361C27.6664 5.12191 27.6674 5.1822 27.6567 5.24092C27.6459 5.29964 27.6235 5.35562 27.5908 5.40557C27.5581 5.45552 27.5157 5.49844 27.4662 5.5318C27.4166 5.56517 27.3609 5.5883 27.3023 5.59986C27.2437 5.61142 27.1834 5.61116 27.1249 5.5991C25.5755 5.31759 23.9922 5.2743 22.4298 5.47075C21.0252 5.63141 19.6625 6.05053 18.4105 6.70694L18.4091 6.70658ZM18.4091 10.0841C18.3573 10.1141 18.3 10.1334 18.2406 10.1409C18.1811 10.1484 18.1208 10.1439 18.0632 10.1277C18.0055 10.1116 17.9517 10.084 17.9049 10.0467C17.8581 10.0094 17.8192 9.96312 17.7905 9.91056C17.7619 9.858 17.7441 9.80024 17.7381 9.74069C17.7322 9.68114 17.7382 9.62099 17.7559 9.56381C17.7735 9.50662 17.8025 9.45355 17.841 9.40773C17.8795 9.3619 17.9268 9.32425 17.9801 9.29699C19.3308 8.5871 20.8014 8.13338 22.3174 7.95876C23.9711 7.7511 25.6469 7.79702 27.2868 8.09493C27.3457 8.10442 27.4022 8.12558 27.4529 8.15717C27.5036 8.18877 27.5474 8.23017 27.5819 8.27893C27.6163 8.3277 27.6407 8.38285 27.6535 8.44116C27.6664 8.49946 27.6674 8.55975 27.6567 8.61847C27.6459 8.67719 27.6235 8.73317 27.5908 8.78312C27.5581 8.83307 27.5157 8.87599 27.4662 8.90935C27.4166 8.94272 27.3609 8.96586 27.3023 8.97741C27.2437 8.98897 27.1834 8.98871 27.1249 8.97665C25.5755 8.69514 23.9922 8.65186 22.4298 8.8483C21.0252 9.00896 19.6625 9.42808 18.4105 10.0845L18.4091 10.0841ZM18.4091 12.0435C18.3061 12.0896 18.1896 12.0952 18.0826 12.0593C17.9757 12.0233 17.8862 11.9484 17.8321 11.8494C17.778 11.7504 17.7632 11.6347 17.7906 11.5253C17.818 11.4159 17.8857 11.3209 17.9801 11.2592C19.3308 10.5491 20.8014 10.0954 22.3174 9.92094C23.9711 9.71298 25.6469 9.75878 27.2868 10.0568C27.3457 10.0662 27.4022 10.0874 27.4529 10.119C27.5036 10.1506 27.5474 10.192 27.5819 10.2408C27.6163 10.2895 27.6407 10.3447 27.6535 10.403C27.6664 10.4613 27.6674 10.5216 27.6567 10.5803C27.6459 10.639 27.6235 10.695 27.5908 10.7449C27.5581 10.7949 27.5157 10.8378 27.4662 10.8712C27.4166 10.9045 27.3609 10.9277 27.3023 10.9392C27.2437 10.9508 27.1834 10.9505 27.1249 10.9385C25.5755 10.657 23.9922 10.6137 22.4298 10.8101C21.0248 10.9702 19.6616 11.3888 18.4091 12.0449V12.0435Z" fill="#0066FF"/>
</svg>
