<svg width="32" height="12" viewBox="0 0 32 12" fill="none" xmlns="http://www.w3.org/2000/svg">
<path fill-rule="evenodd" clip-rule="evenodd" d="M22.3678 3.61209H25.7792C27.3846 3.61209 32 4.31444 32 7.32452V8.82955C32 9.2309 31.699 9.53191 31.398 9.53191H27.5852C27.6856 9.2309 27.7859 8.82955 27.7859 8.42821C27.7859 6.92317 26.5819 5.71914 24.9765 5.71914C23.4715 5.71914 22.1671 6.92317 22.1671 8.42821C22.1671 8.82955 22.2674 9.2309 22.4681 9.53191H15.4446C15.2439 9.33123 15.0432 9.13056 14.9429 8.92989C16.3476 9.03023 18.1537 8.92989 20.1604 8.62888C17.953 8.52855 16.0466 8.32788 14.4412 8.22754C13.5382 6.82284 13.1369 5.3178 13.2372 3.61209H13.1369C13.0365 5.3178 13.4379 6.82284 14.2406 8.22754C12.7355 8.02687 11.4311 7.92653 10.4278 7.72586C11.2305 8.42821 12.7355 8.82955 14.7422 8.92989C14.9429 9.13056 15.0432 9.33123 15.2439 9.53191H9.32409C9.42443 9.2309 9.42443 8.92989 9.42443 8.62888C9.32409 7.52519 8.82242 6.52183 7.91939 5.81948C7.51805 5.51847 7.01637 5.21746 6.51469 5.11713C6.31402 4.51511 6.31402 4.21411 6.31402 3.51175H6.21368L12.9362 3.61209L11.8325 0.602015H9.32409C8.52141 0.602015 8.32074 0.401343 7.61839 0.903023C7.11671 1.30437 6.41436 1.70571 5.91268 2.10705C5.21033 2.60873 4.60831 3.51175 6.11335 3.51175H6.21368C6.11335 4.21411 6.21368 4.61545 6.41436 5.21746C6.91604 5.3178 7.41771 5.61881 7.81906 5.91982C8.72208 6.62217 9.22376 7.52519 9.32409 8.62888C9.32409 8.92989 9.32409 9.2309 9.22376 9.53191H8.12006C8.32074 9.2309 8.32074 8.82955 8.32074 8.42821C8.32074 6.92317 7.11671 5.71914 5.61167 5.71914C4.0063 5.71914 2.80227 6.92317 2.80227 8.42821C2.80227 8.82955 2.9026 9.2309 3.00294 9.53191H1.79891C-0.00713869 9.53191 -0.408482 8.02687 0.394205 7.32452L0.293869 5.51847C0.293869 4.61545 1.09656 3.71243 1.99958 3.61209C1.99958 2.8094 5.91268 0 7.61839 0H15.8459C16.9496 0 20.4614 2.40806 22.3678 3.61209ZM24.9765 5.81948C26.4815 5.81948 27.6856 7.02351 27.6856 8.42821C27.6856 9.93325 26.4815 11.1373 24.9765 11.1373C23.5718 11.1373 22.3678 9.93325 22.3678 8.42821C22.3678 7.02351 23.5718 5.81948 24.9765 5.81948ZM24.9765 6.52183C26.0802 6.52183 26.9832 7.32452 26.9832 8.42821C26.9832 9.53191 26.0802 10.4349 24.9765 10.4349C23.8728 10.4349 22.9698 9.53191 22.9698 8.42821C22.9698 7.32452 23.8728 6.52183 24.9765 6.52183ZM25.2775 7.12385C25.2775 7.22418 25.0768 7.62552 24.9765 7.72586C24.9765 7.62552 24.7758 7.22418 24.7758 7.12385C24.7758 6.7225 25.2775 6.7225 25.2775 7.12385ZM26.1805 7.62552C26.0802 7.72586 25.5785 7.92653 25.4782 7.92653C25.5785 7.8262 25.6788 7.42485 25.7792 7.32452C26.0802 7.02351 26.3812 7.42485 26.1805 7.62552ZM26.3812 8.72922C26.2809 8.72922 25.7792 8.52855 25.6788 8.42821C25.7792 8.42821 26.2809 8.22754 26.3812 8.22754C26.7825 8.22754 26.7825 8.72922 26.3812 8.72922ZM25.7792 9.63224C25.6788 9.53191 25.5785 9.03023 25.4782 8.92989C25.5785 9.03023 26.0802 9.13056 26.1805 9.2309C26.3812 9.53191 26.0802 9.83291 25.7792 9.63224ZM24.7758 9.83291C24.7758 9.73258 24.9765 9.2309 24.9765 9.13056C25.0768 9.2309 25.2775 9.73258 25.2775 9.83291C25.2775 10.2343 24.7758 10.2343 24.7758 9.83291ZM23.8728 9.2309C23.9731 9.13056 24.3745 9.03023 24.4748 8.92989C24.4748 9.03023 24.2741 9.53191 24.1738 9.63224C23.9731 9.83291 23.5718 9.53191 23.8728 9.2309ZM23.6721 8.22754C23.7725 8.22754 24.1738 8.42821 24.2741 8.42821C24.1738 8.52855 23.7725 8.72922 23.6721 8.72922C23.2708 8.72922 23.2708 8.22754 23.6721 8.22754ZM24.1738 7.32452C24.2741 7.42485 24.4748 7.8262 24.4748 7.92653C24.3745 7.92653 23.9731 7.72586 23.8728 7.62552C23.5718 7.42485 23.9731 7.02351 24.1738 7.32452ZM5.61167 5.81948C7.01637 5.81948 8.2204 7.02351 8.2204 8.42821C8.2204 9.93325 7.01637 11.1373 5.61167 11.1373C4.10663 11.1373 2.9026 9.93325 2.9026 8.42821C2.9026 7.02351 4.10663 5.81948 5.61167 5.81948ZM5.61167 6.52183C6.71536 6.52183 7.51805 7.32452 7.51805 8.42821C7.51805 9.53191 6.71536 10.4349 5.61167 10.4349C4.50797 10.4349 3.60495 9.53191 3.60495 8.42821C3.60495 7.32452 4.50797 6.52183 5.61167 6.52183ZM5.81234 7.12385C5.81234 7.22418 5.61167 7.62552 5.61167 7.72586C5.51133 7.62552 5.31066 7.22418 5.31066 7.12385C5.31066 6.7225 5.81234 6.7225 5.81234 7.12385ZM6.71536 7.62552C6.61503 7.72586 6.21368 7.92653 6.01301 7.92653C6.11335 7.8262 6.31402 7.42485 6.31402 7.32452C6.61503 7.02351 7.01637 7.42485 6.71536 7.62552ZM6.91603 8.72922C6.8157 8.72922 6.41436 8.52855 6.21368 8.42821C6.41436 8.42821 6.8157 8.22754 6.91603 8.22754C7.31738 8.22754 7.31738 8.72922 6.91603 8.72922ZM6.31402 9.63224C6.31402 9.53191 6.11335 9.03023 6.01301 8.92989C6.21368 9.03023 6.61503 9.13056 6.71536 9.2309C7.01637 9.53191 6.61503 9.83291 6.31402 9.63224ZM5.31066 9.83291C5.31066 9.73258 5.51133 9.2309 5.61167 9.13056C5.61167 9.2309 5.81234 9.73258 5.81234 9.83291C5.81234 10.2343 5.31066 10.2343 5.31066 9.83291ZM4.40764 9.2309C4.50797 9.13056 4.90932 9.03023 5.10999 8.92989C5.00965 9.03023 4.90932 9.53191 4.80898 9.63224C4.50797 9.83291 4.20697 9.53191 4.40764 9.2309ZM4.20697 8.22754C4.3073 8.22754 4.70865 8.42821 4.90932 8.42821C4.70865 8.52855 4.3073 8.72922 4.20697 8.72922C3.80562 8.72922 3.80562 8.22754 4.20697 8.22754ZM4.80898 7.32452C4.90932 7.42485 5.00965 7.8262 5.10999 7.92653C4.90932 7.92653 4.50797 7.72586 4.40764 7.62552C4.20697 7.42485 4.50797 7.02351 4.80898 7.32452ZM19.6587 3.61209C19.5584 3.31108 19.759 3.01008 19.9597 2.90974L16.9496 1.00336C16.6486 0.903023 16.1469 0.602015 15.8459 0.602015H12.2338L13.3375 3.61209H19.6587ZM13.8392 4.21411H14.9429C15.1436 4.21411 15.1436 4.61545 14.9429 4.61545H13.8392C13.5382 4.61545 13.5382 4.21411 13.8392 4.21411ZM6.8157 4.21411H7.81906C8.12006 4.21411 8.12006 4.61545 7.81906 4.61545H6.8157C6.51469 4.61545 6.51469 4.21411 6.8157 4.21411ZM26.8829 5.01679C28.0869 5.01679 31.097 5.11713 31.097 6.7225H28.5886C28.2876 5.91982 27.6856 5.3178 26.8829 5.01679ZM0.695212 5.91982H1.59823C1.99958 5.91982 2.20025 5.61881 2.20025 5.3178V4.71579H0.895884C0.594876 5.11713 0.594876 5.41814 0.695212 5.91982Z" fill="black"/>
</svg>
