<svg width="47" height="22" viewBox="0 0 47 22" fill="none" xmlns="http://www.w3.org/2000/svg">
<path d="M36.0637 22.0002C34.0378 22.0002 32.3954 20.3578 32.3954 18.3319C32.3954 16.3059 34.0378 14.6636 36.0637 14.6636C38.0897 14.6636 39.7321 16.3059 39.7321 18.3319C39.7321 20.3578 38.0897 22.0002 36.0637 22.0002Z" fill="#00C070"/>
<path d="M9.48074 22.0002C7.45479 22.0002 5.81244 20.3578 5.81244 18.3319C5.81244 16.3059 7.45479 14.6636 9.48074 14.6636C11.5067 14.6636 13.149 16.3059 13.149 18.3319C13.149 20.3578 11.5067 22.0002 9.48074 22.0002Z" fill="#00C070"/>
<path d="M0.777184 13.0997V12.3719C0.777184 11.359 1.41644 10.0116 2.19337 9.37237L12.1853 1.16048C12.9623 0.521234 14.4276 0 15.4307 0H42.0137C43.0266 0 44.0101 0.806437 44.2068 1.79973L45.3279 7.36612C45.5246 8.35941 45.6918 9.99195 45.6918 10.9951V14.2897C46.1049 14.4372 46.4196 14.8306 46.4196 15.2928V16.3746C46.4196 16.8467 46.1147 17.2302 45.6918 17.3777V17.4072L41.5711 18.3219C41.5711 15.283 39.1125 12.8243 36.0736 12.8243C33.0347 12.8243 30.576 15.283 30.576 18.3219H14.9882C14.9882 15.283 12.5295 12.8243 9.49064 12.8243C6.45175 12.8243 3.9931 15.283 3.9931 18.3219L0.787022 17.4072V16.2173C0.334629 16.0894 0.00025177 15.6862 0.00025177 15.1945V14.1126C-0.00958252 13.6308 0.324795 13.2374 0.777184 13.0997ZM20.4857 7.70049L26.4357 7.67099L29.1893 2.75369H20.4857V7.70049ZM17.732 7.81851V2.74385H15.4406C15.0669 2.74385 14.2211 3.04873 13.9359 3.28476L7.90727 8.23156L17.732 7.81851Z" fill="#00C070"/>
</svg>
