<svg width="16" height="23" viewBox="0 0 16 23" fill="none" xmlns="http://www.w3.org/2000/svg">
<path d="M15.4573 2.13346C15.4662 2.09109 15.4708 2.04521 15.471 1.99581C15.5402 1.3565 14.7097 0.847219 12.9797 0.467987C11.5373 0.155102 9.78926 -0.000892268 7.73556 3.83871e-06C5.69129 -0.00082058 3.93406 0.155174 2.46387 0.467987C0.775709 0.8479 -0.0409673 1.35259 0.0138386 1.98205V2.00958C0.0103617 2.05359 0.0103617 2.09489 0.0138386 2.13346V8.39617C0.0103617 8.44019 0.0103617 8.48148 0.0138386 8.52005V20.8528C0.00487752 20.9039 0.000289661 20.9544 7.45954e-05 21.0042C-0.00211191 21.1588 0.0437688 21.301 0.137717 21.4309C0.139939 21.4401 0.139939 21.4447 0.137717 21.4446C0.359234 21.8697 1.13003 22.2276 2.4501 22.5182C3.92029 22.8402 5.67752 23.0008 7.72179 23C9.77549 23.0009 11.5235 22.8403 12.966 22.5182C14.3428 22.218 15.1365 21.8463 15.3472 21.4033C15.4256 21.2659 15.4623 21.1374 15.4573 21.0179V15.526C15.4679 15.4655 15.4725 15.4151 15.471 15.3746C15.4708 15.3249 15.4662 15.2745 15.4573 15.2232V14.1909C15.4623 14.1536 15.4623 14.1169 15.4573 14.0808V8.53381C15.4673 8.47621 15.4719 8.42115 15.471 8.36864C15.4716 8.32717 15.467 8.28129 15.4573 8.231V2.13346ZM12.9797 3.50988C13.6798 3.36388 14.2303 3.19412 14.6314 3.0006V8.39617C14.4799 8.62346 13.8697 8.85286 12.8008 9.08438C11.4077 9.39547 9.71929 9.55147 7.73556 9.55236C5.76065 9.55154 4.06306 9.39555 2.6428 9.08438C1.50374 8.83817 0.902705 8.60417 0.839691 8.38241V3.0006C1.23903 3.19212 1.78042 3.36188 2.46387 3.50988C3.93406 3.83187 5.69129 3.99245 7.73556 3.99162C9.78926 3.99252 11.5373 3.83194 12.9797 3.50988ZM0.839691 15.0305C1.23004 15.2193 1.77143 15.389 2.46387 15.5398C3.93406 15.8618 5.69129 16.0224 7.73556 16.0215C9.78926 16.0224 11.5373 15.8619 12.9797 15.5398C13.6797 15.3896 14.2303 15.2199 14.6314 15.0305V15.4434C14.6291 15.4731 14.6291 15.5006 14.6314 15.526V20.9904C14.4395 21.2446 13.8247 21.4831 12.787 21.7062C11.3939 22.0173 9.70553 22.1732 7.72179 22.1741C5.74688 22.1733 4.0493 22.0173 2.62904 21.7062C1.61131 21.4865 1.01486 21.2571 0.839691 21.0179C0.838687 21.0097 0.8341 20.9959 0.825927 20.9767C0.834637 20.9529 0.839225 20.9254 0.839691 20.8941V15.0305ZM12.8008 1.28007C13.9723 1.5364 14.5871 1.77498 14.6452 1.99581C14.519 2.23375 13.9042 2.46774 12.8008 2.69779C11.4077 3.00888 9.71929 3.16488 7.73556 3.16577C5.76065 3.16495 4.06306 3.00895 2.6428 2.69779C1.50374 2.45157 0.902705 2.21758 0.839691 1.99581C0.902777 1.77412 1.50381 1.53554 2.6428 1.28007C4.06306 0.978087 5.76065 0.826681 7.73556 0.825856C9.71929 0.826752 11.4077 0.978159 12.8008 1.28007ZM11.7134 2.43627C12.1967 2.33723 12.4216 2.17665 12.3879 1.95452C12.4222 1.74268 12.1974 1.5821 11.7134 1.47277C11.3557 1.39062 10.929 1.34933 10.4333 1.3489C9.94059 1.34933 9.5139 1.39062 9.15327 1.47277C8.6593 1.58045 8.4299 1.74103 8.46506 1.95452C8.43087 2.17636 8.65568 2.33694 9.13951 2.43627C9.50634 2.52756 9.93762 2.57344 10.4333 2.57391C10.9261 2.57344 11.3527 2.52756 11.7134 2.43627ZM11.6308 2.03711H11.6171C11.2865 2.12012 10.8919 2.16141 10.4333 2.16098C9.97472 2.16141 9.57555 2.12012 9.23586 2.03711C9.02065 1.99549 8.90136 1.96796 8.87799 1.95452C8.90075 1.9504 9.02004 1.92287 9.23586 1.87194C9.57555 1.79806 9.97472 1.76136 10.4333 1.76182C10.8919 1.76136 11.2865 1.79806 11.6171 1.87194H11.6308C11.8378 1.92215 11.9525 1.94968 11.9749 1.95452C11.9519 1.96861 11.8372 1.99614 11.6308 2.03711Z" fill="#9D9D9D" fill-opacity="0.97"/>
</svg>
