<svg width="24" height="24" viewBox="0 0 24 24" fill="none" xmlns="http://www.w3.org/2000/svg">
<path d="M12.001 4.52906C13.1436 3.50626 14.6345 2.95993 16.1674 3.00234C17.7003 3.04474 19.1587 3.67266 20.243 4.75706C21.3263 5.84025 21.9543 7.29681 21.9982 8.82815C22.0421 10.3595 21.4985 11.8496 20.479 12.9931L11.999 21.4851L3.52099 12.9931C2.50025 11.849 1.95619 10.3576 2.00053 8.82505C2.04486 7.29247 2.67422 5.83501 3.75939 4.75189C4.84456 3.66877 6.3032 3.04217 7.83586 3.00073C9.36851 2.95929 10.8589 3.50616 12.001 4.52906ZM18.827 6.17006C18.1046 5.44819 17.1333 5.03014 16.1124 5.00169C15.0915 4.97324 14.0985 5.33654 13.337 6.01706L12.002 7.21506L10.666 6.01806C9.90766 5.33995 8.91945 4.97626 7.90246 5.00098C6.88546 5.02571 5.91609 5.437 5.19161 6.15116C4.46713 6.86532 4.04198 7.82868 4.00267 8.84522C3.96335 9.86176 4.31283 10.8551 4.97999 11.6231L12 18.6541L19.02 11.6241C19.6843 10.8595 20.0339 9.87131 19.9981 8.85904C19.9622 7.84677 19.5437 6.88578 18.827 6.17006Z" fill="#444444"/>
</svg>
