<svg width="26" height="26" viewBox="0 0 26 26" fill="none" xmlns="http://www.w3.org/2000/svg">
<path d="M0.00178766 12.7289C-0.0553513 16.1822 1.25884 19.4643 3.71582 21.9759C6.22993 24.5159 9.68684 26 13.258 26H13.3723C15.0008 26 16.3435 24.6586 16.3435 23.0318C16.3435 21.405 15.0008 20.0351 13.3723 20.0351C12.3438 20.0351 11.5153 19.2075 11.5153 18.18C11.5153 17.809 11.6296 17.438 11.8295 17.1526C12.2295 16.5532 13.058 16.2678 13.8294 16.4676L13.9151 16.4962C14.6008 16.6674 15.1722 17.1811 15.4864 17.8946C16.0293 19.2075 17.3149 20.0637 18.7434 20.0637C22.6859 20.0637 25.8857 16.9243 26 13.0143V12.8145C25.9143 5.70801 20.1147 0 13.0009 0C5.97281 0 0.116066 5.70801 0.00178766 12.7289ZM6.31564 13.3568C6.31564 14.584 5.31571 15.5829 4.08722 15.5829C2.85873 15.5829 1.8588 14.584 1.8588 13.3568C1.8588 12.1295 2.85873 11.1306 4.08722 11.1306C5.31571 11.1306 6.31564 12.1295 6.31564 13.3568ZM6.68704 10.0176C5.45856 10.0176 4.45862 9.01866 4.45862 7.79144C4.45862 6.56421 5.45856 5.56531 6.68704 5.56531C7.91553 5.56531 8.91546 6.56421 8.91546 7.79144C8.91546 9.01866 7.91553 10.0176 6.68704 10.0176ZM21.1718 6.67838C21.1718 7.9056 20.1718 8.9045 18.9433 8.9045C17.7149 8.9045 16.7149 7.9056 16.7149 6.67838C16.7149 5.45115 17.7149 4.45225 18.9433 4.45225C20.1718 4.45225 21.1718 5.45115 21.1718 6.67838ZM14.8579 4.82327C14.8579 6.05049 13.858 7.0494 12.6295 7.0494C11.401 7.0494 10.4011 6.05049 10.4011 4.82327C10.4011 3.59605 11.401 2.59715 12.6295 2.59715C13.858 2.59715 14.8579 3.59605 14.8579 4.82327Z" fill="#0066FF"/>
</svg>
