<svg width="60" height="22" viewBox="0 0 60 22" fill="none" xmlns="http://www.w3.org/2000/svg">
<path fill-rule="evenodd" clip-rule="evenodd" d="M59.4193 17.1467C59.6816 15.8379 59.7884 14.5026 59.7375 13.1687C59.7375 12.678 59.6314 12.3531 59.1474 12.2537C58.8557 12.194 58.5573 12.1277 58.5507 12.0017C58.4579 10.4901 58.3518 9.34969 58.186 7.8115C58.0866 6.82361 56.3893 5.97495 55.3881 5.0401C54.4864 4.2246 52.6234 2.8389 51.8344 2.19577C51.1714 1.6521 52.1592 1.04213 51.5426 0.783555C50.5548 0.332705 48.7049 0.120541 46.7159 0.120541C41.8295 -0.0319524 35.206 -0.0916242 30.4323 0.259773C28.8463 0.34373 27.2744 0.601642 25.7448 1.02887C22.1446 2.16925 19.0682 5.00695 15.6537 6.59818C11.4606 6.92554 7.29555 7.54587 3.18904 8.45463C2.72769 8.52159 2.29283 8.71141 1.93005 9.0042C1.56727 9.29699 1.28992 9.68197 1.12707 10.1188C0.696113 11.0072 0.855236 11.8095 0.649701 12.3333C0.318194 12.3333 0.304934 12.2736 0.198852 12.4659C0.0927699 12.6581 0.152441 12.9432 0.12592 13.2747C0.0132081 14.7997 -0.324929 17.0738 0.948058 18.0219C1.0114 18.0626 1.07791 18.098 1.14696 18.128H3.06307C4.01781 18.128 3.95814 17.9424 4.05759 16.9346C4.20517 15.4926 4.88186 14.1564 5.95697 13.1842C7.03208 12.2119 8.42933 11.6725 9.87885 11.6702C11.2744 11.6931 12.6178 12.2046 13.6754 13.1155C14.7329 14.0265 15.4376 15.2793 15.667 16.6561C15.8592 17.9092 15.5609 18.1346 16.8339 18.1346H41.8892C42.7842 18.1346 42.7246 18.0418 42.7842 17.1467C42.8839 15.6733 43.5367 14.2919 44.6119 13.2795C45.6872 12.267 47.1053 11.6984 48.5821 11.6875C50.0589 11.6766 51.4853 12.2242 52.5753 13.2207C53.6653 14.2171 54.3385 15.5887 54.4599 17.0605C54.5594 18.128 54.4599 18.1346 55.4412 18.1346H57.8744C58.6369 18.1346 59.2005 17.9622 59.4193 17.1534V17.1467ZM48.6254 12.9963C49.5158 12.9963 50.3862 13.2603 51.1265 13.755C51.8668 14.2496 52.4438 14.9527 52.7846 15.7753C53.1253 16.598 53.2145 17.5031 53.0407 18.3764C52.867 19.2497 52.4383 20.0518 51.8087 20.6814C51.1791 21.311 50.3769 21.7398 49.5037 21.9135C48.6304 22.0872 47.7252 21.998 46.9026 21.6573C46.08 21.3166 45.3769 20.7396 44.8822 19.9992C44.3875 19.2589 44.1235 18.3885 44.1235 17.4981C44.1235 16.3042 44.5978 15.1591 45.4421 14.3148C46.2864 13.4706 47.4314 12.9963 48.6254 12.9963ZM9.87885 12.9963C10.7692 12.9963 11.6396 13.2603 12.38 13.755C13.1203 14.2496 13.6973 14.9527 14.038 15.7753C14.3788 16.598 14.4679 17.5031 14.2942 18.3764C14.1205 19.2497 13.6917 20.0518 13.0622 20.6814C12.4326 21.311 11.6304 21.7398 10.7571 21.9135C9.88385 22.0872 8.97867 21.998 8.15606 21.6573C7.33346 21.3166 6.63036 20.7396 6.13569 19.9992C5.64102 19.2589 5.37699 18.3885 5.37699 17.4981C5.37699 16.3042 5.85129 15.1591 6.69556 14.3148C7.53982 13.4706 8.68489 12.9963 9.87885 12.9963ZM21.9656 7.55956C22.0759 7.22865 22.1471 6.88597 22.1778 6.53851C22.2242 5.76279 20.7987 5.70312 19.9103 5.76279C21.843 4.2561 23.982 3.03474 26.2619 2.1361C27.805 1.84639 29.3728 1.70871 30.9428 1.72503L32.8854 1.67862C33.2302 1.67862 33.2766 1.83775 33.1772 2.11621C32.8324 3.0378 32.6932 5.0401 32.5141 6.38602C32.4081 7.04903 32.2556 7.18827 31.5926 7.1949C28.9803 7.1949 21.959 7.71868 21.9921 7.59271L21.9656 7.55956ZM42.9102 6.76394C42.8593 5.32639 42.6094 3.90284 42.1676 2.53391C39.7145 1.45983 37.8779 1.67862 35.2988 1.64547C35.2054 1.64203 35.1125 1.66135 35.0282 1.70177C34.9439 1.7422 34.8706 1.80251 34.8148 1.87753C34.5363 2.59358 34.4767 3.56821 34.112 6.51862C34.0126 7.3275 34.0656 7.10871 34.9607 7.09544C37.1685 7.09544 40.4106 6.90317 42.9168 6.76394H42.9102ZM43.3213 2.78585C43.7261 4.06301 43.9994 5.37819 44.1368 6.7109C45.0186 6.66449 44.7534 6.6247 45.549 6.59818C46.696 6.5584 46.6562 6.10092 45.9336 5.1064C45.2478 4.14676 44.355 3.35367 43.3213 2.78585ZM49.0497 2.24218L50.5548 2.38805C52.0333 3.60136 53.5052 4.67545 54.9837 5.84898C55.7727 6.47221 54.9837 6.40591 54.387 6.2932C52.0731 5.86887 50.4752 4.06547 49.0829 2.31511L49.0497 2.24218Z" fill="#00C070"/>
</svg>
