<svg width="24" height="24" viewBox="0 0 24 24" fill="none" xmlns="http://www.w3.org/2000/svg">
<path d="M11.9999 10.8C12.9547 10.8 13.8704 10.4207 14.5455 9.74556C15.2207 9.07043 15.5999 8.15476 15.5999 7.19998C15.5999 6.2452 15.2207 5.32952 14.5455 4.65439C13.8704 3.97926 12.9547 3.59998 11.9999 3.59998C11.0452 3.59998 10.1295 3.97926 9.45436 4.65439C8.77922 5.32952 8.39994 6.2452 8.39994 7.19998C8.39994 8.15476 8.77922 9.07043 9.45436 9.74556C10.1295 10.4207 11.0452 10.8 11.9999 10.8ZM7.19994 9.59998C7.19994 10.2365 6.94708 10.8469 6.497 11.297C6.04691 11.7471 5.43646 12 4.79994 12C4.16342 12 3.55297 11.7471 3.10288 11.297C2.6528 10.8469 2.39994 10.2365 2.39994 9.59998C2.39994 8.96346 2.6528 8.35301 3.10288 7.90292C3.55297 7.45283 4.16342 7.19998 4.79994 7.19998C5.43646 7.19998 6.04691 7.45283 6.497 7.90292C6.94708 8.35301 7.19994 8.96346 7.19994 9.59998ZM1.78794 18.3912C1.58308 18.2748 1.42967 18.0853 1.35834 17.8608C1.14691 17.176 1.14469 16.4436 1.35197 15.7576C1.55925 15.0715 1.9666 14.4629 2.52185 14.0097C3.0771 13.5566 3.75497 13.2794 4.46867 13.2139C5.18237 13.1483 5.8994 13.2972 6.52794 13.6416C5.2363 14.9109 4.42786 16.591 4.24194 18.3924C4.21434 18.6588 4.22514 18.9228 4.27194 19.1772C3.39613 19.1014 2.54789 18.833 1.78794 18.3912ZM19.7279 19.176C20.6037 19.1006 21.4519 18.8326 22.2119 18.3912C22.4163 18.2745 22.5693 18.0851 22.6403 17.8608C22.8521 17.1759 22.8546 16.4434 22.6474 15.7571C22.4403 15.0708 22.033 14.462 21.4777 14.0086C20.9223 13.5553 20.2443 13.278 19.5305 13.2124C18.8166 13.1468 18.0994 13.2958 17.4707 13.6404C18.7635 14.9096 19.5728 16.5903 19.7591 18.3924C19.7859 18.6541 19.7754 18.9184 19.7279 19.1772V19.176ZM21.5999 9.59998C21.5999 10.2365 21.3471 10.8469 20.897 11.297C20.4469 11.7471 19.8365 12 19.1999 12C18.5634 12 17.953 11.7471 17.5029 11.297C17.0528 10.8469 16.7999 10.2365 16.7999 9.59998C16.7999 8.96346 17.0528 8.35301 17.5029 7.90292C17.953 7.45283 18.5634 7.19998 19.1999 7.19998C19.8365 7.19998 20.4469 7.45283 20.897 7.90292C21.3471 8.35301 21.5999 8.96346 21.5999 9.59998ZM6.36474 19.428C6.24639 19.322 6.15464 19.1896 6.0969 19.0416C6.03915 18.8936 6.01704 18.7341 6.03234 18.576C6.18497 17.0994 6.87959 15.7317 7.98193 14.7375C9.08426 13.7432 10.516 13.1929 12.0005 13.1929C13.485 13.1929 14.9168 13.7432 16.0192 14.7375C17.1215 15.7317 17.8161 17.0994 17.9687 18.576C17.9841 18.7341 17.9621 18.8937 17.9043 19.0417C17.8466 19.1897 17.7548 19.322 17.6363 19.428C16.0934 20.8283 14.0836 21.6028 11.9999 21.6C9.91667 21.6026 7.90732 20.8281 6.36474 19.428Z" fill="#444444"/>
</svg>
