<svg width="60" height="22" viewBox="0 0 60 22" fill="none" xmlns="http://www.w3.org/2000/svg">
<path fill-rule="evenodd" clip-rule="evenodd" d="M1.38547 9.00262C1.45808 7.91345 5.45169 7.18734 11.7689 6.24339C18.086 5.29945 15.472 1.74151 23.4592 0.942786C31.5191 0.0714524 37.9088 -0.799881 38.635 1.30584C39.1432 2.39501 39.3611 6.17078 39.3611 6.17078H57.0056C58.1673 6.53384 57.9495 11.1809 57.7317 12.1975C60.1278 12.1975 59.9826 15.5376 57.8043 15.5376C55.7712 15.5376 54.3916 15.5376 52.3584 14.9567C51.7049 15.1019 51.1241 15.2472 50.6158 15.3924C49.7445 13.5045 47.9292 12.2701 45.7508 12.2701C42.7738 12.2701 40.3776 14.6663 40.3776 17.6433H14.9637C14.9637 14.6663 12.5676 12.2701 9.66313 12.2701C6.90391 12.2701 4.58036 14.3758 4.28991 17.1351C3.05552 16.8446 1.6033 16.4816 1.02242 16.2637C-0.139362 15.7554 0.00585938 11.544 0.00585938 11.544C0.00585938 11.544 1.31286 10.0918 1.38547 9.00262Z" fill="#00C070"/>
<path fill-rule="evenodd" clip-rule="evenodd" d="M41.3942 17.6431C41.3942 15.1744 43.3547 13.2139 45.7509 13.2139C48.1471 13.2139 50.1802 15.247 50.1802 17.6431C50.1802 20.0393 48.2197 21.9998 45.7509 21.9998C43.3547 21.9998 41.3942 20.0393 41.3942 17.6431Z" fill="#00C070"/>
<path fill-rule="evenodd" clip-rule="evenodd" d="M5.23383 17.6431C5.23383 15.247 7.26694 13.2139 9.66311 13.2139C12.0593 13.2139 14.0198 15.1744 14.0198 17.6431C14.0198 20.0393 12.0593 21.9998 9.66311 21.9998C7.19433 21.9998 5.23383 20.0393 5.23383 17.6431Z" fill="#00C070"/>
</svg>
