<svg width="67" height="22" viewBox="0 0 67 22" fill="none" xmlns="http://www.w3.org/2000/svg">
<path fill-rule="evenodd" clip-rule="evenodd" d="M62.4443 18.7652C62.9296 18.7085 63.4229 18.6358 63.8919 18.5549C64.4686 18.5035 65.0253 18.318 65.5174 18.0131C66.1078 17.4631 66.2453 16.6706 66.2615 15.4818C66.2615 14.5033 66.496 13.6703 65.663 13.3225C65.3395 13.1931 64.9918 13.0638 64.9837 12.902C64.8786 11.042 64.8462 11.228 64.644 9.31943C64.5524 8.88461 64.3348 8.48637 64.0185 8.17432C63.7021 7.86227 63.3009 7.6502 62.8649 7.56453C58.3604 6.14929 54.5352 5.80155 49.6263 5.59937C48.6559 5.59937 48.4699 6.31912 47.4913 6.72347C46.5128 7.12783 46.3025 7.04696 46.3106 6.48086V5.2031C46.3128 5.16845 46.308 5.13372 46.2965 5.10097C46.2849 5.06821 46.2669 5.03811 46.2436 5.01246C46.2202 4.9868 46.1919 4.96612 46.1603 4.95163C46.1287 4.93714 46.0946 4.92916 46.0599 4.92814L45.0814 4.83918C44.9358 4.83918 44.8226 4.96049 44.7902 5.11414C44.7255 5.48615 44.6527 5.85815 44.5881 6.23016C44.4506 6.99035 44.3212 7.29766 43.561 7.38662C39.7483 7.91159 35.9013 8.14679 32.0531 8.09019C31.0341 8.04167 31.2443 8.18724 31.4627 7.33809C31.5474 7.07476 31.607 6.80397 31.6406 6.52939C31.6972 5.57511 29.9423 5.50232 28.8587 5.57511C31.2438 3.87292 33.7677 2.37423 36.4039 1.09486C36.7597 0.933115 36.9619 0.916941 36.7355 0.561109C36.6546 0.439802 36.5818 0.318495 36.509 0.197189C36.3392 -0.0696852 36.1289 -0.0211622 35.8459 0.0839701C31.5517 1.65287 27.6537 3.96578 24.0873 5.90668C19.0247 6.2059 9.65989 6.49704 4.52458 8.2115C3.89827 8.43561 3.32616 8.78906 2.84546 9.24886C2.36476 9.70866 1.98625 10.2645 1.73454 10.8802C1.18461 11.9639 0.925826 12.2065 0.658952 12.8211C0.254597 12.8211 0.238423 12.9748 0.109029 13.2174C0.0124633 13.6907 -0.020176 14.1749 0.0119844 14.6569C0.0119844 15.1664 0.0605067 15.9266 0.100942 16.428C0.197987 17.4631 0.367816 18.0454 0.909652 18.4336C1.26209 18.6911 1.6794 18.8451 2.11463 18.8784L3.78866 18.935C4.81572 18.7813 4.98555 18.935 4.86424 17.6006C4.86424 17.2367 4.82381 16.8566 4.82381 16.4765C4.79148 15.5137 4.95321 14.5542 5.29935 13.6552C5.64549 12.7562 6.16897 11.936 6.83864 11.2435C7.50831 10.551 8.31046 10.0003 9.19736 9.62415C10.0843 9.24804 11.0378 9.05421 12.0011 9.05421C12.9645 9.05421 13.918 9.24804 14.8048 9.62415C15.6917 10.0003 16.4939 10.551 17.1636 11.2435C17.8332 11.936 18.3567 12.7562 18.7029 13.6552C19.049 14.5542 19.2107 15.5137 19.1784 16.4765C19.1881 17.2152 19.1176 17.9527 18.9681 18.6762C18.6932 19.8812 18.863 19.6628 19.8739 19.7275H45.5585C46.4643 19.5496 47.0304 19.2261 46.8929 18.0131C46.8443 17.5197 46.8282 17.0022 46.8282 16.4765C46.8282 14.5719 47.5848 12.7453 48.9315 11.3985C50.2783 10.0518 52.1049 9.29517 54.0095 9.29517C55.9141 9.29517 57.7407 10.0518 59.0875 11.3985C60.4342 12.7453 61.1909 14.5719 61.1909 16.4765C61.1909 16.897 61.1909 17.2852 61.1909 17.6977C61.1909 18.8218 61.1909 18.9026 62.4363 18.7652H62.4443ZM11.989 10.953C13.0821 10.9498 14.1516 11.271 15.062 11.876C15.9725 12.481 16.683 13.3425 17.1035 14.3515C17.5241 15.3605 17.6358 16.4716 17.4245 17.5441C17.2132 18.6167 16.6884 19.6024 15.9166 20.3764C15.1447 21.1505 14.1606 21.6782 13.0887 21.8927C12.0168 22.1071 10.9054 21.9987 9.89515 21.5811C8.88492 21.1635 8.02132 20.4555 7.41367 19.5469C6.80602 18.6382 6.48166 17.5696 6.48166 16.4765C6.48166 15.0116 7.0636 13.6067 8.09945 12.5708C9.13531 11.535 10.5402 10.953 12.0051 10.953H11.989ZM54.0419 10.953C55.1343 10.953 56.2022 11.277 57.1105 11.8839C58.0189 12.4908 58.7268 13.3535 59.1449 14.3628C59.563 15.372 59.6723 16.4826 59.4592 17.5541C59.2461 18.6255 58.72 19.6097 57.9476 20.3822C57.1751 21.1547 56.1909 21.6807 55.1194 21.8939C54.048 22.107 52.9374 21.9976 51.9281 21.5795C50.9188 21.1615 50.0562 20.4535 49.4493 19.5452C48.8423 18.6369 48.5184 17.569 48.5184 16.4765C48.5184 15.0116 49.1003 13.6067 50.1362 12.5708C51.172 11.535 52.5769 10.953 54.0419 10.953Z" fill="#00C070"/>
</svg>
