<svg width="24" height="24" viewBox="0 0 24 24" fill="none" xmlns="http://www.w3.org/2000/svg">
<path d="M15.5 12C15.5 11.6022 15.658 11.2206 15.9393 10.9393C16.2206 10.658 16.6022 10.5 17 10.5C17.3978 10.5 17.7794 10.658 18.0607 10.9393C18.342 11.2206 18.5 11.6022 18.5 12C18.5 12.3978 18.342 12.7794 18.0607 13.0607C17.7794 13.342 17.3978 13.5 17 13.5C16.6022 13.5 16.2206 13.342 15.9393 13.0607C15.658 12.7794 15.5 12.3978 15.5 12Z" fill="#444444"/>
<path fill-rule="evenodd" clip-rule="evenodd" d="M20.4409 6.67379C20.112 5.90126 19.5825 5.2307 18.9074 4.73154C18.2322 4.23238 17.4359 3.92278 16.6009 3.83479L15.9489 3.76679C12.6567 3.42033 9.33604 3.44313 6.0489 3.83479L5.6169 3.88579C4.80541 3.98231 4.04911 4.34612 3.46719 4.91989C2.88528 5.49365 2.51084 6.24475 2.4029 7.05479C1.96499 10.3369 1.96499 13.6627 2.4029 16.9448C2.51084 17.7548 2.88528 18.5059 3.46719 19.0797C4.04911 19.6535 4.80541 20.0173 5.6169 20.1138L6.0489 20.1648C9.3359 20.5568 12.6559 20.5798 15.9489 20.2328L16.6009 20.1648C17.4359 20.0768 18.2322 19.7672 18.9074 19.268C19.5825 18.7689 20.112 18.0983 20.4409 17.3258C20.9592 17.1722 21.4212 16.8703 21.77 16.4574C22.1188 16.0444 22.3391 15.5385 22.4039 15.0018C22.6369 13.0078 22.6369 10.9918 22.4039 8.9978C22.3391 8.46114 22.1188 7.95516 21.77 7.54221C21.4212 7.12925 20.9592 6.82738 20.4409 6.67379ZM15.7909 5.25779C12.6101 4.92317 9.4018 4.94531 6.2259 5.32379L5.7939 5.37579C5.31324 5.43301 4.86527 5.64851 4.52055 5.98833C4.17584 6.32816 3.95397 6.773 3.8899 7.25279C3.46947 10.4035 3.46947 13.5961 3.8899 16.7468C3.95381 17.2267 4.17562 17.6716 4.52037 18.0114C4.86511 18.3513 5.31317 18.5667 5.7939 18.6238L6.2259 18.6758C9.4019 19.0538 12.6109 19.0758 15.7919 18.7418L16.4439 18.6728C17.2719 18.5858 18.0335 18.1802 18.5679 17.5418C17.0586 17.6298 15.5446 17.5904 14.0419 17.4238C13.4209 17.3548 12.8414 17.0781 12.3974 16.6385C11.9534 16.1988 11.671 15.6221 11.5959 15.0018C11.3627 13.0073 11.3627 10.9923 11.5959 8.9978C11.671 8.3775 11.9534 7.80076 12.3974 7.36112C12.8414 6.92149 13.4209 6.64475 14.0419 6.5758C15.5446 6.40917 17.0586 6.3697 18.5679 6.4578C18.0335 5.8194 17.2719 5.41381 16.4439 5.3268L15.7909 5.25779ZM19.2769 8.0148L19.2789 8.02579L19.2849 8.06579L19.4839 8.0338C19.5869 8.0438 19.6889 8.0548 19.7919 8.0668C20.3789 8.1318 20.8469 8.5968 20.9139 9.17179C21.1339 11.0508 21.1339 12.9488 20.9139 14.8278C20.8781 15.1112 20.748 15.3743 20.5445 15.5748C20.3409 15.7753 20.0758 15.9014 19.7919 15.9328C19.6889 15.9448 19.5869 15.9558 19.4839 15.9658L19.2849 15.9348L19.2789 15.9738L19.2769 15.9848C17.5989 16.1368 15.8769 16.1198 14.2079 15.9328C13.924 15.9014 13.6589 15.7753 13.4553 15.5748C13.2518 15.3743 13.1217 15.1112 13.0859 14.8278C12.8661 12.9489 12.8661 11.0507 13.0859 9.17179C13.1217 8.88837 13.2518 8.62524 13.4553 8.42479C13.6589 8.22434 13.924 8.09823 14.2079 8.0668C15.8919 7.88021 17.5894 7.86279 19.2769 8.0148Z" fill="#444444"/>
</svg>
