<svg width="24" height="24" viewBox="0 0 24 24" fill="none" xmlns="http://www.w3.org/2000/svg">
<g clip-path="url(#clip0_0_47)">
<path d="M0.734341 0.485759C0.803959 0.312374 0.937746 0.172503 1.10786 0.0952456C1.27798 0.0179882 1.47134 0.00929232 1.64771 0.070967C1.82408 0.132642 1.96988 0.259938 2.05478 0.426375C2.13968 0.592811 2.15715 0.785573 2.10354 0.964559C0.988743 4.16856 3.20154 6.56136 4.88874 7.84296L5.57034 6.86616C5.79954 6.53856 6.31194 6.26616 6.71034 6.26136L10.5359 6.27816C11.0033 6.29227 11.4581 6.43241 11.8523 6.68376L23.1251 14.5882C23.3873 14.7727 23.5658 15.0536 23.6213 15.3693C23.6769 15.6851 23.605 16.01 23.4215 16.273L18.2987 23.6026C17.9147 24.1486 17.3015 24.0826 16.7543 23.701L5.48154 15.7954C5.15754 15.5662 4.78314 15.0718 4.65114 14.6938L3.45354 10.9198C3.32154 10.543 3.40194 9.96816 3.63114 9.64056L4.04634 9.04536C1.78074 7.30896 -0.571259 4.24056 0.734341 0.485759ZM5.97954 11.7154C6.18721 11.8607 6.4215 11.9638 6.669 12.0185C6.9165 12.0733 7.17238 12.0788 7.422 12.0347C7.67163 11.9906 7.91011 11.8977 8.12382 11.7614C8.33754 11.625 8.5223 11.4479 8.66754 11.2402C8.96163 10.8197 9.07689 10.2998 8.98802 9.79452C8.89915 9.28921 8.61342 8.83981 8.19354 8.54496C7.86437 8.31434 7.47137 8.19233 7.06947 8.19599C6.66757 8.19965 6.27686 8.32879 5.95194 8.56536C6.27834 8.76216 6.50274 8.87736 6.54474 8.89536C6.69349 8.96629 6.81375 9.08563 6.88579 9.23385C6.95784 9.38206 6.9774 9.55035 6.94128 9.71114C6.90517 9.87193 6.81551 10.0157 6.68699 10.1188C6.55848 10.222 6.39874 10.2785 6.23394 10.279C6.13074 10.279 6.02514 10.255 5.92554 10.2082C5.69274 10.0978 5.44314 9.96696 5.18274 9.81216C5.12284 10.1722 5.16585 10.5419 5.30682 10.8786C5.44778 11.2153 5.68097 11.5054 5.97954 11.7154Z" fill="#444444"/>
</g>
<defs>
<clipPath id="clip0_0_47">
<rect width="24" height="24" fill="white" transform="matrix(-1 0 0 1 24 0)"/>
</clipPath>
</defs>
</svg>
