<svg width="30" height="30" viewBox="0 0 30 30" fill="none" xmlns="http://www.w3.org/2000/svg">
<path d="M12.1245 1.468L11.6813 1.19002C10.8138 0.658124 9.73101 0.349118 8.80019 0.639127C7.79972 0.950666 7.00188 1.72128 6.58396 2.87879L5.98874 2.57231C4.96294 2.04422 4.42598 2.03599 3.98084 2.23608C3.62561 2.39502 3.25518 2.77747 2.83536 3.33596L8.053 7.37014C8.86984 7.63608 10.0666 7.62975 11.2634 7.31948C12.4665 7.00921 13.6632 6.40133 14.5371 5.58449L16.5063 0.715112C14.7713 -0.655785 13.1883 0.138259 12.1245 1.468ZM15.4869 6.31268C14.4104 7.4018 12.8084 8.13632 11.561 8.46559C11.1241 8.57957 10.6872 8.66188 10.2629 8.70621C10.0286 9.09247 9.83232 9.48506 9.68035 9.87764C9.98429 11.4227 10.5542 12.6891 11.409 13.7276L10.4972 14.4874C9.97162 13.8542 9.50305 13.1703 9.14845 12.4105C9.09146 13.8795 9.42073 15.3992 9.95896 16.9822L8.83818 17.3622C7.85038 14.4747 7.51477 11.5177 8.9015 8.73154C8.43293 8.69354 7.98968 8.6049 7.5781 8.45926L7.5591 8.45292C7.28682 8.71254 7.0272 8.98482 6.78025 9.26976C4.78121 11.5873 3.68006 14.671 4.25628 17.0709C4.56465 18.3563 5.11745 19.5721 5.91276 20.6105C7.07786 20.5852 8.17964 20.6105 9.18011 20.9905C9.65502 20.9398 10.1426 20.9081 10.6492 20.9081C12.4538 20.9081 14.0875 21.2437 15.3222 21.8263C15.8035 22.0542 16.2404 22.3265 16.5887 22.6368C16.5887 22.3012 16.6393 21.9403 16.7406 21.6743C16.1771 21.1424 15.8225 20.4966 15.8225 19.762C15.8225 18.7426 16.5 17.9004 17.4815 17.2925C17.4815 17.0012 17.5385 16.7226 17.6398 16.4567C17.0002 15.9058 16.5887 15.2219 16.5887 14.4241C16.5887 13.9238 16.7533 13.4679 17.0319 13.0564C16.7533 12.6511 16.5887 12.1952 16.5887 11.695C16.5887 11.448 16.6266 11.22 16.6963 10.9984C16.0821 10.4539 15.6958 9.78266 15.6958 9.01015C15.6958 8.24397 16.0758 7.5791 16.6836 7.04087C16.31 6.74959 15.9111 6.50264 15.4869 6.31268ZM22.5408 6.45832C20.8945 6.45832 19.4064 6.80658 18.387 7.31948C17.3612 7.83238 16.8799 8.46559 16.8799 9.01015C16.8799 9.56104 17.3612 10.1942 18.387 10.7071C19.4064 11.22 20.8945 11.5683 22.5408 11.5683C23.2563 11.5683 23.9339 11.4987 24.5608 11.3847V10.3082C25.4409 10.1753 26.1691 9.93463 26.6377 9.62436V10.7388C27.4292 10.5109 28.189 9.66869 28.208 9.01015C28.208 8.46559 27.7268 7.83238 26.701 7.31948C25.6752 6.80658 24.1935 6.45832 22.5408 6.45832ZM28.6513 10.7451C28.4423 10.9668 28.1954 11.1757 27.9168 11.3657L27.9294 13.202C28.7273 12.7271 29.1009 12.1762 29.1009 11.695C29.1009 11.391 28.9552 11.0617 28.6513 10.7451ZM17.7728 11.7203C17.7918 12.2648 18.273 12.8791 19.2798 13.3856C20.3056 13.9049 21.7873 14.2468 23.44 14.2468C24.4721 14.2468 25.4409 14.1075 26.2704 13.8795L26.3147 12.1572C25.2256 12.5371 23.9339 12.7461 22.5408 12.7461C20.7362 12.7461 19.0962 12.3852 17.8551 11.7646C17.8234 11.7519 17.7981 11.7329 17.7728 11.7203ZM17.8994 13.9238C17.8107 14.0948 17.7728 14.2658 17.7728 14.4241C17.7728 14.975 18.254 15.6082 19.2798 16.1211C20.3056 16.634 21.7873 16.9759 23.44 16.9759C24.2758 16.9759 25.0673 16.8936 25.7829 16.7353V15.2156C25.0483 15.3549 24.2631 15.4246 23.44 15.4246C21.629 15.4246 19.989 15.07 18.7479 14.4431C18.4376 14.2911 18.1527 14.1138 17.8994 13.9238ZM28.9742 13.9238C28.588 14.1961 28.2524 14.3988 27.8598 14.5697V15.9818C28.7019 15.4942 29.1009 14.9243 29.1009 14.4241C29.1009 14.2658 29.0629 14.0948 28.9742 13.9238ZM29.4491 16.2541C29.3225 16.3807 29.1832 16.501 29.0312 16.6213V18.6729C29.6834 18.2297 30 17.7421 30 17.2989C30 16.9633 29.8164 16.6023 29.4491 16.2541ZM18.6782 17.1405C18.6719 17.1975 18.6656 17.2482 18.6656 17.2989C18.6656 17.8497 19.1468 18.4766 20.1726 18.9895C21.1984 19.5088 22.6865 19.8507 24.3328 19.8507C25.2763 19.8507 26.1754 19.7367 26.9543 19.5467V17.6534C25.9222 17.9827 24.7254 18.16 23.44 18.16C21.629 18.16 19.989 17.7991 18.7479 17.1785C18.7226 17.1659 18.7036 17.1532 18.6782 17.1405ZM17.8171 18.4956C17.2662 18.9072 17.0066 19.3568 17.0066 19.762C17.0066 20.3129 17.4878 20.9398 18.5136 21.459C19.5394 21.9719 21.0211 22.3139 22.6738 22.3139C23.2753 22.3139 23.8579 22.2695 24.4025 22.1872V21.0348H24.3328C22.5218 21.0348 20.8818 20.6739 19.6407 20.047C18.8492 19.6544 18.1907 19.1288 17.8171 18.4956ZM28.1067 20.4332C27.6065 20.6105 27.0619 20.7562 26.4794 20.8512V21.6173C26.5997 21.5667 26.72 21.516 26.834 21.459C27.4545 21.1424 27.8724 20.7878 28.1067 20.4332ZM28.6893 21.5857C28.4487 21.8263 28.17 22.0416 27.8598 22.2379V24.0489C28.7019 23.5676 29.1009 22.9977 29.1009 22.4975C29.1009 22.2062 28.9679 21.8896 28.6893 21.5857ZM6.60929 21.763C5.96341 21.7693 5.26688 21.8516 4.54502 22.0226C3.10068 22.3582 1.85895 22.9724 1.04845 23.6499C0.237938 24.3211 -0.0786666 25.005 0.0163148 25.4926C0.111296 25.9801 0.611531 26.4297 1.58667 26.6893C2.55865 26.9426 3.91815 26.9553 5.36186 26.6197C5.94442 26.4804 6.48898 26.3031 6.98921 26.0941V24.7834C7.9137 24.3718 8.60389 23.8779 8.91417 23.3967V24.9417C9.68035 24.2831 9.97796 23.6246 9.88931 23.1434C9.80066 22.6558 9.29409 22.2062 8.31895 21.9529C7.83138 21.8263 7.24883 21.7566 6.60929 21.763ZM10.6998 22.0922C10.8708 22.3392 10.9911 22.6178 11.0544 22.9281C11.1241 23.308 11.0924 23.6753 10.9784 24.0362C11.6053 24.2008 12.1752 24.4225 12.6691 24.7011C12.9477 24.853 13.2073 25.0367 13.4353 25.2266C14.0052 25.0937 14.4864 24.9037 14.8283 24.6757V25.9801C15.8478 25.4989 16.3164 24.91 16.3164 24.4414C16.3164 23.9665 15.8478 23.3777 14.822 22.8964C13.8025 22.4215 12.3335 22.0986 10.6998 22.0922ZM17.7791 22.4088C17.7728 22.4342 17.7728 22.4658 17.7728 22.4975C17.7728 23.0484 18.254 23.6753 19.2798 24.1945C20.3056 24.7074 21.7873 25.0493 23.44 25.0493C24.2758 25.0493 25.0673 24.9607 25.7829 24.8087V23.1054C24.8457 23.3587 23.7882 23.498 22.6738 23.498C20.8628 23.498 19.2228 23.137 17.9817 22.5165C17.9121 22.4785 17.8424 22.4405 17.7791 22.4088ZM17.9564 24.7707C17.8297 24.9797 17.7728 25.1823 17.7728 25.3786C17.7728 25.9295 18.254 26.5564 19.2798 27.0756C20.3056 27.5885 21.7873 27.9304 23.44 27.9304C24.2758 27.9304 25.0673 27.8418 25.7829 27.6898V26.0181C25.0483 26.1574 24.2631 26.2334 23.44 26.2334C21.629 26.2334 19.989 25.8725 18.7479 25.2456C18.463 25.1063 18.197 24.948 17.9564 24.7707ZM28.9172 24.7707C28.55 25.0177 28.227 25.214 27.8598 25.3723V26.93C28.7019 26.4487 29.1009 25.8788 29.1009 25.3786C29.1009 25.1823 29.0439 24.9797 28.9172 24.7707ZM10.3895 25.1126C10.1679 25.3913 9.9083 25.6572 9.61703 25.8978C8.62922 26.7273 7.23616 27.3985 5.62781 27.7721C5.05412 27.9051 4.48424 27.9874 3.93714 28.0317C4.13977 28.3673 4.49627 28.6966 5.01803 28.9879C5.8811 29.4755 7.14751 29.8047 8.55324 29.8047C9.19278 29.8047 9.80066 29.7351 10.3579 29.6148V28.2977C11.2317 28.1647 11.9662 27.9241 12.4348 27.6138V28.7789C13.068 28.3357 13.372 27.8354 13.372 27.3605C13.372 26.8096 12.9604 26.2208 12.0929 25.7332C11.6243 25.4736 11.0417 25.2583 10.3895 25.1126Z" fill="#0066FF"/>
</svg>
