<svg width="35" height="14" viewBox="0 0 35 14" fill="none" xmlns="http://www.w3.org/2000/svg">
<path d="M18.0818 4.86688L17.9908 4.84142C17.7911 4.78625 17.5843 4.72926 17.3918 4.65954C17.3826 4.65598 17.3737 4.65173 17.3652 4.64681L17.3482 4.63832C17.3314 4.63015 17.3129 4.6262 17.2942 4.62684C17.2756 4.62747 17.2574 4.63266 17.2412 4.64196C16.9841 4.78938 16.6931 4.86751 16.3967 4.8687C16.387 4.86905 16.3775 4.87047 16.3682 4.87294C16.2112 4.9169 16.0196 4.96388 15.7868 5.01784C15.6243 5.05088 15.4445 5.10272 15.2542 5.15728C15.1135 5.19759 14.9626 5.24094 14.7995 5.28308C14.7267 5.30339 14.6519 5.32279 14.5749 5.3437C14.4482 5.37644 14.316 5.41069 14.1808 5.45283L13.4745 5.67108C13.1265 5.77081 12.7488 5.89752 12.3493 6.0315C12.1629 6.09425 11.9701 6.15881 11.767 6.2255C11.336 6.37707 10.8619 6.53318 10.3602 6.69687C10.1233 6.77426 9.88084 6.85379 9.63267 6.93543C8.96338 7.15274 8.31376 7.42654 7.69084 7.75387C7.67146 7.76438 7.65555 7.7803 7.64505 7.79969C7.63456 7.81908 7.62993 7.8411 7.63173 7.86308C7.63353 7.88505 7.64168 7.90603 7.65519 7.92345C7.66869 7.94088 7.68698 7.954 7.70781 7.96121L7.76571 7.98152C7.85665 8.01335 7.94759 8.04488 8.03853 8.07034C8.0428 8.07164 8.04715 8.07265 8.05156 8.07337H8.05489C8.06323 8.07542 8.07178 8.07644 8.08036 8.0764C8.09884 8.07633 8.11703 8.0718 8.13339 8.0632C8.14975 8.0546 8.16379 8.04218 8.17433 8.02699C8.23495 7.98364 8.43956 7.86633 8.46745 7.85209C8.627 7.78407 8.79012 7.72477 8.95609 7.67445C9.03976 7.64748 9.12281 7.6208 9.20284 7.59261C9.66602 7.43438 10.1299 7.27928 10.5945 7.12731C11.4281 6.85449 12.3223 6.58168 13.2532 6.31523C14.7992 5.87054 16.424 5.45707 18.0763 5.08665C18.101 5.08107 18.1231 5.06741 18.1392 5.04783C18.1552 5.02826 18.1642 5.00389 18.1649 4.97859C18.1655 4.95329 18.1577 4.9285 18.1426 4.90815C18.1276 4.88781 18.1061 4.87307 18.0818 4.86628V4.86688Z" fill="#444444"/>
<path d="M25.5648 3.68405L26.7343 3.50703C26.7612 3.50303 26.7859 3.48947 26.8037 3.46883C26.8215 3.44818 26.8313 3.42183 26.8313 3.39457C26.8287 3.37348 26.8241 3.35267 26.8176 3.33242L26.8073 3.29999C26.8073 3.29575 26.7976 3.27695 26.7961 3.27301C26.764 3.19862 26.7261 3.12686 26.6827 3.0584C26.4836 2.76179 26.2386 2.49865 25.9571 2.27875C25.7711 2.12386 25.5586 2.00391 25.3299 1.9247C25.2547 1.89802 25.1695 1.87377 25.0847 1.85195C25.0653 1.84718 25.045 1.84747 25.0258 1.85277C25.0066 1.85808 24.9891 1.86824 24.9749 1.88226C24.9609 1.89667 24.951 1.91453 24.9462 1.93401C24.9413 1.9535 24.9417 1.97392 24.9473 1.99321L24.9971 2.16538C25.0434 2.32846 25.0934 2.50428 25.152 2.6807C25.2029 2.86258 25.258 3.03718 25.309 3.19602C25.356 3.34303 25.3999 3.47853 25.4302 3.59857C25.4417 3.62452 25.4606 3.64648 25.4846 3.66169C25.5085 3.67691 25.5364 3.68469 25.5648 3.68405Z" fill="#444444"/>
<path d="M11.0173 3.56103C12.4939 3.93185 13.9962 4.19205 15.5115 4.33946L15.6631 4.35401C15.8486 4.3719 16.0477 4.39099 16.2475 4.39099C16.4836 4.41343 16.7215 4.37347 16.9373 4.27511C17.1531 4.17674 17.3393 4.02343 17.4773 3.83051C17.7273 3.47366 17.9443 3.0948 18.1257 2.69863C18.2824 2.32942 18.3024 2.07722 18.1887 1.90504C18.0423 1.68254 17.714 1.63798 17.1963 1.63647C16.9653 1.63647 16.7352 1.64556 16.5051 1.65405C16.293 1.66223 16.0832 1.67042 15.8719 1.67163C15.049 1.70855 14.234 1.49733 13.5327 1.06537C13.5116 1.05167 13.4866 1.04536 13.4616 1.04745C13.4366 1.04953 13.4129 1.05989 13.3944 1.07689C13.0704 1.37366 12.7542 1.68679 12.4484 1.98992C11.9782 2.45613 11.4917 2.93871 10.9718 3.36278C10.9554 3.37616 10.9431 3.39386 10.9362 3.41387C10.9294 3.43388 10.9282 3.45542 10.9329 3.47606C10.9376 3.49669 10.9479 3.51561 10.9628 3.53067C10.9777 3.54574 10.9964 3.55636 11.017 3.56133L11.0173 3.56103Z" fill="#444444"/>
<path d="M0.864654 6.46136C1.02592 6.50107 1.18749 6.53866 1.35117 6.57594C1.36713 6.57947 1.38365 6.57957 1.39964 6.57622C1.41563 6.57288 1.43073 6.56617 1.44393 6.55654C1.83943 6.26973 2.27108 6.03643 2.72768 5.86268C3.16518 5.69218 3.61448 5.55369 4.07205 5.44831C4.71984 5.29462 5.26031 5.19489 5.69469 5.11487L6.02601 5.05424L6.29216 5.00422C6.21092 5.02605 6.12362 5.04878 6.02965 5.07243C5.81291 5.12942 5.56496 5.18701 5.28578 5.25188C4.93809 5.33251 4.5419 5.42466 4.0966 5.54076C3.64588 5.65512 3.20316 5.79901 2.77133 5.9715C2.43009 6.1077 2.10188 6.2745 1.79071 6.46985C1.77148 6.48191 1.7563 6.49946 1.74714 6.52023C1.73797 6.541 1.73523 6.56404 1.73927 6.58638C1.74332 6.60872 1.75396 6.62934 1.76983 6.64558C1.78569 6.66181 1.80606 6.67293 1.8283 6.67749C2.25571 6.766 2.68312 6.84573 3.10992 6.92242C3.20124 6.94174 3.29141 6.96613 3.38001 6.99547C3.59685 7.08421 3.83328 7.11412 4.06538 7.08216C4.29877 7.00566 4.51609 6.88688 4.7065 6.73175C4.83242 6.63613 4.96628 6.55145 5.10663 6.47864C5.22242 6.42559 5.33549 6.37103 5.44674 6.31707C5.64589 6.22098 5.83353 6.13034 6.02268 6.05668L6.09937 6.02637C6.36885 5.91906 6.62681 5.8163 6.87204 5.72597C7.14668 5.63291 7.40525 5.54682 7.64987 5.46619C8.68505 5.14609 9.50077 4.95087 10.0243 4.82962C10.1486 4.80173 10.2636 4.77627 10.3695 4.75323L10.0288 4.84933L9.93788 4.87539C9.34739 5.04272 8.6126 5.25097 7.68079 5.55713L7.62714 5.57562C7.4004 5.65413 7.16183 5.73688 6.91175 5.826C6.73897 5.89057 6.56346 5.96181 6.38219 6.03547L6.073 6.16005C5.88567 6.23492 5.70409 6.32465 5.51191 6.41923C5.40187 6.47348 5.29002 6.52865 5.1721 6.58322C4.98143 6.6784 4.79956 6.78874 4.60677 6.90574L4.4934 6.97425C4.46706 6.98978 4.44782 7.01497 4.43978 7.04447C4.43174 7.07397 4.43553 7.10544 4.45035 7.13218C4.45749 7.14495 4.46711 7.15616 4.47865 7.16515C4.49018 7.17414 4.5034 7.18074 4.51752 7.18455C4.53164 7.18837 4.54638 7.18932 4.56088 7.18735C4.57537 7.18538 4.58932 7.18054 4.60192 7.1731C4.80018 7.19007 4.99552 7.23192 5.18332 7.29769C5.26334 7.32103 5.32912 7.34043 5.36671 7.34831C5.64498 7.40651 5.92083 7.46956 6.19758 7.53625C6.25306 7.54959 6.3149 7.5705 6.37946 7.59203C6.51648 7.64621 6.66107 7.67883 6.80808 7.68872C6.84085 7.68883 6.87355 7.68568 6.90569 7.67933C7.03843 7.64143 7.16001 7.57196 7.26005 7.47684C7.30936 7.43434 7.36219 7.39611 7.41798 7.36256C7.64441 7.23828 7.88328 7.12006 8.14791 7.00335C8.58404 6.81138 9.0303 6.6433 9.4847 6.49986L11.6284 5.82934L12.0376 5.70809C12.5145 5.56501 12.9652 5.42982 13.3732 5.33312L13.4157 5.32281C13.6606 5.26219 13.8895 5.20429 14.101 5.14942C14.2717 5.10941 14.4363 5.0797 14.5921 5.05181L15.0019 4.97755L15.011 4.97603C15.0407 4.97053 15.067 4.95346 15.084 4.92859C15.1011 4.90372 15.1076 4.87308 15.1021 4.84341C15.0966 4.81375 15.0795 4.78749 15.0547 4.7704C15.0298 4.75332 14.9992 4.74682 14.9695 4.75232H14.9616C14.6194 4.77006 14.2766 4.72905 13.9483 4.63107C13.8028 4.59773 13.6651 4.56681 13.5451 4.54711C13.0462 4.46708 12.5369 4.37341 12.0313 4.26853C11.8797 4.23822 11.7154 4.1882 11.5417 4.13637C11.2312 4.02677 10.907 3.96066 10.5784 3.93994C10.338 3.94608 10.0983 3.96633 9.86028 4.00057C9.6875 4.02239 9.51502 4.04452 9.35042 4.05392C8.83874 4.08423 8.3122 4.13485 7.78597 4.20548C6.75202 4.34486 5.72901 4.55604 4.72438 4.8375C4.54766 4.88691 4.35729 4.93754 4.15753 4.98907C3.0787 5.27583 1.73584 5.63261 0.830401 6.25432C0.812353 6.26675 0.798281 6.28413 0.789878 6.30436C0.781476 6.3246 0.779102 6.34683 0.783041 6.36839C0.786981 6.38994 0.797066 6.4099 0.812083 6.42586C0.8271 6.44181 0.846409 6.45309 0.867685 6.45833L0.864654 6.46136Z" fill="#444444"/>
<path d="M24.0567 1.725C23.8724 1.71773 23.6805 1.71318 23.4807 1.70863C23.3425 1.705 23.2046 1.69984 23.0667 1.69439C22.8436 1.6859 22.6202 1.67741 22.3952 1.6759C22.0406 1.66911 21.6859 1.68938 21.3343 1.73652C21.213 1.75562 21.0991 1.78199 20.9863 1.81079C20.9574 1.82066 20.9332 1.84084 20.9183 1.86746C20.9033 1.89408 20.8987 1.92528 20.9054 1.95508C20.9136 1.99297 20.9214 2.02965 20.9287 2.08118C20.9608 2.23941 20.9893 2.42917 21.0197 2.63742C21.0418 2.78898 21.0651 2.95055 21.0921 3.11272C21.1361 3.43586 21.1952 3.77779 21.2679 4.12911V4.13063L21.3058 4.30008C21.3117 4.32493 21.3258 4.34707 21.3458 4.36291C21.3658 4.37876 21.3906 4.38738 21.4161 4.38738C21.4235 4.38737 21.4308 4.38677 21.438 4.38556C21.9096 4.29462 22.3683 4.21459 22.8124 4.1376L24.7599 3.80598C24.7862 3.80204 24.8102 3.78907 24.8278 3.76931C24.8455 3.74955 24.8557 3.72424 24.8566 3.69776C24.8599 3.39762 24.8164 3.0988 24.7278 2.81202C24.6401 2.51091 24.5026 2.22659 24.321 1.97084C24.2801 1.90821 24.2318 1.8508 24.177 1.79988L24.0812 1.86505L24.1437 1.76805C24.1333 1.75488 24.1201 1.74419 24.105 1.73674C24.09 1.7293 24.0735 1.72529 24.0567 1.725Z" fill="#444444"/>
<path d="M14.1299 0.851663C14.8731 1.19329 15.657 1.17753 16.4154 1.16267C17.0265 1.12119 17.6404 1.16918 18.2375 1.30514C18.3413 1.32532 18.439 1.36911 18.5231 1.43314C18.6073 1.49717 18.6755 1.5797 18.7226 1.67435C18.8999 2.0663 18.6737 2.64709 18.5234 2.9584C18.3331 3.37641 18.0972 3.77208 17.8198 4.13818C17.8078 4.15271 17.7995 4.17002 17.7958 4.18855C17.7921 4.20708 17.7931 4.22623 17.7987 4.24429C17.8042 4.26234 17.8142 4.27872 17.8277 4.29195C17.8412 4.30518 17.8578 4.31484 17.8759 4.32005C17.9669 4.34643 18.0578 4.37128 18.1487 4.39644C18.266 4.42888 18.3834 4.46131 18.5004 4.49678C18.511 4.50002 18.522 4.50165 18.5331 4.50163C18.5518 4.50162 18.5702 4.497 18.5867 4.48817C18.6032 4.47934 18.6173 4.46657 18.6277 4.451L18.7116 4.31975C18.8709 4.03086 19.007 3.72982 19.1187 3.41946C19.1633 3.31155 19.2079 3.19636 19.253 3.07874L19.3091 2.95052C19.3461 2.86564 19.3849 2.77774 19.4219 2.68953C19.4682 2.58859 19.5274 2.48279 19.5877 2.37458L19.6483 2.26333C19.6783 2.21215 19.7118 2.16312 19.7486 2.11662L19.7938 2.05599C19.815 2.02901 19.8341 2.00264 19.8544 1.97627C19.8897 1.92503 19.9288 1.87659 19.9714 1.83137C20.121 1.67924 20.3002 1.55945 20.498 1.47944C20.6929 1.40401 20.8952 1.34895 21.1015 1.31515C21.5295 1.24977 21.9624 1.22228 22.3953 1.233C22.5986 1.233 22.7945 1.23936 22.9827 1.24421C23.2158 1.25058 23.4374 1.25694 23.645 1.25391C23.9918 1.25179 24.3935 1.2524 24.7642 1.28604C25.102 1.3116 25.4344 1.38604 25.7509 1.50702C26.0117 1.61451 26.2565 1.75731 26.4784 1.9314C26.7748 2.14752 27.0409 2.40239 27.2695 2.68922C27.2802 2.70325 27.2939 2.71458 27.3097 2.72232C27.3255 2.73006 27.3429 2.73398 27.3605 2.73378C28.1641 2.72002 28.9663 2.66031 29.7631 2.55494C29.9701 2.53099 30.1684 2.50795 30.3581 2.48855C30.7776 2.4446 31.1314 2.4158 31.44 2.40034C31.4661 2.39864 31.4909 2.38796 31.5101 2.37011C31.5292 2.35226 31.5417 2.32833 31.5452 2.30238C31.5488 2.27642 31.5433 2.25003 31.5296 2.22767C31.516 2.20531 31.495 2.18835 31.4703 2.17967L31.3069 2.12207C30.3149 1.78528 29.3062 1.49996 28.2847 1.26725C28.1653 1.23694 28.0422 1.20875 27.9161 1.17904C27.6645 1.11841 27.4008 1.05779 27.1237 0.981705C26.7069 0.863182 26.262 0.734958 25.7845 0.596732C25.6026 0.548838 25.4168 0.495488 25.2262 0.440621C24.9258 0.354533 24.6151 0.265716 24.2922 0.188419C23.7284 0.069849 23.1542 0.00790514 22.578 0.00351048C22.0491 -0.00800839 21.4916 0.0107853 20.9014 0.031398L18.4382 0.106271C17.5334 0.142343 16.778 0.197209 16.059 0.281782C15.4159 0.362909 14.7783 0.481943 14.1493 0.638261C14.127 0.644473 14.1072 0.657307 14.0924 0.67506C14.0775 0.692814 14.0685 0.714648 14.0664 0.737666C14.0643 0.760683 14.0692 0.783796 14.0806 0.803939C14.0919 0.824082 14.1091 0.840303 14.1299 0.85045V0.851663ZM22.2473 0.686154C21.6838 0.731623 21.1561 0.80104 20.6926 0.862272C20.4428 0.895313 20.2133 0.925322 20.0096 0.94745C19.8796 0.962304 19.7671 0.973217 19.6686 0.981402C19.7617 0.957152 19.872 0.929566 20.0021 0.898647C20.7355 0.715974 21.4819 0.589906 22.2346 0.521556C22.6525 0.48956 23.0724 0.492602 23.4898 0.530649C23.8294 0.56332 24.1652 0.627351 24.4929 0.721923C24.6172 0.759511 24.7263 0.797402 24.8215 0.833475C24.7193 0.813771 24.6057 0.792553 24.4817 0.77285C23.7431 0.654274 22.9929 0.625165 22.2473 0.686154Z" fill="#444444"/>
<path d="M5.37614 11.1189C5.3146 10.947 5.2419 10.7794 5.15849 10.617C5.1518 10.6034 5.14612 10.5893 5.14152 10.5748C5.13635 10.5541 5.12544 10.5353 5.11005 10.5206C5.09465 10.5058 5.0754 10.4957 5.05452 10.4915C4.5392 10.3839 4.02146 10.2826 3.50402 10.1817C3.21544 10.1253 2.92656 10.0689 2.6301 10.0101C2.61578 10.0079 2.60161 10.0049 2.58766 10.001C2.56528 9.99542 2.54173 9.99677 2.52014 10.0049C2.49855 10.013 2.47994 10.0275 2.46678 10.0465C2.45362 10.0654 2.44654 10.0879 2.44647 10.111C2.44641 10.134 2.45336 10.1566 2.46641 10.1756C2.59009 10.3548 2.69527 10.5178 2.78833 10.6749C2.80162 10.6973 2.8223 10.7145 2.84684 10.7234C3.64649 11.0155 4.46733 11.2461 5.30217 11.413C5.30955 11.4145 5.31707 11.4154 5.32461 11.4154C5.34316 11.4154 5.36143 11.4109 5.37783 11.4022C5.39423 11.3936 5.40825 11.381 5.41869 11.3657C5.42912 11.3503 5.43564 11.3327 5.43768 11.3142C5.43973 11.2958 5.43722 11.2771 5.4304 11.2599L5.37614 11.1189Z" fill="#444444"/>
<path d="M29.8576 2.65071C29.1033 2.76105 28.3434 2.82916 27.5815 2.85472C27.5625 2.85515 27.5439 2.86033 27.5275 2.86977C27.511 2.87921 27.4972 2.89261 27.4873 2.90876C27.4773 2.92492 27.4716 2.9433 27.4706 2.96224C27.4695 2.98117 27.4733 3.00007 27.4814 3.01719C27.4987 3.05357 27.5102 3.0754 27.5117 3.07782C27.5336 3.13659 27.5448 3.1988 27.5448 3.26152C27.5447 3.27645 27.5476 3.29125 27.5533 3.30506C27.559 3.31887 27.5674 3.33142 27.578 3.34198C27.5885 3.35255 27.6011 3.36092 27.6149 3.36662C27.6287 3.37232 27.6435 3.37523 27.6584 3.37519C27.6633 3.37549 27.6682 3.37549 27.673 3.37519L29.6946 3.11147C30.0492 3.0666 30.3805 3.02477 30.6906 2.97415L31.0686 2.91352C31.3681 2.86533 31.6509 2.81956 31.9174 2.78318C32.0435 2.76469 32.1641 2.74984 32.2811 2.73498L32.3233 2.72983C32.3507 2.72634 32.376 2.71296 32.3942 2.6922C32.4125 2.67144 32.4226 2.64473 32.4226 2.61707C32.4226 2.5894 32.4125 2.56269 32.3942 2.54193C32.376 2.52117 32.3507 2.50779 32.3233 2.5043C32.1696 2.48581 32.018 2.4652 31.8368 2.4364C31.3954 2.46399 30.8707 2.52461 30.3699 2.58584C30.2071 2.60464 30.0365 2.62707 29.8576 2.65071Z" fill="#444444"/>
<path d="M18.3852 5.50463C18.3773 5.51767 18.3721 5.53218 18.3699 5.54729C18.3677 5.56239 18.3686 5.57779 18.3725 5.59254C18.4965 6.05966 18.5944 6.45221 18.6689 6.84961C18.6718 6.86492 18.6778 6.87947 18.6866 6.89235C18.6954 6.90523 18.7067 6.91617 18.7199 6.92448C18.7332 6.933 18.7482 6.93864 18.7639 6.94104C18.7795 6.94344 18.7955 6.94255 18.8108 6.93843C19.6975 6.70805 20.8357 6.47222 22.382 6.16697C23.5917 5.95902 24.4484 5.82201 25.1598 5.72258C25.1892 5.7185 25.2157 5.70313 25.2339 5.67975C25.2521 5.65637 25.2604 5.62682 25.2571 5.59739C25.2057 5.14004 25.1173 4.68761 24.9928 4.24453C24.9853 4.21775 24.9682 4.19467 24.9448 4.17964C24.9214 4.16461 24.8933 4.15869 24.8658 4.16299L23.4084 4.43156C23.1962 4.47218 22.9788 4.51219 22.7587 4.55281C22.168 4.66224 21.5571 4.77531 20.923 4.91657C20.0339 5.10208 19.2276 5.27729 18.4586 5.4528C18.4435 5.456 18.4292 5.46225 18.4166 5.47116C18.4039 5.48007 18.3933 5.49146 18.3852 5.50463ZM23.5384 5.41369C23.5045 5.38107 23.4813 5.33903 23.4715 5.29302C23.4618 5.24702 23.4662 5.19916 23.484 5.15563C23.5018 5.11211 23.5322 5.07493 23.5714 5.0489C23.6105 5.02287 23.6566 5.00919 23.7036 5.00963C23.8547 5.01082 24.0046 4.98304 24.1453 4.92778C24.1627 4.92127 24.1812 4.91798 24.1998 4.91808C24.2321 4.91879 24.2639 4.92688 24.2926 4.94172C24.3237 4.9574 24.3513 4.97916 24.3739 5.00572C24.3964 5.03227 24.4134 5.06308 24.4238 5.09632C24.4388 5.1582 24.4289 5.22349 24.3962 5.27811C24.3635 5.33272 24.3106 5.37228 24.2489 5.38823C24.0732 5.4504 23.8881 5.48168 23.7018 5.48069C23.6715 5.48074 23.6415 5.47473 23.6136 5.46301C23.5857 5.4513 23.5605 5.43412 23.5393 5.41248L23.5384 5.41369Z" fill="#444444"/>
<path d="M18.7856 8.82967C18.8067 8.84658 18.8311 8.85883 18.8572 8.86562C18.8833 8.87242 18.9106 8.87359 18.9372 8.86908C19.878 8.83542 20.8123 8.69849 21.7233 8.46076C22.3268 8.32648 22.9509 8.18795 23.5723 8.11308C23.6275 8.10671 23.6866 8.10125 23.7484 8.09519C24.2522 8.04639 25.0137 7.97394 25.1832 7.33525C25.2904 6.93158 25.3314 6.51317 25.3044 6.09637L25.299 6.0418C25.2956 6.01149 25.292 5.97906 25.2908 5.94783C25.29 5.93163 25.2859 5.91578 25.2785 5.90131C25.2712 5.88683 25.2609 5.87407 25.2483 5.86387C25.2357 5.85367 25.2211 5.84633 25.2054 5.84235C25.1897 5.83838 25.1733 5.83786 25.1574 5.84083C24.3511 5.98269 23.4144 6.1482 22.4144 6.33008C21.8293 6.43951 21.2664 6.54621 20.7387 6.64624C20.0188 6.78295 19.3649 6.90723 18.8111 7.00787C18.7822 7.01341 18.7565 7.02998 18.7395 7.05407C18.7226 7.07816 18.7156 7.10789 18.7202 7.137C18.8097 7.66687 18.8237 8.20676 18.7617 8.74055C18.7593 8.75625 18.7601 8.77229 18.7643 8.78764C18.7684 8.80298 18.7757 8.8173 18.7856 8.82967Z" fill="#444444"/>
<path d="M19.4655 4.78508C19.7192 4.73214 19.9695 4.68081 20.2167 4.63109L20.5483 4.5638C20.5717 4.55806 20.5928 4.54551 20.6089 4.52776C20.6251 4.51 20.6357 4.48784 20.6393 4.46407C20.649 4.40345 20.6626 4.31796 20.6744 4.19732C20.7077 3.85876 20.7004 3.51744 20.6526 3.18063C20.6112 2.89798 20.5305 2.6225 20.4128 2.36218C20.4043 2.34378 20.391 2.32799 20.3743 2.31643C20.3576 2.30487 20.3382 2.29796 20.3179 2.2964C20.2976 2.29445 20.2771 2.2982 20.2588 2.30725C20.2405 2.31631 20.2251 2.33029 20.2143 2.34763L20.1006 2.52193L20.0072 2.72381C19.9818 2.77656 19.9569 2.82839 19.9357 2.88356C19.9117 2.94419 19.8902 3.00754 19.8699 3.06544C19.8248 3.18487 19.7841 3.304 19.7487 3.42465C19.6765 3.662 19.6113 3.87631 19.5544 4.06122C19.4877 4.25461 19.4252 4.42497 19.3598 4.58411C19.3519 4.60078 19.3443 4.61685 19.3373 4.63352C19.3304 4.65076 19.3279 4.66942 19.3299 4.68788C19.3319 4.70633 19.3384 4.72401 19.3488 4.73938C19.3592 4.75475 19.3732 4.76734 19.3896 4.77605C19.406 4.78475 19.4242 4.78931 19.4428 4.78933C19.4505 4.78865 19.4581 4.78723 19.4655 4.78508Z" fill="#444444"/>
<path d="M7.30222 10.0541C4.98121 9.70251 2.70975 9.07851 0.534885 8.19499C0.514773 8.1871 0.492828 8.1851 0.471621 8.18923C0.450415 8.19337 0.430826 8.20346 0.41515 8.21833C0.278742 8.34776 0.152641 8.47629 0.0295711 8.61239C0.01772 8.62553 0.00906452 8.64123 0.00427971 8.65827C-0.000505104 8.67531 -0.0012899 8.69322 0.00198639 8.71061C0.00542763 8.72801 0.0128949 8.74437 0.0237907 8.75837C0.0346864 8.77237 0.0487081 8.78363 0.0647338 8.79124C1.03821 9.20329 2.06182 9.485 3.10905 9.62908C3.29092 9.66243 3.4728 9.69547 3.65165 9.73002C4.98208 9.98708 6.09546 10.2168 7.20461 10.5018C7.2194 10.5056 7.23482 10.5064 7.24993 10.5042C7.26504 10.5019 7.27953 10.4965 7.29252 10.4884C7.3055 10.4804 7.31675 10.4699 7.3256 10.4574C7.33444 10.445 7.34072 10.4309 7.34405 10.416C7.35981 10.3436 7.3777 10.2714 7.39679 10.1956C7.40064 10.1801 7.4012 10.164 7.39843 10.1483C7.39566 10.1326 7.38962 10.1177 7.3807 10.1044C7.37179 10.0912 7.3602 10.08 7.34668 10.0715C7.33316 10.0631 7.31801 10.0575 7.30222 10.0553V10.0541Z" fill="#444444"/>
<path d="M15.9559 9.15706C15.9451 8.98015 15.8926 8.80831 15.8027 8.65555C15.7129 8.50278 15.5882 8.37341 15.4388 8.27798C15.2374 8.17175 15.0145 8.11275 14.7869 8.10545C14.5594 8.09815 14.3331 8.14274 14.1254 8.23585C12.9923 8.66963 12.5127 9.89184 12.0898 10.9698C12.0386 11.1004 11.9886 11.2277 11.9383 11.3484C11.9238 11.3836 11.9019 11.4154 11.874 11.4414C11.8613 11.4533 11.8515 11.468 11.8453 11.4843C11.8392 11.5006 11.8369 11.5181 11.8386 11.5354C11.8418 11.5696 11.8389 11.6041 11.8301 11.6372C11.8255 11.6556 11.8255 11.6747 11.8301 11.693C11.9118 12.0271 12.0686 12.3381 12.2883 12.6026C12.5081 12.8671 12.7852 13.0781 13.0987 13.2196C13.3667 13.3394 13.6594 13.3938 13.9526 13.3783C14.2457 13.3628 14.531 13.2778 14.785 13.1305C14.7874 13.1305 14.8104 13.1141 14.8128 13.1126C14.8359 13.0975 14.8526 13.0745 14.86 13.048C14.8673 13.0214 14.8648 12.9931 14.8529 12.9683C14.841 12.9435 14.8204 12.9239 14.7951 12.913C14.7698 12.9022 14.7414 12.901 14.7152 12.9095C14.4855 12.99 14.2342 12.983 14.0092 12.89C13.7843 12.797 13.6015 12.6243 13.4958 12.4051C13.0732 11.7042 12.8656 10.583 13.3139 9.88547C13.4359 9.69449 13.6044 9.53757 13.8036 9.42938C14.0027 9.32118 14.2261 9.26524 14.4527 9.26679H14.4549C14.6901 9.26665 14.9215 9.32616 15.1274 9.43977C15.3334 9.55338 15.5072 9.71736 15.6325 9.91639C15.6851 10.0017 15.7317 10.0905 15.7719 10.1822C15.7825 10.2062 15.8011 10.2258 15.8244 10.2376C15.8477 10.2495 15.8745 10.2529 15.9001 10.2474C15.9257 10.2418 15.9485 10.2276 15.9649 10.2071C15.9812 10.1866 15.9899 10.1611 15.9896 10.1349L15.9878 9.90487C15.9904 9.65521 15.9797 9.40559 15.9559 9.15706Z" fill="#444444"/>
<path d="M34.8259 2.90806C34.8213 2.88796 34.8113 2.86951 34.797 2.85466C34.7827 2.83982 34.7646 2.82915 34.7447 2.82379C34.5626 2.77589 34.3783 2.73724 34.1924 2.70799C34.0554 2.70345 33.9083 2.70314 33.7343 2.70799C33.1318 2.74334 32.5326 2.82267 31.9416 2.94534L30.7264 3.18784C30.5169 3.2321 30.2826 3.27393 30.0292 3.31273L25.6223 4.03266L25.592 4.03842L25.5535 4.046C25.5387 4.04965 25.5247 4.05625 25.5125 4.06542C25.5003 4.07458 25.49 4.08611 25.4824 4.09932C25.4747 4.11254 25.4698 4.12716 25.4679 4.14232C25.466 4.15748 25.4672 4.17287 25.4714 4.18756C25.5988 4.62906 25.6965 5.07859 25.7639 5.53314C25.7681 5.5621 25.7833 5.58832 25.8063 5.60637C25.8294 5.62443 25.8584 5.63294 25.8876 5.63015L26.03 5.61529C26.0989 5.60802 26.1661 5.60074 26.2334 5.59498C26.4608 5.57043 26.6548 5.55073 26.8206 5.53436C26.4872 5.59923 26.1361 5.66319 25.8958 5.70714C25.8675 5.7122 25.8421 5.72781 25.8249 5.75083C25.8077 5.77385 25.7999 5.80254 25.803 5.83112C25.9018 6.74414 25.853 7.90361 25.0588 8.2419C24.4202 8.47791 23.7548 8.6339 23.0779 8.70629C22.6968 8.76358 22.3028 8.82239 21.9302 8.90878C20.7577 9.17856 19.6101 9.41318 18.4703 9.32346C18.4319 9.32189 18.3943 9.31203 18.3601 9.29456C18.3259 9.27708 18.2959 9.2524 18.2721 9.22221C18.2514 9.19308 18.2374 9.15979 18.2309 9.12466C18.2244 9.08953 18.2256 9.05341 18.2345 9.01881C18.3582 8.42736 18.3674 7.81768 18.2615 7.22278C18.2593 7.20785 18.2541 7.19351 18.2463 7.18061C18.2384 7.1677 18.2281 7.1565 18.2159 7.14766C18.2036 7.13881 18.1897 7.13251 18.175 7.12912C18.1603 7.12573 18.1451 7.12531 18.1302 7.1279L17.9938 7.15094L18.1369 7.11183C18.1645 7.10445 18.1883 7.08693 18.2035 7.06276C18.2187 7.03859 18.2243 7.00957 18.219 6.98149C18.1387 6.5468 18.0223 6.11182 17.9095 5.69168C17.9016 5.66331 17.8831 5.63907 17.8579 5.62395C17.8326 5.60883 17.8025 5.604 17.7737 5.61044C14.6407 6.34229 11.5519 7.25193 8.52228 8.33496C8.5005 8.34279 8.48163 8.35709 8.4682 8.37594C8.45476 8.39479 8.4474 8.4173 8.44711 8.44044C8.44468 8.6005 8.44013 8.76297 8.43528 8.92545C8.43485 8.94139 8.43779 8.95724 8.4439 8.97197C8.45001 8.9867 8.45916 8.99998 8.47075 9.01093C8.48244 9.02171 8.49623 9.02996 8.51125 9.03517C8.52626 9.04039 8.5422 9.04246 8.55805 9.04124C8.87451 9.01333 9.18856 8.96268 9.49775 8.88968L9.7642 8.82633C10.1192 8.74145 10.4547 8.66112 10.7139 8.62596C10.7894 8.61444 10.8555 8.60747 10.9124 8.60323C10.8406 8.63354 10.7642 8.66385 10.7024 8.68628C10.3202 8.83182 9.92933 8.95331 9.532 9.05004C9.21131 9.12923 8.88056 9.15988 8.55077 9.14097C8.5351 9.13965 8.51932 9.14167 8.50448 9.1469C8.48964 9.15212 8.47608 9.16043 8.46469 9.17129C8.45325 9.18196 8.44413 9.19487 8.43787 9.2092C8.43162 9.22354 8.42836 9.239 8.42831 9.25465L8.42589 9.44349C8.42591 9.4599 8.42948 9.4761 8.43635 9.49099C8.44323 9.50588 8.45324 9.51911 8.46571 9.52977C8.47818 9.54042 8.49281 9.54825 8.50859 9.55272C8.52437 9.55719 8.54094 9.55819 8.55714 9.55565L8.92089 9.5023C8.98279 9.48475 9.04909 9.49203 9.1057 9.52259C9.1623 9.55316 9.20476 9.60461 9.22402 9.66599C9.22685 9.67681 9.22868 9.68787 9.22948 9.69903C9.23105 9.71132 9.23453 9.72328 9.23979 9.7345C9.25496 9.76894 9.26241 9.80629 9.26161 9.84393V10.4123C9.26157 10.437 9.26954 10.461 9.28434 10.4808C9.31027 10.5155 9.32767 10.5559 9.33515 10.5986C9.34263 10.6413 9.33997 10.6852 9.32739 10.7266C9.31545 10.7596 9.29524 10.7889 9.2687 10.8118C9.24215 10.8347 9.21017 10.8503 9.17582 10.8573C8.84238 10.9482 8.49803 11.0173 8.14519 11.0883C8.11931 11.0937 8.09612 11.1079 8.07959 11.1286C8.06306 11.1492 8.05422 11.1749 8.05458 11.2014C8.05493 11.2278 8.06447 11.2533 8.08156 11.2735C8.09864 11.2937 8.12221 11.3073 8.14822 11.312C8.28864 11.3376 8.43029 11.3559 8.5726 11.3668C8.85784 11.3865 9.15552 11.3972 9.46107 11.3972C9.571 11.3972 9.68215 11.3958 9.79451 11.3932C10.0731 11.3872 10.3511 11.3744 10.629 11.3629C10.8761 11.3517 11.1231 11.3405 11.3699 11.3341C11.3958 11.333 11.4205 11.3231 11.44 11.306C11.4595 11.2889 11.4726 11.2657 11.4772 11.2401L11.5954 10.9473C12.1571 9.54777 12.8564 7.8063 14.4936 7.67747C15.4418 7.60442 16.038 7.86177 16.266 8.43984C16.416 8.89988 16.479 9.38384 16.4518 9.86697C16.4533 10.0534 16.4548 10.2395 16.4654 10.4244C16.4672 10.454 16.4805 10.4816 16.5023 10.5016C16.5241 10.5216 16.5529 10.5323 16.5825 10.5314C16.5953 10.5311 16.608 10.5285 16.62 10.5238C16.7413 10.4935 18.1142 10.2295 19.327 9.99701C20.6059 9.75178 21.8126 9.52019 22.0321 9.47108C22.8675 9.28253 23.7484 9.07368 24.7254 8.83209C25.1846 8.71781 25.6414 8.60141 26.1013 8.48228C26.763 8.30798 26.8479 8.14217 27.0689 7.53531C27.2366 6.94201 27.6167 6.43114 28.1368 6.09999C28.9855 5.61287 29.9786 5.53951 30.9256 5.53284C30.9391 5.53264 30.9527 5.53407 30.9659 5.53709C30.9791 5.54015 30.9928 5.54066 31.0062 5.5386C31.0481 5.53166 31.0911 5.53845 31.1288 5.55796C31.1664 5.57746 31.1968 5.60863 31.2153 5.64682C31.4242 5.99563 31.5765 6.37529 31.6667 6.77173C31.6712 6.79493 31.6828 6.81616 31.6999 6.83246C31.717 6.84875 31.7388 6.85931 31.7622 6.86266C31.798 6.86859 31.8323 6.88124 31.8634 6.89995C31.8883 6.91437 31.9176 6.91881 31.9456 6.91238C32.7792 6.72323 33.8189 6.42555 34.4643 5.79505C35.0263 5.24457 35.1448 4.30063 34.8259 2.90806ZM33.6589 4.34246C33.5858 4.36095 33.5 4.38065 33.3994 4.40126C33.0171 4.47856 32.4733 4.55586 31.7355 4.63771C31.2675 4.6953 30.8301 4.74774 30.4624 4.79169L30.0762 4.83838C29.9725 4.85293 29.8855 4.86444 29.8122 4.87323C29.8813 4.84777 29.9637 4.81958 30.0598 4.78927C30.6023 4.63759 31.1566 4.53143 31.7167 4.47189C32.4021 4.39702 33.0065 4.36368 33.3927 4.35064C33.4982 4.34519 33.5855 4.34337 33.6589 4.34246Z" fill="#444444"/>
<path d="M7.16033 10.9767C6.73322 10.8673 6.30096 10.7645 5.87537 10.6684C5.85554 10.664 5.83486 10.6649 5.81552 10.6712C5.79617 10.6774 5.77886 10.6888 5.76541 10.704C5.75196 10.7193 5.74286 10.7379 5.73906 10.7578C5.73526 10.7778 5.7369 10.7984 5.74382 10.8176C5.80884 11.0305 5.90507 11.2327 6.02936 11.4175C6.03985 11.4317 6.05354 11.4434 6.06933 11.4514C6.08512 11.4595 6.10258 11.4637 6.1203 11.4638C6.12444 11.4641 6.12859 11.4641 6.13273 11.4638C6.3777 11.4318 6.62025 11.3832 6.85872 11.3186C6.95784 11.2941 7.05697 11.2695 7.15609 11.2474C7.18138 11.2419 7.20401 11.2278 7.22022 11.2077C7.23644 11.1875 7.24525 11.1623 7.24521 11.1365V11.0886C7.24558 11.0631 7.23742 11.0383 7.22204 11.018C7.20666 10.9977 7.18494 10.9832 7.16033 10.9767Z" fill="#444444"/>
<path d="M30.8059 6.00671H30.8044C29.3964 6.03218 27.5088 6.31833 27.3757 8.50449L27.4882 8.51419L27.3697 8.53813C27.3675 8.55216 27.3681 8.56648 27.3715 8.58027C27.4285 8.83098 27.5355 9.0676 27.6861 9.27595C27.8367 9.48431 28.0279 9.66009 28.2481 9.79278C28.5659 9.98529 28.9306 10.0865 29.3021 10.0853C29.4869 10.085 29.6709 10.0613 29.8498 10.015C30.2189 9.91944 30.5558 9.72749 30.8262 9.45882C31.0966 9.19014 31.2907 8.85439 31.3885 8.486C31.508 8.09713 31.5231 7.6837 31.4325 7.28713C31.4288 7.27288 31.0887 6.00671 30.8059 6.00671ZM30.2754 9.28262C30.2671 9.28538 30.2591 9.28904 30.2515 9.29353C30.2347 9.30337 30.217 9.3113 30.1984 9.31717C30.0092 9.37582 29.8084 9.38693 29.6138 9.34949C29.4193 9.31206 29.2369 9.22725 29.0829 9.10256C28.9344 8.97767 28.8195 8.81755 28.7487 8.63683C28.678 8.4561 28.6537 8.26054 28.678 8.06798C28.7483 7.3911 29.0938 6.56113 29.8377 6.44928C29.9006 6.43964 29.9642 6.43468 30.0278 6.43443C30.2305 6.43539 30.4272 6.50368 30.5869 6.62855C30.7466 6.75343 30.8603 6.92783 30.9102 7.12435C31.1463 7.82881 30.9199 8.91826 30.2754 9.28262Z" fill="#444444"/>
<path d="M30.0161 6.90543H30.0013C29.8401 6.92095 29.6867 6.98241 29.5593 7.08251C29.432 7.18261 29.336 7.31715 29.2829 7.47016C29.1848 7.65995 29.1373 7.87182 29.1449 8.08532C29.1525 8.29883 29.2151 8.50676 29.3265 8.68904C29.3833 8.75844 29.4553 8.81383 29.5369 8.85094C29.6186 8.88805 29.7077 8.90588 29.7973 8.90305C29.8721 8.90237 29.9466 8.8928 30.0192 8.87455C30.0326 8.87133 30.0454 8.86568 30.0568 8.85788C30.409 8.61538 30.6576 7.74571 30.5072 7.2798C30.4802 7.17079 30.4169 7.07426 30.3276 7.00619C30.2383 6.93811 30.1284 6.90256 30.0161 6.90543Z" fill="#444444"/>
<path d="M7.9521 9.52566C7.95665 9.24648 7.96332 8.9673 7.96968 8.68812V8.63871C7.97025 8.61488 7.96328 8.59148 7.94979 8.57184C7.93629 8.55219 7.91695 8.5373 7.89451 8.52928C6.42534 8.04465 4.91833 7.68339 3.38912 7.44923C2.49701 7.28736 1.57459 7.12034 0.67976 6.90209C0.662357 6.89793 0.644215 6.89795 0.626824 6.90217C0.609434 6.90638 0.593293 6.91467 0.579728 6.92634C0.566051 6.93801 0.555305 6.95273 0.548356 6.96932C0.541406 6.9859 0.538447 7.00389 0.539715 7.02182C0.553659 7.22795 0.567299 7.43135 0.576696 7.63505C0.577644 7.65698 0.584936 7.67816 0.597689 7.69603C0.610442 7.71389 0.628106 7.72767 0.648538 7.73569C2.89578 8.66727 5.25358 9.30575 7.66383 9.63539C7.68138 9.63842 7.6987 9.64267 7.71566 9.64812C7.72712 9.65185 7.73908 9.6538 7.75113 9.65388C7.76138 9.65391 7.77159 9.65248 7.78144 9.64964C7.79985 9.64396 7.81871 9.6399 7.83782 9.63751C7.86776 9.63768 7.89656 9.62602 7.91796 9.60508C7.93935 9.58413 7.95162 9.5556 7.9521 9.52566Z" fill="#444444"/>
<path d="M8.79087 10.3787V10.1249C8.79093 10.1087 8.78746 10.0926 8.78071 10.0778C8.77396 10.063 8.76409 10.0498 8.75176 10.0392C8.73938 10.0285 8.72486 10.0206 8.70917 10.016C8.69349 10.0114 8.67701 10.0102 8.66083 10.0125C8.43682 10.0446 8.21068 10.0731 7.98424 10.0931C7.96037 10.0953 7.9378 10.105 7.91974 10.1208C7.90168 10.1366 7.88904 10.1577 7.88361 10.181L7.80449 10.5145C7.80037 10.533 7.80092 10.5522 7.8061 10.5705C7.81127 10.5887 7.82092 10.6054 7.83415 10.619C7.84738 10.6326 7.8638 10.6427 7.8819 10.6484C7.90001 10.654 7.91924 10.6551 7.93787 10.6515C8.1928 10.5999 8.44773 10.5487 8.70266 10.4902C8.72783 10.4844 8.75027 10.4701 8.7663 10.4499C8.78232 10.4296 8.79099 10.4045 8.79087 10.3787Z" fill="#444444"/>
<path d="M14.2596 9.75302C14.0882 9.78908 13.932 9.87705 13.8123 10.005C13.6926 10.1329 13.6152 10.2946 13.5906 10.4681C13.4833 11.02 13.5758 11.592 13.8516 12.0819C13.8991 12.1871 13.9712 12.2792 14.0618 12.3507C14.1523 12.4221 14.2588 12.4707 14.3721 12.4924C14.3885 12.4941 14.405 12.4949 14.4215 12.4948C14.5568 12.4771 14.687 12.4315 14.8039 12.361C14.9208 12.2905 15.0218 12.1965 15.1005 12.085C15.4612 11.6303 15.6325 10.7997 15.2799 10.2456C15.1773 10.0722 15.0256 9.9329 14.8441 9.84527C14.6626 9.75765 14.4593 9.72555 14.2596 9.75302Z" fill="#444444"/>
</svg>
