<svg width="35" height="13" viewBox="0 0 35 13" fill="none" xmlns="http://www.w3.org/2000/svg">
<path d="M34.9964 6.95192C34.9964 6.95192 34.6653 6.80929 34.4378 6.75018C34.4378 6.75018 34.4378 6.38181 34.4378 6.27986C34.4378 6.17578 34.5466 6.08968 34.5423 5.92905C34.5355 5.76628 34.6173 4.62305 34.2087 3.72268C34.2087 3.72268 34.1474 2.71523 32.4139 0.905078H32.6157C32.6157 0.905078 32.6157 0.898224 32.6088 0.882375C32.6088 0.87338 32.6041 0.859674 32.5977 0.841684C32.5887 0.818982 32.575 0.791567 32.5544 0.757729C32.5043 0.68534 32.4225 0.592391 32.2841 0.479738C32.2841 0.479738 32.1526 0.468172 31.9166 0.457036C31.8896 0.457036 31.8622 0.454893 31.8327 0.454893C31.6583 0.44804 31.4382 0.441615 31.1747 0.439045C31.0887 0.303262 30.9661 0.181186 30.8209 0.101944C30.7892 0.0839538 30.755 0.0676769 30.7211 0.0543984C30.6873 0.0406916 30.6509 0.0291257 30.6145 0.0201306C30.5601 0.00685215 30.5031 0 30.4466 0H16.2664C15.9692 0 15.7057 0.187611 15.5537 0.418485C15.4877 0.423197 15.4312 0.443757 15.3836 0.44547C14.2147 0.509293 12.7626 0.665636 11.5033 1.53645C10.2144 2.42354 8.26722 3.76123 8.26722 3.76123C8.26722 3.76123 5.04055 3.99211 2.80763 4.42173C2.38571 4.50312 1.99764 4.5935 1.6751 4.69116C1.6751 4.69116 1.43909 4.81323 1.16238 5.22958C0.924223 5.58253 0.653942 6.15307 0.474897 7.04187L0.02557 7.39268C0.02557 7.39268 -0.210444 9.11246 0.751603 10.3598C0.794865 10.4185 0.842411 10.4754 0.892098 10.5315C0.898951 10.5405 0.908375 10.5131 0.9148 10.5063C0.919511 10.5016 0.923795 10.5041 0.925937 10.5174C0.925937 10.52 0.925937 10.52 0.928078 10.5221C0.93279 10.5401 0.937074 10.5744 0.941785 10.6356H1.98779V8.5175C1.98779 7.22992 3.05221 6.10938 4.34322 6.10938H5.78672C7.07773 6.10938 8.03549 7.03759 8.16228 8.44468L8.33704 10.1829H8.51181L23.8472 10.0634L24.0356 8.19667C24.1624 6.78873 25.1202 5.88408 26.4116 5.88408H27.8526C29.1436 5.88408 30.1262 6.95878 30.1262 8.24636V9.78324C30.8068 9.78324 32.593 9.76739 34.2151 9.49111C34.2151 9.49111 35.0619 8.95869 34.9964 6.95192ZM1.60699 5.10793C1.52518 5.38849 1.21635 6.33683 1.15081 7.01532H0.760598C0.760598 7.01532 0.983334 5.80955 1.54788 5.12164C1.56159 5.10365 1.57487 5.08094 1.59115 5.05824C1.60228 5.04025 1.61385 5.02226 1.62498 5.0107C1.62498 5.01284 1.62284 5.02869 1.61813 5.04668C1.61599 5.06724 1.61428 5.08951 1.60699 5.10793ZM12.2927 1.6294C13.4021 0.832688 15.994 0.708471 15.994 0.708471L16.1688 3.84733H9.60364C9.60364 3.84733 11.1808 2.42396 12.2927 1.6294ZM16.1619 5.20516H15.7786C15.7079 5.43132 15.5764 5.43132 15.4243 5.43132H15.0752C14.9253 5.43132 14.7938 5.43132 14.721 5.20516H14.4216C14.3218 5.20516 14.2404 5.14177 14.2404 5.04453C14.2404 4.99014 14.2605 5.00598 14.2927 4.97215C14.3269 4.94045 14.3719 4.979 14.422 4.979H14.6919C14.7124 4.75241 14.7441 4.78196 14.7848 4.74384C14.8572 4.66674 14.9621 4.52667 15.0752 4.52667H15.4243C15.5995 4.52667 15.749 4.75284 15.8081 4.97943H16.1619C16.2643 4.97943 16.3435 4.99057 16.3435 5.09251C16.3431 5.19188 16.2639 5.20516 16.1619 5.20516ZM17.4191 0.678915H21.1748C21.6489 0.678915 21.9578 1.16979 21.9578 1.64268V3.00051C21.9578 3.47339 21.6489 3.84733 21.1748 3.84733H17.4191V0.678915ZM22.4615 5.20516H22.0777C22.0053 5.43132 21.8734 5.43132 21.7239 5.43132H21.3718C21.2219 5.43132 21.0904 5.43132 21.018 5.20516H20.7207C20.6209 5.20516 20.5395 5.12806 20.5395 5.02826C20.5395 4.97857 20.5575 4.88562 20.5918 4.85178C20.6261 4.82009 20.6715 4.75198 20.7212 4.75198H20.9893C21.012 4.75198 21.0433 4.66845 21.0822 4.6299C21.1568 4.5528 21.2591 4.52582 21.3722 4.52582H21.7243C21.8965 4.52582 22.0464 4.75198 22.1077 4.75198H22.4619C22.5617 4.75198 22.6431 4.87877 22.6431 4.97857C22.6431 5.07837 22.5609 5.20516 22.4615 5.20516ZM25.4611 3.62117C24.6554 3.62117 24.5556 3.38344 24.2922 2.99408C24.0288 2.60472 23.2869 1.38524 23.0941 1.08412C22.8993 0.783001 23.026 0.678915 23.5914 0.678915C24.1564 0.678915 31.5517 0.678915 31.5517 0.678915C31.5517 0.678915 32.784 2.03675 33.3696 3.62117C33.3696 3.62117 26.2643 3.62117 25.4611 3.62117ZM34.1813 5.95175L33.9842 6.14836V6.73219L33.5302 6.7793V4.29966H34.0883C34.0883 4.29966 34.3179 5.45874 34.1813 5.95175Z" fill="#444444"/>
<path d="M6.60493 6.94076C5.19141 6.13077 3.38725 6.61993 2.57469 8.03002C1.76428 9.43968 2.25258 11.2361 3.6661 12.0465C5.08004 12.8544 6.88378 12.3678 7.69633 10.9581C8.50632 9.54805 8.01845 7.7486 6.60493 6.94076ZM7.13821 8.83315L6.11491 9.11071C6.09435 9.0546 6.06951 9.00492 6.03995 8.95523L7.02256 8.5543C7.06796 8.64468 7.10608 8.73763 7.13821 8.83315ZM6.18516 7.66936C6.45287 7.82356 6.67303 8.02488 6.84308 8.26046L5.64716 8.58386C5.64288 8.58215 5.63603 8.57958 5.63132 8.57486L5.38631 7.40507C5.65873 7.43677 5.93115 7.52458 6.18516 7.66936ZM5.78338 9.32831L5.62446 9.44825L5.44328 9.37115L5.418 9.17411L5.57692 9.05674L5.75853 9.13385L5.78338 9.32831ZM5.40901 9.67698L5.59062 9.75365L5.61547 9.94812L5.45655 10.0685L5.27494 9.99138L5.25224 9.79648L5.40901 9.67698ZM5.21626 8.82373L5.23896 9.01819L5.08219 9.13813L4.89843 9.06103L4.87573 8.86399L5.0325 8.74663L5.21626 8.82373ZM5.01194 10.0231L4.85302 10.1404L4.67141 10.0633L4.64614 9.8693L4.80548 9.74894L4.98667 9.82604L5.01194 10.0231ZM5.04364 7.39137L5.13658 8.47463C5.09332 8.47934 5.05049 8.48363 5.00723 8.49305C4.99566 8.49562 4.98195 8.49776 4.97082 8.49991L4.74594 7.42735C4.84403 7.40721 4.94383 7.39565 5.04364 7.39137ZM4.76907 9.28291L4.79177 9.4778L4.635 9.59731L4.45124 9.52021L4.42854 9.32531L4.58531 9.20581L4.76907 9.28291ZM3.30544 8.44551C3.5663 7.99532 3.96594 7.67835 4.41998 7.51516L4.51764 8.66524L3.28788 8.48192C3.2943 8.46821 3.30073 8.4575 3.30544 8.44551ZM3.15124 8.78261L4.28591 9.09529C4.26535 9.14884 4.24735 9.20367 4.23579 9.26021L3.06728 9.0863C3.08784 8.98436 3.11483 8.88241 3.15124 8.78261ZM3.6434 10.9804C3.22405 10.5611 3.00346 9.98452 3.0283 9.40241L4.26277 9.74209C4.27177 9.77378 4.28333 9.80548 4.29704 9.83504L3.6434 10.9804ZM4.08587 11.3175C4.02034 11.279 3.95908 11.2404 3.89783 11.1976L4.61487 10.2334C4.65599 10.2651 4.70139 10.2946 4.74894 10.3169L4.15655 11.3561C4.13385 11.3424 4.10857 11.3312 4.08587 11.3175ZM4.46709 11.4876L5.24538 10.442L6.24855 11.2811C5.72426 11.6049 5.07105 11.6889 4.46709 11.4876ZM6.51412 11.0845L5.74268 10.2604C5.7928 10.2265 5.83777 10.1906 5.8789 10.1494L6.73429 10.8648C6.66618 10.944 6.59122 11.019 6.51412 11.0845ZM6.96345 10.5392C6.95231 10.5615 6.9386 10.5821 6.92704 10.6022L6.12819 9.74894C6.14661 9.69454 6.15774 9.64014 6.16674 9.58146L7.21745 9.15612C7.29241 9.61615 7.21531 10.1045 6.96345 10.5392Z" fill="#444444"/>
<path d="M28.4966 6.78539C27.0831 5.97754 25.2815 6.46413 24.469 7.87379C23.659 9.28345 24.1469 11.0825 25.5604 11.8903C26.9739 12.7012 28.7781 12.2116 29.588 10.8019C30.4006 9.39225 29.9106 7.59537 28.4966 6.78539ZM29.0299 8.67693L28.0066 8.95535C27.9865 8.90095 27.9612 8.84912 27.9338 8.799L28.9164 8.40065C28.9618 8.48931 28.9982 8.58269 29.0299 8.67693ZM28.079 7.51399C28.3467 7.66776 28.5669 7.87122 28.7374 8.10467L27.5414 8.42849C27.5346 8.42592 27.5299 8.42335 27.5252 8.42121L27.2802 7.24928C27.5526 7.28311 27.8246 7.36921 28.079 7.51399ZM27.6751 9.17466L27.5183 9.29245L27.335 9.21535L27.3123 9.02045L27.4686 8.90095L27.6528 8.97805L27.6751 9.17466ZM27.3029 9.52118L27.4845 9.59828L27.5093 9.79574L27.3504 9.91268L27.1688 9.83558L27.1435 9.64111L27.3029 9.52118ZM27.108 8.66836L27.1332 8.86283L26.9743 8.98233L26.7927 8.90523L26.7679 8.70862L26.9268 8.59126L27.108 8.66836ZM26.9058 9.86771L26.7469 9.98507L26.5653 9.9084L26.5404 9.7135L26.6993 9.594L26.8809 9.6711L26.9058 9.86771ZM26.9375 7.23814L27.0283 8.32183C26.9872 8.32398 26.9443 8.32869 26.9011 8.33768C26.8874 8.33982 26.8762 8.34239 26.8625 8.34668L26.6376 7.27155C26.7379 7.25399 26.8377 7.24242 26.9375 7.23814ZM26.6608 9.12754L26.6856 9.32457L26.5267 9.44194L26.3451 9.36484L26.3203 9.17037L26.4787 9.05044L26.6608 9.12754ZM25.1997 8.29228C25.4584 7.8421 25.8602 7.52341 26.3138 7.36022L26.4115 8.50987L25.1817 8.32655C25.1856 8.31541 25.1924 8.30384 25.1997 8.29228ZM25.0429 8.62724L26.1776 8.9395C26.1571 8.9939 26.1416 9.0483 26.1301 9.10484L24.9594 8.9305C24.9796 8.82899 25.0091 8.72661 25.0429 8.62724ZM25.5377 10.8246C25.1153 10.4061 24.8977 9.82916 24.9226 9.24747L26.1566 9.58929C26.1656 9.62055 26.1772 9.65011 26.1909 9.68181L25.5377 10.8246ZM25.9802 11.1617C25.9142 11.1257 25.8508 11.085 25.7917 11.0422L26.5066 10.0802C26.5498 10.1119 26.5952 10.1397 26.6428 10.1637L26.0508 11.2003C26.0256 11.1896 26.0029 11.1754 25.9802 11.1617ZM26.3614 11.3339L27.1397 10.2866L28.1403 11.1257C27.6164 11.4496 26.9628 11.5352 26.3614 11.3339ZM28.4084 10.9308L27.6365 10.105C27.6841 10.0733 27.7321 10.0348 27.7727 9.99407L28.6281 10.7094C28.5579 10.7908 28.4851 10.8632 28.4084 10.9308ZM28.8573 10.386C28.8462 10.4066 28.8325 10.4271 28.8187 10.449L28.0225 9.59614C28.0383 9.54174 28.052 9.4852 28.0606 9.42823L29.1092 9.00075C29.1863 9.4625 29.1092 9.94909 28.8573 10.386Z" fill="#444444"/>
</svg>
