<svg width="35" height="11" viewBox="0 0 35 11" fill="none" xmlns="http://www.w3.org/2000/svg">
<path fill-rule="evenodd" clip-rule="evenodd" d="M34.8907 8.03766L30.6436 8.67702C30.7349 8.40301 30.7806 8.12899 30.7806 7.85498C30.7806 6.25659 29.4562 4.9322 27.8578 4.9322C26.2594 4.9322 24.9807 6.25659 24.9807 7.85498C24.9807 8.266 25.072 8.67702 25.2547 9.08803L8.58568 9.04237C8.72268 8.67702 8.85969 8.266 8.85969 7.85498C8.85969 6.25659 7.53531 4.9322 5.93691 4.9322C4.33851 4.9322 3.05979 6.25659 3.05979 7.85498C3.05979 8.17466 3.10546 8.54001 3.24246 8.85969L0.319679 8.63135C0.137005 8.03766 0.0456696 7.3983 0 6.75894C0.319679 6.75894 0.639359 6.75894 0.913368 6.75894L2.19209 5.34322L0.0913353 5.38888C0.137005 5.34322 0.137005 5.29755 0.137005 5.20621C2.64877 3.28813 5.70856 3.1968 8.81402 3.15113C10.8691 3.15113 13.0612 0.959039 18.9524 0.182674C20.5508 -0.0456685 22.1492 -0.091337 23.7476 0.228343C26.9444 0.91337 28.9082 2.74011 33.7947 3.1968C34.1144 3.24246 34.3427 3.24246 34.4797 3.51648L34.0687 3.56214C33.9317 3.97316 33.612 5.02354 33.612 5.38888C33.5664 5.7999 34.3427 5.70856 34.9821 5.70856C35.0278 6.48493 34.9821 7.26129 34.8907 8.03766ZM11.6911 3.10546C13.1525 2.28343 16.0753 1.09604 18.8611 0.91337L18.8154 1.09604C16.1667 1.27872 14.6139 2.32909 13.3809 3.05979L11.6911 3.10546ZM27.1728 2.51177C25.7114 1.64407 22.6059 0.548022 20.2768 0.822033V1.05038C22.8343 0.91337 24.3413 1.78107 25.62 2.51177H27.1728ZM5.93691 6.39359C5.16054 6.39359 4.52118 7.03295 4.52118 7.85498C4.52118 8.63135 5.16054 9.27071 5.93691 9.27071C6.75894 9.27071 7.3983 8.63135 7.3983 7.85498C7.3983 7.03295 6.75894 6.39359 5.93691 6.39359ZM5.29755 7.3983L4.84086 7.12429C4.9322 6.94161 5.0692 6.85028 5.25188 6.71327L5.52589 7.21562C5.43455 7.26129 5.34322 7.30696 5.29755 7.3983ZM5.20621 7.99199L4.65819 8.12899C4.61252 7.94632 4.61252 7.76365 4.65819 7.58097L5.20621 7.71798C5.16054 7.80932 5.16054 7.90065 5.20621 7.99199ZM5.52589 8.49434L5.25188 8.95103C5.0692 8.85969 4.9322 8.72269 4.84086 8.54001L5.29755 8.266C5.34322 8.35734 5.43455 8.44868 5.52589 8.49434ZM6.07391 8.58568L6.21092 9.1337C6.02824 9.17937 5.84557 9.17937 5.6629 9.1337L5.7999 8.58568C5.89124 8.63135 5.98257 8.63135 6.07391 8.58568ZM6.57627 8.266L7.07862 8.54001C6.98728 8.72269 6.85028 8.85969 6.6676 8.95103L6.39359 8.49434C6.48493 8.44868 6.5306 8.35734 6.57627 8.266ZM6.71327 7.71798L7.26129 7.58097C7.30696 7.76365 7.30696 7.94632 7.26129 8.12899L6.71327 7.99199C6.71327 7.90065 6.71327 7.80932 6.71327 7.71798ZM6.39359 7.21562L6.6676 6.71327C6.85028 6.85028 6.98728 6.94161 7.07862 7.12429L6.57627 7.3983C6.5306 7.30696 6.48493 7.26129 6.39359 7.21562ZM5.7999 7.07862L5.6629 6.5306C5.84557 6.48493 6.02824 6.48493 6.21092 6.5306L6.07391 7.07862C5.98257 7.07862 5.89124 7.07862 5.7999 7.07862ZM5.93691 5.29755C4.52118 5.29755 3.37947 6.43926 3.37947 7.85498C3.37947 9.27071 4.52118 10.4124 5.93691 10.4124C7.35263 10.4124 8.49434 9.27071 8.49434 7.85498C8.49434 6.43926 7.35263 5.29755 5.93691 5.29755ZM5.93691 6.30225C5.0692 6.30225 4.38418 6.98728 4.38418 7.85498C4.38418 8.72269 5.0692 9.40771 5.93691 9.40771C6.80461 9.40771 7.48964 8.72269 7.48964 7.85498C7.48964 6.98728 6.80461 6.30225 5.93691 6.30225ZM27.8578 6.39359C27.0814 6.39359 26.4421 7.03295 26.4421 7.85498C26.4421 8.63135 27.0814 9.27071 27.8578 9.27071C28.6798 9.27071 29.3192 8.63135 29.3192 7.85498C29.3192 7.03295 28.6798 6.39359 27.8578 6.39359ZM27.2184 7.3983L26.7618 7.12429C26.8531 6.94161 26.9901 6.80461 27.1728 6.71327L27.4468 7.21562C27.3554 7.26129 27.2641 7.30696 27.2184 7.3983ZM27.1271 7.99199L26.5791 8.12899C26.5334 7.94632 26.5334 7.76365 26.5791 7.58097L27.1271 7.71798C27.0814 7.80932 27.0814 7.90065 27.1271 7.99199ZM27.4468 8.49434L27.1728 8.95103C26.9901 8.85969 26.8531 8.72269 26.7618 8.54001L27.2184 8.266C27.2641 8.35734 27.3554 8.44868 27.4468 8.49434ZM27.9948 8.58568L28.1318 9.1337C27.9491 9.17937 27.7665 9.17937 27.5838 9.1337L27.7208 8.58568C27.8121 8.63135 27.9035 8.63135 27.9948 8.58568ZM28.4972 8.266L28.9995 8.54001C28.9082 8.72269 28.7712 8.85969 28.5885 8.95103L28.3145 8.49434C28.4058 8.44868 28.4515 8.35734 28.4972 8.266ZM28.6342 7.71798L29.1822 7.58097C29.2279 7.76365 29.2279 7.94632 29.1822 8.12899L28.6342 7.99199C28.6798 7.90065 28.6798 7.80932 28.6342 7.71798ZM28.3145 7.21562L28.5885 6.71327C28.7712 6.85028 28.9082 6.94161 28.9995 7.12429L28.4972 7.3983C28.4515 7.30696 28.4058 7.26129 28.3145 7.21562ZM27.7208 7.07862L27.5838 6.5306C27.7665 6.48493 27.9948 6.48493 28.1318 6.5306L27.9948 7.07862C27.9035 7.07862 27.8121 7.07862 27.7208 7.07862ZM27.8578 5.29755C26.4421 5.29755 25.3004 6.43926 25.3004 7.85498C25.3004 9.27071 26.4421 10.4124 27.8578 10.4124C29.2735 10.4124 30.4152 9.27071 30.4152 7.85498C30.4152 6.43926 29.2735 5.29755 27.8578 5.29755ZM27.8578 6.30225C26.9901 6.30225 26.3051 6.98728 26.3051 7.85498C26.3051 8.72269 26.9901 9.40771 27.8578 9.40771C28.7255 9.40771 29.4562 8.72269 29.4562 7.85498C29.4562 6.98728 28.7255 6.30225 27.8578 6.30225ZM18.7241 4.11017H17.1714C17.08 4.11017 16.9887 4.15583 16.9887 4.24717L16.8974 4.42985C16.8517 4.52118 16.8974 4.61252 16.9887 4.61252H18.4958C18.5871 4.61252 18.6784 4.52118 18.7241 4.42985L18.7698 4.24717C18.8154 4.15583 18.7698 4.11017 18.7241 4.11017ZM34.5711 3.69915C34.7994 4.33851 34.8907 4.9322 34.9364 5.52589C34.3884 5.52589 33.7947 5.52589 33.7947 5.38888C33.7947 5.16054 34.1144 4.01883 34.2057 3.74482L34.5711 3.69915ZM0 6.57627C0 6.25659 0 5.93691 0.0913353 5.57156L1.7354 5.52589L0.822033 6.57627C0.730694 6.57627 0.411015 6.57627 0 6.57627ZM10.3668 3.28813C13.2439 1.96375 15.847 0.867702 19.0438 0.548022L18.7698 3.10546L10.3668 3.28813ZM20.0485 0.502354C21.1902 0.411017 22.1036 0.365348 23.2453 0.639359C24.935 1.00471 27.5838 1.91808 27.8578 2.55744C27.9491 2.74011 27.8121 2.87712 27.6751 2.87712L19.7745 3.05979L20.0485 0.502354Z" fill="#444444"/>
</svg>
