<svg width="24" height="24" viewBox="0 0 24 24" fill="none" xmlns="http://www.w3.org/2000/svg">
<path fill-rule="evenodd" clip-rule="evenodd" d="M14.2501 5.4997C14.2501 4.74039 14.5161 4.00507 15.0017 3.42137C15.4873 2.83767 16.162 2.44243 16.9087 2.30427C17.6553 2.1661 18.4267 2.29372 19.0891 2.66497C19.7515 3.03623 20.2629 3.62769 20.5347 4.33669C20.8065 5.0457 20.8215 5.82748 20.577 6.54637C20.3325 7.26525 19.8441 7.87584 19.1964 8.27217C18.5487 8.66849 17.7827 8.82553 17.0314 8.71603C16.28 8.60653 15.5907 8.2374 15.0831 7.6727L12.3661 9.1547L9.32606 10.8917C9.75107 11.6398 9.86253 12.5257 9.63606 13.3557L15.0831 16.3267C15.616 15.7346 16.3478 15.3589 17.1395 15.2708C17.9312 15.1828 18.7277 15.3886 19.3776 15.8491C20.0276 16.3096 20.4858 16.9929 20.6652 17.769C20.8446 18.5451 20.7327 19.3601 20.3508 20.0592C19.9688 20.7582 19.3435 21.2927 18.5934 21.561C17.8434 21.8293 17.0209 21.8128 16.2822 21.5147C15.5436 21.2165 14.9401 20.6574 14.5865 19.9436C14.2329 19.2298 14.1537 18.411 14.3641 17.6427L8.91706 14.6727C8.50193 15.1344 7.96323 15.4676 7.3647 15.6327C6.76616 15.7979 6.13285 15.7881 5.53969 15.6046C4.94653 15.4211 4.41834 15.0715 4.01764 14.5972C3.61694 14.1229 3.36048 13.5438 3.27862 12.9283C3.19675 12.3128 3.29291 11.6868 3.55571 11.1242C3.81851 10.5617 4.23695 10.0862 4.76152 9.75401C5.28609 9.42183 5.89484 9.24687 6.51573 9.24983C7.13662 9.25279 7.74367 9.43354 8.26506 9.7707L11.6351 7.8447L14.3641 6.3557C14.2882 6.0767 14.2499 5.78883 14.2501 5.4997ZM17.5001 3.7497C17.2702 3.7497 17.0427 3.79497 16.8304 3.88291C16.618 3.97086 16.4251 4.09976 16.2626 4.26227C16.1001 4.42477 15.9712 4.61769 15.8833 4.83001C15.7953 5.04233 15.7501 5.26989 15.7501 5.4997C15.7501 5.72952 15.7953 5.95708 15.8833 6.1694C15.9712 6.38172 16.1001 6.57464 16.2626 6.73714C16.4251 6.89964 16.618 7.02855 16.8304 7.11649C17.0427 7.20444 17.2702 7.2497 17.5001 7.2497C17.9642 7.2497 18.4093 7.06533 18.7375 6.73714C19.0657 6.40895 19.2501 5.96383 19.2501 5.4997C19.2501 5.03557 19.0657 4.59045 18.7375 4.26227C18.4093 3.93408 17.9642 3.7497 17.5001 3.7497ZM6.50006 10.7497C6.03593 10.7497 5.59081 10.9341 5.26262 11.2623C4.93443 11.5905 4.75006 12.0356 4.75006 12.4997C4.75006 12.9638 4.93443 13.409 5.26262 13.7371C5.59081 14.0653 6.03593 14.2497 6.50006 14.2497C6.96419 14.2497 7.4093 14.0653 7.73749 13.7371C8.06568 13.409 8.25006 12.9638 8.25006 12.4997C8.25006 12.0356 8.06568 11.5905 7.73749 11.2623C7.4093 10.9341 6.96419 10.7497 6.50006 10.7497ZM15.7501 18.4997C15.7501 18.0356 15.9344 17.5905 16.2626 17.2623C16.5908 16.9341 17.0359 16.7497 17.5001 16.7497C17.9642 16.7497 18.4093 16.9341 18.7375 17.2623C19.0657 17.5905 19.2501 18.0356 19.2501 18.4997C19.2501 18.9638 19.0657 19.409 18.7375 19.7371C18.4093 20.0653 17.9642 20.2497 17.5001 20.2497C17.0359 20.2497 16.5908 20.0653 16.2626 19.7371C15.9344 19.409 15.7501 18.9638 15.7501 18.4997Z" fill="#444444"/>
</svg>
