<svg width="15" height="24" viewBox="0 0 15 24" fill="none" xmlns="http://www.w3.org/2000/svg">
<path d="M7.04342 13.5649C6.32421 13.5649 5.73907 14.1501 5.73907 14.8693C5.73907 15.5886 6.32421 16.1737 7.04342 16.1737C7.76269 16.1737 8.34777 15.5886 8.34777 14.8693C8.34777 14.1501 7.76269 13.5649 7.04342 13.5649Z" fill="#9D9D9D" fill-opacity="0.97"/>
<path d="M8.13132 20.7782C8.11491 20.7809 8.09862 20.7841 8.08222 20.7867C8.00395 20.7993 7.9253 20.8103 7.84647 20.8199C7.82738 20.8223 7.80818 20.8241 7.78909 20.8263C7.72807 20.8332 7.66705 20.8394 7.6058 20.8446C7.58128 20.8468 7.55676 20.8486 7.53218 20.8505C7.47273 20.8548 7.41322 20.8585 7.3536 20.8612C7.33221 20.8623 7.31094 20.8634 7.28967 20.8642C7.20771 20.8673 7.12564 20.8693 7.04356 20.8693C6.99296 20.8693 6.94223 20.8674 6.89157 20.8661C6.85485 20.8653 6.81812 20.8653 6.7814 20.8638C6.73918 20.8622 6.69697 20.8588 6.65471 20.8563C6.6069 20.8534 6.55903 20.8511 6.51122 20.8473C6.47422 20.8443 6.43738 20.8399 6.40043 20.8363C6.35385 20.8317 6.30727 20.8279 6.26086 20.8224V23.9998H8.3478V20.7388C8.33728 20.741 8.32669 20.7425 8.31623 20.7446C8.25476 20.7567 8.19306 20.7678 8.13132 20.7782Z" fill="#9D9D9D" fill-opacity="0.97"/>
<path d="M4.69561 0.782587C4.69561 0.35107 4.34454 0 3.91302 0C3.4815 0 3.13043 0.35107 3.13043 0.782587V5.7391H4.69566V0.782587H4.69561Z" fill="#9D9D9D" fill-opacity="0.97"/>
<path d="M10.9565 0.782587C10.9565 0.35107 10.6054 0 10.1739 0C9.74237 0 9.3913 0.35107 9.3913 0.782587V5.7391H10.9565V0.782587Z" fill="#9D9D9D" fill-opacity="0.97"/>
<path d="M11.2174 6.26074H9.13039H4.95652H2.86952H0V7.82597H0.782587H13.3043H14.0869V6.26074H11.2174Z" fill="#9D9D9D" fill-opacity="0.97"/>
<path d="M1.04346 9.91289H8.60867C8.75272 9.91289 8.8695 10.0297 8.8695 10.1737C8.8695 10.3178 8.75272 10.4346 8.60867 10.4346H1.04346V14.3476C1.04346 17.2898 3.14613 19.778 6.04308 20.2642H6.04314C6.12118 20.2773 6.1995 20.2883 6.27799 20.2983C6.51345 20.3283 6.75043 20.3448 6.98729 20.347C7.46102 20.3513 7.93397 20.3005 8.39168 20.1956C8.44252 20.1839 8.49318 20.1716 8.54368 20.1586C11.193 19.4767 13.0434 17.0872 13.0434 14.3476V10.4346H10.6956C10.5515 10.4346 10.4347 10.3178 10.4347 10.1737C10.4347 10.0297 10.5515 9.91289 10.6956 9.91289H13.0434V8.34766H1.04346V9.91289ZM7.04344 16.6955C6.03653 16.6955 5.21733 15.8763 5.21733 14.8694C5.21733 13.8625 6.03653 13.0433 7.04344 13.0433C8.05035 13.0433 8.8695 13.8625 8.8695 14.8694C8.8695 15.8763 8.05035 16.6955 7.04344 16.6955Z" fill="#9D9D9D" fill-opacity="0.97"/>
</svg>
