<svg width="37" height="32" viewBox="0 0 37 32" fill="none" xmlns="http://www.w3.org/2000/svg">
<path fill-rule="evenodd" clip-rule="evenodd" d="M25.0657 7.51021C25.1929 7.60008 25.3401 7.64211 25.5075 7.63643C25.7875 7.71563 26.0294 7.86287 26.2333 8.0782C26.4963 8.46741 26.7592 8.85655 27.0222 9.24576C27.5571 9.15052 28.02 9.29776 28.4106 9.68753C28.9907 10.3306 29.5902 10.9513 30.2093 11.5493C30.2728 11.6777 30.3043 11.8144 30.3039 11.9595C30.2595 12.1824 30.228 12.4033 30.2093 12.6222C30.6568 13.2436 31.1196 13.8537 31.5977 14.4524C31.7113 14.5671 31.848 14.6407 32.0079 14.6733C32.2276 14.8479 32.3223 15.0688 32.2919 15.336C32.1725 15.434 32.0779 15.5498 32.0079 15.6831C32.168 15.8746 32.3153 16.0744 32.4497 16.2826C32.4497 16.3878 32.4497 16.493 32.4497 16.5982C32.6902 16.6042 32.6902 16.6463 32.4497 16.7244C32.3179 17.1092 32.0866 17.1934 31.7555 16.9769C31.5576 16.7681 31.3683 16.5472 31.1875 16.3142C31.0277 16.314 30.8699 16.3456 30.7142 16.4089C30.349 16.2003 30.1912 15.8848 30.2408 15.4622C30.1744 15.4528 30.1113 15.4633 30.0515 15.4937C29.6236 15.9851 29.1397 16.4059 28.5999 16.756C28.1331 16.8434 27.7438 16.7067 27.4324 16.3457C26.9186 15.6539 26.4453 14.9387 26.0124 14.2C26.0817 14.1434 26.0817 14.0908 26.0124 14.0422C26.0965 13.9791 26.1807 13.916 26.2648 13.8529C26.1807 13.7687 26.0965 13.6845 26.0124 13.6004C26.1777 13.6057 26.346 13.6162 26.5173 13.632C26.9612 14.3184 27.4451 14.981 27.9688 15.62C28.1146 15.6677 28.2408 15.6361 28.3475 15.5253C28.6831 15.1581 29.0302 14.8005 29.3888 14.4524C29.3494 13.906 29.1496 13.8324 28.7893 14.2315C28.6841 14.2736 28.5789 14.2736 28.4737 14.2315C28.2083 13.8796 27.9663 13.5114 27.7479 13.1271C27.7125 13.0941 27.6704 13.0731 27.6217 13.064C27.3117 13.1823 27.0067 13.3085 26.7066 13.4426C26.5008 13.3872 26.2905 13.3452 26.0755 13.3164C26.0953 13.143 26.0742 12.9747 26.0124 12.8115C25.9703 12.8325 25.9283 12.8536 25.8862 12.8746C25.8346 13.0392 25.803 13.2075 25.7915 13.3795C25.6215 13.2883 25.5689 13.162 25.6337 13.0009C25.5388 12.9162 25.4967 12.811 25.5075 12.6853C25.542 12.292 25.6051 11.9028 25.6968 11.5178C25.6617 11.2719 25.567 11.051 25.4128 10.8551C25.3707 10.7078 25.3707 10.5605 25.4128 10.4133C25.5838 10.2317 25.7626 10.0634 25.9493 9.90842C25.7093 9.51076 25.4568 9.12155 25.192 8.74087C24.9681 8.57186 24.7157 8.47719 24.4346 8.45687C24.3899 8.39982 24.3268 8.3788 24.2453 8.39376C24.2453 12.3277 24.2453 16.2616 24.2453 20.1955C24.4977 20.1955 24.7502 20.1955 25.0026 20.1955C25.1278 20.2891 25.2435 20.3942 25.3497 20.5111C26.2654 20.7534 27.0964 21.1531 27.8426 21.7102C27.798 21.9176 27.777 22.1279 27.7795 22.3413C27.5661 22.3388 27.3558 22.3598 27.1484 22.4044C26.8472 22.2643 26.5528 22.1065 26.2648 21.9311C25.9425 21.771 25.606 21.6553 25.2551 21.584C25.2397 21.7583 25.1555 21.895 25.0026 21.9942C24.7721 22.0257 24.5408 22.0361 24.3084 22.0257C24.2454 24.1186 24.2243 26.2224 24.2453 28.3368C24.624 28.3368 25.0026 28.3368 25.3813 28.3368C25.3813 29.4728 25.3813 30.6088 25.3813 31.7448C23.3406 31.7554 21.3 31.7448 19.2595 31.7133C19.0876 31.6962 18.9193 31.6647 18.7546 31.6186C18.5715 30.9465 18.4558 30.9675 18.4075 31.6817C18.2725 31.5466 18.1358 31.41 17.9973 31.2715C17.8181 31.2407 17.7445 31.3143 17.7764 31.4924C17.8501 31.566 17.9237 31.6396 17.9973 31.7133C14.947 31.7554 11.8966 31.7554 8.84622 31.7133C8.81113 31.6891 8.79012 31.6575 8.78311 31.6186C12.2243 29.9761 13.7074 27.2413 13.2324 23.4142C12.9198 21.4245 12.3518 19.5101 11.5284 17.6711C9.97522 14.3543 8.35535 11.0725 6.6689 7.82576C6.63734 5.21726 6.6268 2.60869 6.63734 0C12.5067 0 18.376 0 24.2453 0C24.2243 2.44063 24.2453 4.88094 24.3084 7.32087C24.5623 7.38512 24.8147 7.44823 25.0657 7.51021Z" fill="#0066FF"/>
<path fill-rule="evenodd" clip-rule="evenodd" d="M21.7211 3.09239C21.8683 3.11341 21.9525 3.1976 21.9735 3.34483C21.9735 5.34337 21.9735 7.34184 21.9735 9.34038C21.9405 9.47973 21.8564 9.57439 21.7211 9.62438C17.5558 9.66647 13.3904 9.66647 9.22511 9.62438C9.14932 9.56739 9.09668 9.4938 9.06734 9.40349C9.02524 7.34184 9.02524 5.28026 9.06734 3.21861C9.09151 3.18352 9.12306 3.16251 9.162 3.1555C13.3458 3.09283 17.5321 3.07182 21.7211 3.09239Z" fill="#FDFDFD"/>
<path fill-rule="evenodd" clip-rule="evenodd" d="M14.9679 3.02936C15.1152 3.02936 15.2625 3.02936 15.4097 3.02936C17.5242 3.00841 19.6279 3.02949 21.7208 3.09247C17.5318 3.0719 13.3455 3.09291 9.16174 3.15558C9.16875 3.11664 9.18976 3.08509 9.22485 3.06092C11.1391 3.02936 13.0535 3.01882 14.9679 3.02936Z" fill="#BEBCBD"/>
<path fill-rule="evenodd" clip-rule="evenodd" d="M25.0658 7.51013C25.2331 7.50445 25.3804 7.54648 25.5075 7.63635C25.3402 7.64203 25.1929 7.6 25.0658 7.51013Z" fill="#B8B7B8"/>
<path fill-rule="evenodd" clip-rule="evenodd" d="M24.4342 8.4569C24.7152 8.47722 24.9677 8.57189 25.1915 8.7409C25.4564 9.12158 25.7088 9.51079 25.9488 9.90845C25.7622 10.0635 25.5834 10.2317 25.4124 10.4133C25.3703 10.5606 25.3703 10.7079 25.4124 10.8551C25.5666 11.0511 25.6612 11.272 25.6964 11.5178C25.6046 11.9028 25.5415 12.292 25.5071 12.6853C25.4082 12.901 25.3766 13.1324 25.4124 13.3796C25.5827 13.6797 25.7826 13.9532 26.012 14.2C26.4448 14.9387 26.9182 15.6539 27.4319 16.3458C27.7434 16.7068 28.1326 16.8435 28.5995 16.756C29.1393 16.4059 29.6232 15.9852 30.0511 15.4938C30.1109 15.4633 30.174 15.4528 30.2404 15.4622C30.1908 15.8848 30.3486 16.2004 30.7137 16.4089C30.8695 16.3456 31.0273 16.314 31.187 16.3142C31.3679 16.5472 31.5572 16.7681 31.755 16.9769C32.0551 17.4721 32.3706 17.9559 32.7017 18.4284C33.5762 19.9038 34.3335 21.4395 34.9737 23.0355C35.3958 24.0728 35.6903 25.1457 35.8573 26.2542C35.8537 26.5843 35.8958 26.8999 35.9835 27.2009C36.0427 27.9755 35.906 28.7117 35.5733 29.4097C35.0227 30.1209 34.297 30.4049 33.3959 30.2617C32.9681 30.0653 32.6421 29.7603 32.4177 29.3466C31.8251 28.0317 31.2571 26.7063 30.7137 25.3706C30.0703 23.8972 29.1131 22.677 27.8422 21.7102C27.0959 21.1531 26.265 20.7534 25.3493 20.5111C25.2431 20.3943 25.1274 20.2891 25.0022 20.1955C24.7837 20.1336 24.5523 20.1126 24.308 20.1324C24.2661 16.219 24.3082 12.3271 24.4342 8.4569Z" fill="#FDFDFD"/>
<path fill-rule="evenodd" clip-rule="evenodd" d="M24.4343 8.4568C24.3083 12.327 24.2662 16.2189 24.3081 20.1323C24.5524 20.1124 24.7838 20.1335 25.0023 20.1954C24.7498 20.1954 24.4974 20.1954 24.2449 20.1954C24.2449 16.2615 24.2449 12.3276 24.2449 8.39369C24.3264 8.37873 24.3895 8.39975 24.4343 8.4568Z" fill="#908E8F"/>
<path fill-rule="evenodd" clip-rule="evenodd" d="M25.5077 12.6852C25.4968 12.8109 25.5389 12.9161 25.6339 13.0008C25.5691 13.162 25.6217 13.2882 25.7917 13.3794C25.8032 13.2074 25.8347 13.0391 25.8864 12.8746C25.9285 12.8535 25.9705 12.8325 26.0126 12.8114C26.0744 12.9747 26.0955 13.143 26.0757 13.3163C26.2907 13.3451 26.501 13.3871 26.7068 13.4426C26.6315 13.4913 26.5683 13.5544 26.5175 13.6319C26.3462 13.6161 26.1779 13.6056 26.0126 13.6003C26.0967 13.6845 26.1809 13.7687 26.265 13.8528C26.1809 13.9159 26.0967 13.979 26.0126 14.0421C26.0819 14.0907 26.0819 14.1433 26.0126 14.1999C25.7832 13.9531 25.5834 13.6796 25.413 13.3794C25.3773 13.1322 25.4088 12.9009 25.5077 12.6852Z" fill="#312D2E"/>
<path fill-rule="evenodd" clip-rule="evenodd" d="M26.517 13.6319C26.5678 13.5544 26.6309 13.4913 26.7063 13.4426C27.0064 13.3084 27.3114 13.1822 27.6214 13.0639C27.6701 13.073 27.7122 13.0941 27.7476 13.127C27.966 13.5113 28.2079 13.8795 28.4734 14.2314C28.5786 14.2735 28.6837 14.2735 28.7889 14.2314C29.1492 13.8323 29.3491 13.9059 29.3885 14.4523C29.0299 14.8004 28.6828 15.158 28.3472 15.5252C28.2404 15.636 28.1142 15.6676 27.9685 15.6199C27.4447 14.981 26.9609 14.3183 26.517 13.6319Z" fill="#F8F8F8"/>
<path fill-rule="evenodd" clip-rule="evenodd" d="M9.60364 21.2052C9.59796 21.3726 9.63999 21.5198 9.72986 21.647C10.2449 23.2215 10.2344 24.7993 9.6983 26.3803C8.95018 27.8432 7.78263 28.8004 6.19564 29.2519C4.28856 29.6609 2.65821 29.1666 1.30455 27.7687C0.3558 26.4784 -0.0754373 25.0268 0.0107722 23.4141C-0.00267042 22.6503 0.134091 21.9139 0.420993 21.2052C1.79063 18.0024 3.42104 14.952 5.31209 12.0541C6.33133 14.0504 7.35165 16.049 8.37297 18.0497C8.85186 19.0764 9.26208 20.1282 9.60364 21.2052Z" fill="#444444"/>
<path fill-rule="evenodd" clip-rule="evenodd" d="M32.4495 16.2827C32.7955 16.7212 33.1111 17.1841 33.3962 17.6711C33.2889 17.6632 33.1942 17.6211 33.1122 17.5449C32.8431 17.6428 32.7695 17.8216 32.8913 18.0813C32.8519 18.2129 32.7888 18.3286 32.702 18.4285C32.3709 17.9559 32.0553 17.4721 31.7553 16.9769C32.0864 17.1934 32.3177 17.1092 32.4495 16.7245C32.69 16.6463 32.69 16.6043 32.4495 16.5982C32.4495 16.493 32.4495 16.3879 32.4495 16.2827Z" fill="#2E2A2B"/>
<path fill-rule="evenodd" clip-rule="evenodd" d="M33.3963 17.6709C34.2632 19.0258 34.9995 20.4563 35.6052 21.9624C35.5849 22.0601 35.5218 22.1022 35.4159 22.0887C35.458 22.2149 35.5 22.3411 35.5421 22.4673C35.8646 22.5091 35.8646 22.5827 35.5421 22.6882C35.6756 22.715 35.7281 22.7886 35.6999 22.9091C35.6368 22.867 35.5736 22.825 35.5105 22.7829C35.4058 22.8669 35.3006 22.9511 35.195 23.0353C35.1154 22.9622 35.0418 22.9622 34.9741 23.0353C34.3339 21.4393 33.5766 19.9036 32.7021 18.4282C32.7889 18.3284 32.852 18.2127 32.8914 18.0811C32.7696 17.8213 32.8433 17.6426 33.1123 17.5447C33.1944 17.6208 33.289 17.6629 33.3963 17.6709Z" fill="#444444"/>
<path fill-rule="evenodd" clip-rule="evenodd" d="M2.28287 21.0159C2.28287 20.9738 2.26185 20.9528 2.21976 20.9528C2.27151 20.8493 2.32408 20.7441 2.37753 20.6372C2.40309 20.7808 2.37154 20.907 2.28287 21.0159Z" fill="#918E8F"/>
<path fill-rule="evenodd" clip-rule="evenodd" d="M2.2197 20.9529C2.26179 20.9529 2.28281 20.9739 2.28281 21.016C1.9706 22.3446 2.04418 23.649 2.5037 24.9289C3.14478 26.1861 4.17557 26.8383 5.59613 26.8853C5.99171 26.8797 6.38085 26.8481 6.76368 26.7907C5.80042 27.6271 4.70652 27.8585 3.48191 27.4849C2.57066 27.1244 1.95002 26.4828 1.62014 25.56C1.35325 24.6188 1.33223 23.6722 1.55703 22.72C1.73494 22.1124 1.95583 21.5233 2.2197 20.9529Z" fill="#F6F6F6"/>
<path fill-rule="evenodd" clip-rule="evenodd" d="M9.60366 21.2051C9.69353 21.3323 9.73556 21.4795 9.72988 21.6469C9.64001 21.5197 9.59798 21.3725 9.60366 21.2051Z" fill="#5B595A"/>
<path fill-rule="evenodd" clip-rule="evenodd" d="M24.3091 22.0257C24.3091 24.1083 24.3091 26.191 24.3091 28.2737C24.6877 28.2737 25.0664 28.2737 25.4451 28.2737C25.4451 29.4518 25.4451 30.6298 25.4451 31.8079C25.424 31.8079 25.403 31.8079 25.3819 31.8079C25.3819 31.7869 25.3819 31.7658 25.3819 31.7448C25.3819 30.6088 25.3819 29.4728 25.3819 28.3368C25.0033 28.3368 24.6246 28.3368 24.2459 28.3368C24.225 26.2223 24.2461 24.1186 24.3091 22.0257Z" fill="#8A8889"/>
<path fill-rule="evenodd" clip-rule="evenodd" d="M27.8425 21.71C29.1135 22.6768 30.0707 23.897 30.7141 25.3704C31.2575 26.7061 31.8255 28.0314 32.4181 29.3464C32.6424 29.7601 32.9685 30.0651 33.3963 30.2615C34.2973 30.4047 35.0231 30.1207 35.5736 29.4095C35.9063 28.7115 36.043 27.9753 35.9838 27.2007C35.9874 26.8705 35.9453 26.555 35.8576 26.254C35.6906 25.1454 35.3961 24.0726 34.9741 23.0353C35.0418 22.9623 35.1154 22.9623 35.1949 23.0353C35.3006 22.9511 35.4058 22.8669 35.5105 22.7829C35.5736 22.825 35.6367 22.867 35.6998 22.9091C35.7281 22.7886 35.6755 22.715 35.5421 22.6882C35.8646 22.5827 35.8646 22.5091 35.5421 22.4673C35.5 22.3411 35.4579 22.2149 35.4158 22.0887C35.5218 22.1022 35.5849 22.0601 35.6052 21.9624C36.4196 23.6988 36.8824 25.529 36.9936 27.4531C37.0424 28.408 36.8215 29.2915 36.3309 30.1038C35.5129 31.0639 34.4716 31.4531 33.207 31.2713C32.5071 31.0425 31.9707 30.6112 31.5976 29.9775C30.9565 28.6321 30.3674 27.2648 29.8305 25.8753C29.2079 24.5014 28.3138 23.3444 27.1483 22.4042C27.3557 22.3596 27.566 22.3386 27.7794 22.3411C27.7769 22.1277 27.7979 21.9174 27.8425 21.71Z" fill="#262223"/>
<path fill-rule="evenodd" clip-rule="evenodd" d="M35.8576 26.254C35.9453 26.555 35.9874 26.8705 35.9838 27.2007C35.8962 26.8997 35.8541 26.5841 35.8576 26.254Z" fill="#BCBBBC"/>
<path fill-rule="evenodd" clip-rule="evenodd" d="M8.34154 31.7448C14.0109 31.8079 19.6909 31.8289 25.3815 31.8079C25.4025 31.8079 25.4236 31.8079 25.4446 31.8079C19.733 31.892 14.0109 31.892 8.27843 31.8079C8.28626 31.7696 8.30727 31.7486 8.34154 31.7448Z" fill="#D7D6D7"/>
</svg>
