<svg width="24" height="24" viewBox="0 0 24 24" fill="none" xmlns="http://www.w3.org/2000/svg">
<g clip-path="url(#clip0_0_55)">
<path d="M9.87176 2.08087L9.54363 1.87508C8.90144 1.48133 8.09988 1.25258 7.41082 1.46727C6.67019 1.6979 6.07957 2.26837 5.77019 3.12524L5.32957 2.89837C4.57019 2.50743 4.17269 2.50133 3.84316 2.64946C3.58019 2.76712 3.30597 3.05024 2.99519 3.46368L6.85769 6.45008C7.46238 6.64696 8.34832 6.64227 9.23426 6.41258C10.1249 6.1829 11.0108 5.7329 11.6577 5.12821L13.1155 1.52352C11.8311 0.508678 10.6593 1.09649 9.87176 2.08087ZM12.3608 5.66727C11.5639 6.47352 10.378 7.01727 9.45457 7.26102C9.13113 7.3454 8.80769 7.40633 8.49363 7.43915C8.32019 7.72508 8.17488 8.01571 8.06238 8.30633C8.28738 9.45008 8.70926 10.3876 9.34207 11.1563L8.66707 11.7188C8.27801 11.2501 7.93113 10.7438 7.66863 10.1813C7.62644 11.2688 7.87019 12.3938 8.26863 13.5657L7.43894 13.847C6.70769 11.7095 6.45926 9.5204 7.48582 7.4579C7.13894 7.42977 6.81082 7.36415 6.50613 7.25633L6.49207 7.25165C6.29051 7.44383 6.09832 7.6454 5.91551 7.85633C4.43566 9.57196 3.62051 11.8548 4.04707 13.6313C4.27535 14.5829 4.68457 15.4829 5.27332 16.2516C6.13582 16.2329 6.95144 16.2516 7.69207 16.5329C8.04363 16.4954 8.40457 16.472 8.77957 16.472C10.1155 16.472 11.3249 16.7204 12.2389 17.1516C12.5952 17.3204 12.9186 17.522 13.1764 17.7516C13.1764 17.5032 13.2139 17.236 13.2889 17.0391C12.8718 16.6454 12.6093 16.1673 12.6093 15.6235C12.6093 14.8688 13.1108 14.2454 13.8374 13.7954C13.8374 13.5798 13.8796 13.3735 13.9546 13.1766C13.4811 12.7688 13.1764 12.2626 13.1764 11.672C13.1764 11.3016 13.2983 10.9641 13.5046 10.6595C13.2983 10.3595 13.1764 10.022 13.1764 9.65165C13.1764 9.46883 13.2046 9.30008 13.2561 9.13602C12.8014 8.7329 12.5155 8.23602 12.5155 7.66415C12.5155 7.09696 12.7968 6.60477 13.2468 6.20633C12.9702 5.99071 12.6749 5.8079 12.3608 5.66727ZM17.5827 5.77508C16.3639 5.77508 15.2624 6.0329 14.5077 6.41258C13.7483 6.79227 13.3921 7.26102 13.3921 7.66415C13.3921 8.07196 13.7483 8.54071 14.5077 8.9204C15.2624 9.30009 16.3639 9.5579 17.5827 9.5579C18.1124 9.5579 18.6139 9.50633 19.078 9.42196V8.62508C19.7296 8.52665 20.2686 8.34852 20.6155 8.11883V8.94383C21.2014 8.77508 21.7639 8.15165 21.778 7.66415C21.778 7.26102 21.4218 6.79227 20.6624 6.41258C19.903 6.0329 18.8061 5.77508 17.5827 5.77508ZM22.1061 8.94852C21.9514 9.11258 21.7686 9.26727 21.5624 9.4079L21.5718 10.7673C22.1624 10.4157 22.4389 10.0079 22.4389 9.65165C22.4389 9.42665 22.3311 9.1829 22.1061 8.94852ZM14.053 9.6704C14.0671 10.0735 14.4233 10.5282 15.1686 10.9032C15.928 11.2876 17.0249 11.5407 18.2483 11.5407C19.0124 11.5407 19.7296 11.4376 20.3436 11.2688L20.3764 9.99383C19.5702 10.2751 18.6139 10.4298 17.5827 10.4298C16.2468 10.4298 15.0327 10.1626 14.1139 9.70321C14.0905 9.69383 14.0718 9.67977 14.053 9.6704ZM14.1468 11.3016C14.0811 11.4282 14.053 11.5548 14.053 11.672C14.053 12.0798 14.4093 12.5485 15.1686 12.9282C15.928 13.3079 17.0249 13.561 18.2483 13.561C18.8671 13.561 19.453 13.5001 19.9827 13.3829V12.2579C19.4389 12.361 18.8577 12.4126 18.2483 12.4126C16.9077 12.4126 15.6936 12.1501 14.7749 11.686C14.5452 11.5735 14.3343 11.4423 14.1468 11.3016ZM22.3452 11.3016C22.0593 11.5032 21.8108 11.6532 21.5202 11.7798V12.8251C22.1436 12.4641 22.4389 12.0423 22.4389 11.672C22.4389 11.5548 22.4108 11.4282 22.3452 11.3016ZM22.6968 13.0266C22.603 13.1204 22.4999 13.2095 22.3874 13.2985V14.8173C22.8702 14.4891 23.1046 14.1282 23.1046 13.8001C23.1046 13.5516 22.9686 13.2845 22.6968 13.0266ZM14.7233 13.6829C14.7186 13.7251 14.7139 13.7626 14.7139 13.8001C14.7139 14.2079 15.0702 14.672 15.8296 15.0516C16.5889 15.436 17.6905 15.6891 18.9093 15.6891C19.6077 15.6891 20.2733 15.6048 20.8499 15.4641V14.0626C20.0858 14.3063 19.1999 14.4376 18.2483 14.4376C16.9077 14.4376 15.6936 14.1704 14.7749 13.711C14.7561 13.7016 14.7421 13.6923 14.7233 13.6829ZM14.0858 14.686C13.678 14.9907 13.4858 15.3235 13.4858 15.6235C13.4858 16.0313 13.8421 16.4954 14.6014 16.8798C15.3608 17.2595 16.4577 17.5126 17.6811 17.5126C18.1264 17.5126 18.5577 17.4798 18.9608 17.4188V16.5657H18.9093C17.5686 16.5657 16.3546 16.2985 15.4358 15.8345C14.8499 15.5438 14.3624 15.1548 14.0858 14.686ZM21.703 16.1204C21.3327 16.2516 20.9296 16.3595 20.4983 16.4298V16.997C20.5874 16.9595 20.6764 16.922 20.7608 16.8798C21.2202 16.6454 21.5296 16.3829 21.703 16.1204ZM22.1343 16.9735C21.9561 17.1516 21.7499 17.311 21.5202 17.4563V18.797C22.1436 18.4407 22.4389 18.0188 22.4389 17.6485C22.4389 17.4329 22.3405 17.1985 22.1343 16.9735ZM5.78894 17.1048C5.31082 17.1095 4.79519 17.1704 4.26082 17.297C3.1916 17.5454 2.27238 18.0001 1.67238 18.5016C1.07238 18.9985 0.838005 19.5048 0.908318 19.8657C0.97863 20.2266 1.34894 20.5595 2.07082 20.7516C2.79035 20.9391 3.79676 20.9485 4.86551 20.7001C5.29676 20.597 5.69988 20.4657 6.07019 20.311V19.3407C6.75457 19.036 7.26551 18.6704 7.49519 18.3141V19.4579C8.06238 18.9704 8.28269 18.4829 8.21707 18.1266C8.15144 17.7657 7.77644 17.4329 7.05457 17.2454C6.69363 17.1516 6.26238 17.1001 5.78894 17.1048ZM8.81707 17.3485C8.94363 17.5313 9.03269 17.7376 9.07957 17.9673C9.13113 18.2485 9.10769 18.5204 9.02332 18.7876C9.48738 18.9095 9.90926 19.0735 10.2749 19.2798C10.4811 19.3923 10.6733 19.5282 10.8421 19.6688C11.2639 19.5704 11.6202 19.4298 11.8733 19.261V20.2266C12.628 19.8704 12.9749 19.4345 12.9749 19.0876C12.9749 18.736 12.628 18.3001 11.8686 17.9438C11.1139 17.5923 10.0264 17.3532 8.81707 17.3485ZM14.0577 17.5829C14.053 17.6016 14.053 17.6251 14.053 17.6485C14.053 18.0563 14.4093 18.5204 15.1686 18.9048C15.928 19.2845 17.0249 19.5376 18.2483 19.5376C18.8671 19.5376 19.453 19.472 19.9827 19.3595V18.0985C19.2889 18.286 18.5061 18.3891 17.6811 18.3891C16.3405 18.3891 15.1264 18.122 14.2077 17.6626C14.1561 17.6345 14.1046 17.6063 14.0577 17.5829ZM14.1889 19.3313C14.0952 19.486 14.053 19.636 14.053 19.7813C14.053 20.1891 14.4093 20.6532 15.1686 21.0376C15.928 21.4173 17.0249 21.6704 18.2483 21.6704C18.8671 21.6704 19.453 21.6048 19.9827 21.4923V20.2548C19.4389 20.3579 18.8577 20.4141 18.2483 20.4141C16.9077 20.4141 15.6936 20.147 14.7749 19.6829C14.5639 19.5798 14.3671 19.4626 14.1889 19.3313ZM22.303 19.3313C22.0311 19.5141 21.7921 19.6595 21.5202 19.7766V20.9298C22.1436 20.5735 22.4389 20.1516 22.4389 19.7813C22.4389 19.636 22.3968 19.486 22.303 19.3313ZM8.58738 19.5845C8.42332 19.7907 8.23113 19.9876 8.01551 20.1657C7.28426 20.7798 6.25301 21.2766 5.06238 21.5532C4.63769 21.6516 4.21582 21.7126 3.81082 21.7454C3.96082 21.9938 4.22472 22.2376 4.61097 22.4532C5.24988 22.8141 6.18738 23.0579 7.22801 23.0579C7.70144 23.0579 8.15144 23.0063 8.56394 22.9173V21.9423C9.21082 21.8438 9.75457 21.6657 10.1014 21.436V22.2985C10.5702 21.9704 10.7952 21.6001 10.7952 21.2485C10.7952 20.8407 10.4905 20.4048 9.84832 20.0438C9.50144 19.8516 9.07019 19.6923 8.58738 19.5845Z" fill="#444444"/>
</g>
<defs>
<clipPath id="clip0_0_55">
<rect width="24" height="24" fill="white"/>
</clipPath>
</defs>
</svg>
