<svg width="45" height="22" viewBox="0 0 45 22" fill="none" xmlns="http://www.w3.org/2000/svg">
<path fill-rule="evenodd" clip-rule="evenodd" d="M5.20558 10.754L10.46 6.08887H16.1078V19.3481H8.2665C8.2665 17.4848 6.75569 15.9745 4.89238 15.9745C3.0296 15.9745 1.51878 17.4848 1.51878 19.3481H0.883877C0.397612 19.3481 0 18.9505 0 18.4642V14.4371C0.00265428 13.5957 0.341872 12.9215 1.32555 12.5706L5.20558 10.754ZM15.3858 11.3152V6.81083H10.7345L5.60637 11.3635L15.3858 11.3152Z" fill="#00C070"/>
<path fill-rule="evenodd" clip-rule="evenodd" d="M44.0472 4.04513e-05V19.3482H37.876C37.876 17.4849 36.3657 15.9746 34.5024 15.9746C32.6391 15.9746 31.1288 17.4849 31.1288 19.3482H17.3334V3.30087H10.1217V0C21.43 0 32.7389 4.04513e-05 44.0472 4.04513e-05ZM20.4421 5.77099H41.8526V6.85181H20.4421V5.77099ZM20.4421 3.7086H41.8526V4.78943H20.4421V3.7086Z" fill="#00C070"/>
<path fill-rule="evenodd" clip-rule="evenodd" d="M4.89248 16.6968C6.35764 16.6968 7.54465 17.8838 7.54465 19.3484C7.54465 20.813 6.35765 22.0001 4.89248 22.0001C3.42785 22.0001 2.24084 20.8131 2.24084 19.3484C2.24084 17.8838 3.42784 16.6968 4.89248 16.6968Z" fill="#00C070"/>
<path d="M34.5025 21.9999C35.9671 21.9999 37.1544 20.8127 37.1544 19.3481C37.1544 17.8836 35.9671 16.6963 34.5025 16.6963C33.038 16.6963 31.8507 17.8836 31.8507 19.3481C31.8507 20.8127 33.038 21.9999 34.5025 21.9999Z" fill="#00C070"/>
</svg>
