<svg width="35" height="12" viewBox="0 0 35 12" fill="none" xmlns="http://www.w3.org/2000/svg">
<path fill-rule="evenodd" clip-rule="evenodd" d="M10.408 3.88752C10.6315 3.91349 10.8833 3.9353 11.1623 3.95234C11.3317 3.9609 11.4979 3.96527 11.6542 3.96523L17.1231 0.987205C16.5832 0.682191 16.2785 0.47084 16.1402 0.320159C16.0389 0.209954 16.0233 0.130624 16.0685 0.0705406L9.61515 3.14394L9.61411 3.14435C9.37622 3.22963 9.23861 3.3095 9.18069 3.38315C9.13237 3.44472 9.14255 3.50223 9.19781 3.55515C9.25646 3.61131 9.36405 3.66274 9.50585 3.7088C9.73721 3.78394 10.0585 3.8443 10.408 3.88752ZM16.1662 0.0241146C16.1297 0.265485 16.8554 0.68404 17.5411 0.987341L14.1665 3.02526L18.6278 2.91352C18.7038 2.70546 18.8105 2.51854 18.8711 2.34672C18.9037 2.25432 18.9199 1.73633 18.9267 1.71407C19.1214 1.4178 19.2436 1.35595 19.4826 1.67783C19.6773 1.38156 19.943 1.33635 20.1819 1.65817C20.2458 2.05325 20.2893 2.46351 20.2791 2.87219L20.4121 2.86886C20.4251 2.00551 20.5705 1.32517 20.7477 1.32517C20.7846 1.32517 20.82 1.35469 20.8532 1.40901C20.8985 1.34509 20.9482 1.30975 21.0005 1.30975C21.0906 1.30975 21.1733 1.41496 21.2384 1.59061C22.5254 1.87935 23.482 2.17197 24.5799 2.71944C27.1002 2.72471 29.989 2.94846 31.7581 3.28259L31.9996 2.99403C32.9875 3.14656 33.867 3.46685 34.6122 3.99471L34.3104 4.45829L34.5703 6.29951C35.1268 7.5545 34.7656 7.93848 34.6747 8.74805C35.0489 8.95751 35.002 9.3067 34.9937 9.65097C34.3483 9.66404 33.3638 9.65823 32.6356 9.64719C32.7369 9.32563 32.7915 8.98338 32.7915 8.62834C32.7915 6.75611 31.2738 5.23838 29.4015 5.23838C27.5293 5.23838 26.0116 6.75611 26.0116 8.62834C26.0116 8.99168 26.0688 9.34158 26.1747 9.66968C25.3244 9.65818 24.0268 9.67319 23.2703 9.66458C22.102 9.67657 11.9155 9.66215 11.784 9.6626C11.8991 9.32261 11.9616 8.95841 11.9616 8.57957C11.9616 6.71401 10.4493 5.20169 8.58377 5.20169C6.71822 5.20169 5.2059 6.71405 5.2059 8.57957C5.2059 8.96459 5.27045 9.33451 5.38913 9.67923L0.437951 9.59842C0.143575 8.68337 -0.222424 7.95052 0.173188 6.5444C0.661517 6.06797 1.34294 5.32339 2.48272 5.00021C3.84467 3.57949 6.1195 2.36574 9.58955 3.12929L9.60555 3.12352L16.1642 0L16.169 0.0101866L16.1738 0.0203732L16.1662 0.0241146ZM18.6511 3.83398L12.7527 3.94558L12.7166 3.94612L12.7165 3.94616L14.093 3.11699L18.5973 3.00417C18.5223 3.24901 18.502 3.52261 18.6511 3.83398ZM20.276 2.96207C20.2633 3.24657 20.2232 3.52964 20.1444 3.80571L20.4226 3.80044C20.4017 3.72494 20.4112 3.52369 20.4112 2.99551L20.4113 2.95869L20.276 2.96207ZM20.4837 3.8891C21.469 4.73712 20.3703 7.0288 19.475 8.89576L19.4422 8.96396L19.4361 8.97662L19.422 8.97671L13.0561 9.02435L13.0398 9.02449L13.0347 9.00894L12.9922 8.88075L12.9923 8.88071C12.4672 7.29681 11.5613 4.5644 12.5446 4.02049L12.5499 4.0392L12.6099 4.03807C11.5888 4.50431 12.5064 7.27261 13.0349 8.86664H13.035L13.0723 8.97928L19.4078 8.93186L19.4344 8.87638C20.335 6.9986 21.4431 4.68763 20.4145 3.89041L20.4837 3.8891ZM21.1187 3.78728L21.124 3.78719L21.1233 3.78219L21.1187 3.78728ZM13.1846 9.12095L12.932 9.14015L24.6852 9.0551L24.7031 8.99456L23.1357 7.96922L25.2465 7.83612L25.8807 7.78465L22.9295 7.83017L22.4073 7.84554L23.4592 8.91505L13.1846 9.12095ZM1.22458 6.55819L1.98619 6.59957L3.57563 6.12769C3.90949 5.82141 3.49008 5.44888 2.81402 5.73036L1.22458 6.55819ZM0.51674 7.76265L0.721646 8.81278C0.753738 8.95079 0.765187 9.1218 1.02909 9.12735L1.94062 9.1534L1.25865 7.8784C1.21457 7.7938 1.14565 7.73412 1.01332 7.73786L0.51674 7.76265ZM0.0933174 6.86528L0.0796149 6.9314C0.337662 7.03074 0.597107 7.09046 0.866918 7.12139C1.13668 7.15235 1.41173 7.15262 1.69091 7.12927L5.5509 7.12364V7.05765L1.68821 7.06333H1.68546C1.41024 7.08636 1.13948 7.08609 0.874401 7.05571C0.609457 7.02533 0.34546 6.96232 0.0933174 6.86528ZM23.6939 4.21178L23.1416 5.06458H23.7639L24.3162 4.21178H23.6939Z" fill="#444444"/>
<path fill-rule="evenodd" clip-rule="evenodd" d="M8.58382 5.46509C10.2883 5.46509 11.6701 6.84687 11.6701 8.55138C11.6701 10.2559 10.2883 11.6377 8.58382 11.6377C6.87931 11.6377 5.49753 10.2559 5.49753 8.55138C5.49753 6.84687 6.87926 5.46509 8.58382 5.46509ZM8.70493 6.31405L8.48542 6.31306C7.55956 6.35309 6.77947 6.95514 6.47788 7.78675L6.41235 8.00067C6.36799 8.1765 6.34428 8.36058 6.34428 8.55025C6.34428 9.2649 6.67905 9.90143 7.20037 10.3114L7.39324 10.4472C7.7381 10.6641 8.14624 10.7897 8.58377 10.7897C9.02735 10.7897 9.44085 10.6608 9.78869 10.4383L9.98282 10.2988C10.4951 9.88845 10.8233 9.25769 10.8233 8.55025C10.8233 8.36396 10.8004 8.18308 10.7575 8.01004L10.6912 7.79098C10.3931 6.96402 9.62236 6.36296 8.70493 6.31405ZM8.7542 9.31786L8.74487 9.31114C8.69231 9.27328 8.52486 9.2534 8.43296 9.32124L7.70601 10.1085C7.96532 10.2549 8.26474 10.3386 8.58377 10.3386C8.90889 10.3386 9.21377 10.2518 9.47642 10.1001L8.7542 9.31786ZM7.42452 9.91175L7.96027 8.95637C7.97821 8.89295 7.949 8.73654 7.86246 8.66817L6.83113 8.1934C6.80778 8.30875 6.79547 8.42806 6.79547 8.55025C6.79552 9.09551 7.03964 9.58379 7.42452 9.91175ZM6.927 7.87631L8.01521 8.09338L8.01494 8.09329C8.02743 8.09519 8.04023 8.09618 8.05321 8.09618C8.17166 8.09618 8.27105 8.01446 8.29805 7.9043L8.43183 6.7684C7.74869 6.82595 7.17495 7.26736 6.927 7.87631ZM8.75871 6.77047L8.89203 7.9025C8.89366 7.90921 8.89555 7.91602 8.89776 7.92269C8.93625 8.04033 9.05308 8.11038 9.17149 8.09406L10.2423 7.88046C9.99805 7.27624 9.43333 6.83601 8.75871 6.77047ZM10.3383 8.203L9.37847 8.64486V8.64491L9.37833 8.64495L9.35769 8.65446C9.34647 8.66023 9.33556 8.66695 9.32501 8.67457C9.22914 8.74425 9.19682 8.86883 9.23973 8.97381L9.75835 9.89868C10.1344 9.57086 10.372 9.0883 10.372 8.5503C10.3721 8.43139 10.3604 8.31533 10.3383 8.203ZM8.58382 6.08683C7.22273 6.08683 6.11932 7.1902 6.11932 8.55133C6.11932 9.91247 7.22268 11.0158 8.58382 11.0158C9.94496 11.0158 11.0483 9.91247 11.0483 8.55133C11.0483 7.1902 9.94491 6.08683 8.58382 6.08683Z" fill="#444444"/>
<path fill-rule="evenodd" clip-rule="evenodd" d="M29.4198 5.46796C31.1243 5.46796 32.5061 6.84974 32.5061 8.55425C32.5061 10.2587 31.1243 11.6405 29.4198 11.6405C27.7152 11.6405 26.3334 10.2588 26.3334 8.55425C26.3334 6.84974 27.7152 5.46796 29.4198 5.46796ZM29.5409 6.31692L29.3214 6.31597C28.3955 6.356 27.6154 6.95805 27.3139 7.78962L27.2483 8.00354C27.204 8.17937 27.1803 8.3635 27.1803 8.55312C27.1803 9.26777 27.515 9.90434 28.0363 10.3143L28.2292 10.4501C28.5741 10.667 28.9822 10.7926 29.4197 10.7926C29.8633 10.7926 30.2768 10.6637 30.6246 10.4411L30.8187 10.3018C31.331 9.89136 31.6592 9.2606 31.6592 8.55312C31.6592 8.36683 31.6363 8.18595 31.5934 8.01296L31.527 7.79385C31.2291 6.96693 30.4583 6.36587 29.5409 6.31692ZM29.5902 9.32082L29.5808 9.31406C29.5283 9.27619 29.3608 9.25636 29.2689 9.32415L28.542 10.1115C28.8013 10.2578 29.1007 10.3415 29.4198 10.3415C29.7449 10.3415 30.0498 10.2547 30.3124 10.1031L29.5902 9.32082ZM28.2605 9.91466L28.7963 8.95923C28.8142 8.89582 28.785 8.73946 28.6985 8.67108L27.6671 8.19632C27.6437 8.31161 27.6315 8.43093 27.6315 8.55312C27.6315 9.09842 27.8756 9.58666 28.2605 9.91466ZM27.7629 7.87918L28.8512 8.0963L28.8509 8.09621C28.8634 8.0981 28.8762 8.09909 28.8892 8.09909C29.0077 8.09909 29.107 8.01737 29.134 7.90717L29.2678 6.77131C28.5846 6.82882 28.0109 7.27028 27.7629 7.87918ZM29.5946 6.77338L29.728 7.90545C29.7296 7.91217 29.7315 7.91893 29.7337 7.9256C29.7722 8.04325 29.889 8.11334 30.0074 8.09702L31.0782 7.88341C30.834 7.2792 30.2692 6.83887 29.5946 6.77338ZM31.1742 8.20592L30.2144 8.64778L30.2142 8.64787L30.1936 8.65738C30.1824 8.66315 30.1715 8.66982 30.1609 8.67748C30.065 8.74712 30.0327 8.8717 30.0756 8.97668L30.5943 9.90155C30.9703 9.57377 31.2079 9.09121 31.2079 8.55317C31.208 8.43435 31.1964 8.31824 31.1742 8.20592ZM29.4198 6.08979C28.0587 6.08979 26.9553 7.19315 26.9553 8.55429C26.9553 9.91543 28.0586 11.0188 29.4198 11.0188C30.7809 11.0188 31.8843 9.91543 31.8843 8.55429C31.8843 7.19315 30.7809 6.08979 29.4198 6.08979Z" fill="#444444"/>
</svg>
