<svg width="23" height="17" viewBox="0 0 23 17" fill="none" xmlns="http://www.w3.org/2000/svg">
<path d="M22.9543 8.17289C22.0526 5.84036 20.4871 3.82318 18.4514 2.37066C16.4157 0.918151 13.999 0.0939751 11.5 0C9.00098 0.0939751 6.58428 0.918151 4.54859 2.37066C2.51289 3.82318 0.947423 5.84036 0.0456751 8.17289C-0.015225 8.34134 -0.015225 8.52579 0.0456751 8.69424C0.947423 11.0268 2.51289 13.0439 4.54859 14.4965C6.58428 15.949 9.00098 16.7731 11.5 16.8671C13.999 16.7731 16.4157 15.949 18.4514 14.4965C20.4871 13.0439 22.0526 11.0268 22.9543 8.69424C23.0152 8.52579 23.0152 8.34134 22.9543 8.17289ZM11.5 15.3337C7.43654 15.3337 3.14309 12.3207 1.58672 8.43356C3.14309 4.54646 7.43654 1.53337 11.5 1.53337C15.5634 1.53337 19.8569 4.54646 21.4133 8.43356C19.8569 12.3207 15.5634 15.3337 11.5 15.3337Z" fill="#444444"/>
</svg>
