<svg width="64" height="23" viewBox="0 0 64 23" fill="none" xmlns="http://www.w3.org/2000/svg">
<path d="M0.511066 16.7608L0.504964 17.519L0.732428 18.3235L1.19259 19.2168L2.97135 19.2307L2.98355 17.6551L3.16396 17.0144L3.07854 16.7809L2.99314 16.488L3.52563 15.559L1.68761 15.5442L0.74986 16.0331L0.511066 16.7608Z" fill="#00C070"/>
<path d="M3.52563 15.559L1.68761 15.5442" stroke="#00C070"/>
<path d="M1.68744 15.5442L0.749691 16.0331" stroke="#00C070"/>
<path d="M0.749673 16.0333L0.510879 16.761" stroke="#00C070"/>
<path d="M0.510916 16.761L0.504815 17.5192" stroke="#00C070"/>
<path d="M0.504829 17.5193L0.732293 18.3238" stroke="#00C070"/>
<path d="M0.732264 18.324L1.19243 19.2173" stroke="#00C070"/>
<path d="M1.19244 19.2169L2.9712 19.2307" stroke="#00C070"/>
<path d="M2.9712 19.231L2.98341 17.6554" stroke="#00C070"/>
<path d="M2.98346 17.6551L3.16386 17.0144" stroke="#00C070"/>
<path d="M3.16386 17.0148L3.07845 16.7812" stroke="#00C070"/>
<path d="M3.07844 16.7812L2.99303 16.4884" stroke="#00C070"/>
<path d="M2.99301 16.488L3.52551 15.559" stroke="#00C070"/>
<path d="M43.5268 17.839C43.5084 20.2375 45.4033 22.1965 47.7595 22.2145C50.1156 22.2326 52.0405 20.3031 52.0587 17.9048C52.0773 15.5063 50.1824 13.5474 47.8263 13.5292C45.4702 13.5113 43.5452 15.4406 43.5268 17.839Z" fill="#00C070" stroke="#00C070"/>
<path d="M61.1301 17.1775L61.1318 17.249H64V15.1949H63.3856L63.3934 14.0863L63.4021 12.9777L63.4309 9.24415L63.3141 7.30067L63.1886 6.5869L62.4783 4.10222L61.1292 1.29071L61.1318 0.955179L57.2554 0.444473L49.4832 0.150772L38.7043 0.067978L29.807 0L20.8191 0.310259L18.3666 0.626619L17.0507 0.981325L10.9649 7.11853L10.0568 7.56387L8.12809 8.03013L3.42104 9.3069L2.01529 9.99627L1.21873 11.2007L1.71287 15.187L3.69818 14.9691L4.20105 14.1124L5.19806 13.4928L7.32891 13.2461L9.13818 13.2601L10.3609 13.532L11.547 14.7957L12.6704 16.6721L13.2413 18.3096L13.2378 18.7471L42.6793 18.0691L42.6828 17.6028L43.2806 15.7692L44.0807 14.1124L45.1082 13.2453L45.8978 13.0178L48.4077 12.8627L50.3608 13.0527L51.6079 13.9956L52.557 15.8406L52.6616 17.3876L61.1301 17.1775Z" fill="#00C070"/>
<path d="M3.54935 17.8224C3.53123 20.1758 5.39043 22.0978 7.70212 22.1155C10.0139 22.1332 11.9025 20.24 11.9204 17.887C11.9387 15.5336 10.0794 13.6115 7.76775 13.5938C5.45614 13.5761 3.56748 15.4691 3.54935 17.8224Z" fill="#00C070" stroke="#00C070"/>
</svg>
