<svg width="20" height="20" viewBox="0 0 20 20" fill="none" xmlns="http://www.w3.org/2000/svg">
<path d="M8.36083 12.75H7.0275V8.4175H8.36083V12.75ZM7.69417 7.86167C7.21333 7.86167 6.9725 7.63917 6.9725 7.195C6.97101 7.10586 6.98886 7.01746 7.02483 6.93589C7.06079 6.85432 7.11402 6.78152 7.18083 6.7225C7.31979 6.59286 7.50419 6.52311 7.69417 6.52833C8.175 6.52833 8.41583 6.75167 8.41583 7.19583C8.41583 7.64 8.17583 7.86167 7.69417 7.86167ZM13.3058 12.75H11.945V10.3333C11.945 9.70417 11.7217 9.38917 11.2775 9.38917C10.9258 9.38917 10.695 9.565 10.5825 9.91667C10.5467 9.9725 10.5275 10.0842 10.5275 10.25V12.75H9.16667V9.80583C9.16667 9.13917 9.15667 8.67667 9.13917 8.4175H10.3058L10.3892 9C10.695 8.53667 11.1392 8.30583 11.75 8.30583C12.2142 8.30583 12.5883 8.4675 12.875 8.79167C13.1633 9.11583 13.3067 9.58333 13.3067 10.195V12.75H13.3058ZM10 17.5C5.86417 17.5 2.5 14.1358 2.5 10C2.5 5.86417 5.86417 2.5 10 2.5C14.1358 2.5 17.5 5.86417 17.5 10C17.5 14.1358 14.1358 17.5 10 17.5ZM10 4.16667C6.78417 4.16667 4.16667 6.78417 4.16667 10C4.16667 13.2158 6.78417 15.8333 10 15.8333C13.2158 15.8333 15.8333 13.2158 15.8333 10C15.8333 6.78417 13.2158 4.16667 10 4.16667Z" fill="#444444"/>
</svg>
