<svg width="57" height="22" viewBox="0 0 57 22" fill="none" xmlns="http://www.w3.org/2000/svg">
<path d="M0.29076 16.809C0.461891 16.6949 0.347801 16.1815 0.347801 16.1815C0.347801 16.1815 -0.051506 13.6145 0.00553894 13.3863C0.00553894 13.1582 0.804153 12.2455 0.804153 12.2455C0.804153 12.2455 0.0625839 10.0207 0.633022 9.50735C1.14642 8.99395 3.42818 7.73898 4.96837 7.56785C6.50856 7.39671 15.0081 6.54105 15.0081 6.54105C15.0081 6.54105 23.3366 0.494382 30.353 0.152118C37.3694 -0.190147 44.4429 0.152118 44.4429 0.152118C44.4429 0.152118 46.8958 0.209162 51.117 2.66206L55.0531 5.85652L55.1101 5.91357C55.1671 5.97061 55.2242 6.02766 55.2812 6.0847C55.2242 6.02766 55.2242 6.02766 55.2812 6.0847C55.3383 6.19879 55.4524 6.31288 55.5094 6.48401C55.5665 6.54105 55.5665 6.5981 55.5665 6.65514C55.5665 6.71219 55.5665 6.71218 55.6235 6.76923C55.6805 6.88332 55.6805 6.94036 55.6805 7.05445V10.0778C55.6805 10.1919 55.6805 10.363 55.7376 10.4771C55.9087 10.6482 56.0799 10.7623 56.0799 10.7623C56.0799 10.7623 56.7073 11.1046 56.7073 11.3898C56.7073 11.3898 56.8785 14.5843 56.5362 15.554C56.5362 15.6111 56.4792 15.7251 56.4221 15.7251C56.1369 16.2385 55.4524 16.809 53.9692 17.0372C53.9692 17.0372 52.6572 17.4935 51.8586 17.4935C51.8015 17.4935 51.6875 17.4935 51.5734 17.4935C51.5163 14.8124 49.2916 12.6448 46.5535 12.6448C43.7583 12.6448 41.5336 14.8695 41.5336 17.6646C41.5336 17.9499 41.5907 18.2921 41.5907 18.5774C41.1914 18.6344 40.9061 18.6344 40.9061 18.6344L15.5215 18.8626C15.6356 18.4633 15.6927 18.064 15.6927 17.6646C15.6927 14.8695 13.4679 12.6448 10.6728 12.6448C7.87762 12.6448 5.6529 14.8695 5.6529 17.6646C5.6529 17.8928 5.6529 18.178 5.70995 18.4062L3.42818 18.2351C3.42818 18.2351 0.518932 17.9499 0.119625 17.1512C0.17667 17.0942 0.119629 16.9231 0.29076 16.809ZM45.2415 3.06136C45.2415 3.06136 44.3858 1.86344 43.4161 1.74935C42.3893 1.63526 40.3927 1.52118 40.3927 1.52118L40.1646 5.5713L45.2415 3.06136ZM39.5941 5.79948L39.9364 1.40709L33.4334 1.35004L32.977 6.02766L39.5941 5.79948ZM30.6382 6.19879L31.8361 1.40709C31.8361 1.40709 23.6218 1.17891 18.4308 6.88332L30.6382 6.19879ZM1.31755 10.5912C1.43164 10.7623 2.2873 11.4468 2.45843 11.5039C2.62956 11.5609 3.31409 11.618 3.7134 11.5039C4.16976 11.3898 4.62611 11.1046 4.68315 11.0475C4.7402 10.9905 6.56561 9.27917 6.56561 9.27917C6.56561 9.27917 2.05912 9.79257 1.31755 10.0778C1.31755 10.0207 1.20346 10.42 1.31755 10.5912Z" fill="#00C070"/>
<path d="M10.673 21.9999C8.21564 21.9999 6.22356 20.0079 6.22356 17.5505C6.22356 15.0932 8.21564 13.1011 10.673 13.1011C13.1304 13.1011 15.1224 15.0932 15.1224 17.5505C15.1224 20.0079 13.1304 21.9999 10.673 21.9999Z" fill="#00C070"/>
<path d="M46.4966 21.9999C44.0393 21.9999 42.0472 20.0079 42.0472 17.5505C42.0472 15.0932 44.0393 13.1011 46.4966 13.1011C48.954 13.1011 50.946 15.0932 50.946 17.5505C50.946 20.0079 48.954 21.9999 46.4966 21.9999Z" fill="#00C070"/>
</svg>
