<svg width="77" height="20" viewBox="0 0 77 20" fill="none" xmlns="http://www.w3.org/2000/svg">
<path d="M24.9167 2.97405L17.8766 5.68027C17.8766 5.68027 11.3653 3.39631 5.44176 10.544C-0.48177 17.6916 0.0099698 18.4417 0.0099698 18.4417H8.49545C7.6047 17.2591 7.12293 15.8188 7.12288 14.3383C7.12284 10.5711 10.1767 7.51726 13.9439 7.5173C17.711 7.51726 20.7649 10.5711 20.7649 14.3383C20.7648 15.8188 20.283 17.2591 19.3923 18.4417H51.1084H59.514C58.6233 17.2591 58.1415 15.8188 58.1415 14.3383C58.1414 10.5711 61.1953 7.51726 64.9624 7.5173C68.7296 7.51726 71.7835 10.5711 71.7834 14.3383C71.7834 15.2819 71.5875 16.2152 71.2082 17.0793L74.5327 16.638L76.0286 13.106C76.6083 11.7373 76.6983 10.2106 76.2835 8.7833L75.0768 4.6304C74.8472 3.84053 74.3545 3.15292 73.6802 2.68176C73.006 2.21059 72.1909 1.9842 71.3703 2.04019L59.0659 2.87959L50.3479 1.00159C41.8594 -0.826995 33.0218 -0.141552 24.9167 2.97405Z" fill="#00C070"/>
<path d="M13.9438 20.0001C17.0706 20.0001 19.6055 17.4653 19.6055 14.3384C19.6055 11.2116 17.0706 8.67676 13.9438 8.67676C10.8169 8.67676 8.2821 11.2116 8.2821 14.3384C8.2821 17.4653 10.8169 20.0001 13.9438 20.0001Z" fill="#00C070"/>
<path d="M64.9625 19.9688C68.0721 19.9688 70.5929 17.448 70.5929 14.3384C70.5929 11.2288 68.0721 8.70801 64.9625 8.70801C61.853 8.70801 59.3322 11.2288 59.3322 14.3384C59.3322 17.448 61.853 19.9688 64.9625 19.9688Z" fill="#00C070"/>
</svg>
