<svg width="23" height="23" viewBox="0 0 23 23" fill="none" xmlns="http://www.w3.org/2000/svg">
<path fill-rule="evenodd" clip-rule="evenodd" d="M3.46144 0H13.5028C14.2185 0 14.8037 0.585516 14.8037 1.30094V10.0033C16.2834 10.0784 17.5574 10.466 17.5574 12.453V16.9639C17.5574 19.7415 21.3263 19.4674 21.3263 17.1226V11.5767L19.7266 9.99584V7.58357L16.9701 4.82703C16.2998 4.15676 17.3187 3.13791 17.9889 3.80818L22.7671 8.58696V17.1226C22.7671 21.3644 16.1167 21.652 16.1167 16.9639V12.453C16.1167 11.6633 15.4743 11.4678 14.8037 11.4267V20.4587H15.9886C16.5253 20.4587 16.9642 20.8976 16.9642 21.4343V23H0V21.4343C0 20.8976 0.439214 20.4587 0.97586 20.4587H2.1605V1.30094C2.1605 0.585516 2.74571 0 3.46144 0ZM9.13381 5.04602C9.37785 4.13202 10.7682 4.5035 10.5235 5.41781L9.92501 7.6513C10.9262 8.07505 11.7023 8.92565 12.0252 9.97512H12.8705C13.139 9.97512 13.3586 9.75582 13.3586 9.48704V2.29814C13.3586 2.03029 13.139 1.81068 12.8705 1.81068H4.09366C3.8255 1.81068 3.60589 2.03029 3.60589 2.29814V9.48704C3.60589 9.75582 3.8255 9.97512 4.09366 9.97512H4.939C5.40512 8.46076 6.81525 7.35963 8.4821 7.35963L8.51396 7.35994L9.13381 5.04602ZM8.4821 8.80038C7.62656 8.80038 6.88144 9.27485 6.49605 9.97512H10.4682C10.0828 9.27485 9.33764 8.80038 8.4821 8.80038Z" fill="#FF8412" fill-opacity="0.97"/>
</svg>
