<svg width="35" height="18" viewBox="0 0 35 18" fill="none" xmlns="http://www.w3.org/2000/svg">
<path d="M4.35858 12.8877C3.00615 12.8877 1.90967 13.9842 1.90967 15.3366C1.90967 16.689 3.00615 17.7855 4.35858 17.7855C5.71127 17.7855 6.80776 16.689 6.80776 15.3366C6.80776 13.9842 5.71127 12.8877 4.35858 12.8877ZM4.35858 16.794C3.55385 16.794 2.90143 16.1416 2.90143 15.3369C2.90143 14.5321 3.55385 13.8797 4.35858 13.8797C5.1633 13.8797 5.81573 14.5321 5.81573 15.3369C5.81573 16.1416 5.1633 16.794 4.35858 16.794Z" fill="black"/>
<path d="M4.35861 15.8782C4.65777 15.8782 4.90029 15.6357 4.90029 15.3365C4.90029 15.0374 4.65777 14.7949 4.35861 14.7949C4.05944 14.7949 3.81693 15.0374 3.81693 15.3365C3.81693 15.6357 4.05944 15.8782 4.35861 15.8782Z" fill="black"/>
<path d="M4.37607 14.5215C4.48511 14.5215 4.57349 14.4331 4.57349 14.3241C4.57349 14.215 4.48511 14.1266 4.37607 14.1266C4.26704 14.1266 4.17865 14.215 4.17865 14.3241C4.17865 14.4331 4.26704 14.5215 4.37607 14.5215Z" fill="black"/>
<path d="M4.34104 16.5468C4.45007 16.5468 4.53846 16.4584 4.53846 16.3494C4.53846 16.2404 4.45007 16.152 4.34104 16.152C4.232 16.152 4.14362 16.2404 4.14362 16.3494C4.14362 16.4584 4.232 16.5468 4.34104 16.5468Z" fill="black"/>
<path d="M3.65503 14.8058C3.76407 14.8058 3.85245 14.7174 3.85245 14.6084C3.85245 14.4993 3.76407 14.4109 3.65503 14.4109C3.546 14.4109 3.45761 14.4993 3.45761 14.6084C3.45761 14.7174 3.546 14.8058 3.65503 14.8058Z" fill="black"/>
<path d="M5.06217 16.2625C5.1712 16.2625 5.25959 16.1741 5.25959 16.065C5.25959 15.956 5.1712 15.8676 5.06217 15.8676C4.95313 15.8676 4.86475 15.956 4.86475 16.065C4.86475 16.1741 4.95313 16.2625 5.06217 16.2625Z" fill="black"/>
<path d="M3.34604 15.5165C3.45508 15.5165 3.54346 15.4281 3.54346 15.3191C3.54346 15.21 3.45508 15.1216 3.34604 15.1216C3.23701 15.1216 3.14862 15.21 3.14862 15.3191C3.14862 15.4281 3.23701 15.5165 3.34604 15.5165Z" fill="black"/>
<path d="M5.37113 15.5515C5.48016 15.5515 5.56855 15.4631 5.56855 15.354C5.56855 15.245 5.48016 15.1566 5.37113 15.1566C5.26209 15.1566 5.17371 15.245 5.17371 15.354C5.17371 15.4631 5.26209 15.5515 5.37113 15.5515Z" fill="black"/>
<path d="M3.63041 16.2378C3.73944 16.2378 3.82783 16.1494 3.82783 16.0404C3.82783 15.9313 3.73944 15.843 3.63041 15.843C3.52137 15.843 3.43298 15.9313 3.43298 16.0404C3.43298 16.1494 3.52137 16.2378 3.63041 16.2378Z" fill="black"/>
<path d="M5.08701 14.8304C5.19604 14.8304 5.28443 14.7421 5.28443 14.633C5.28443 14.524 5.19604 14.4356 5.08701 14.4356C4.97798 14.4356 4.88959 14.524 4.88959 14.633C4.88959 14.7421 4.97798 14.8304 5.08701 14.8304Z" fill="black"/>
<path d="M21.8969 12.8877C20.5448 12.8877 19.448 13.9842 19.448 15.3366C19.448 16.689 20.5448 17.7855 21.8969 17.7855C23.2493 17.7855 24.3461 16.689 24.3461 15.3366C24.3461 13.9842 23.2493 12.8877 21.8969 12.8877ZM21.8969 16.794C21.0922 16.794 20.4398 16.1416 20.4398 15.3369C20.4398 14.5321 21.0922 13.8797 21.8969 13.8797C22.7016 13.8797 23.3541 14.5321 23.3541 15.3369C23.3541 16.1416 22.7016 16.794 21.8969 16.794Z" fill="black"/>
<path d="M21.8966 15.8782C22.1958 15.8782 22.4383 15.6357 22.4383 15.3365C22.4383 15.0374 22.1958 14.7949 21.8966 14.7949C21.5974 14.7949 21.3549 15.0374 21.3549 15.3365C21.3549 15.6357 21.5974 15.8782 21.8966 15.8782Z" fill="black"/>
<path d="M21.9143 14.5215C22.0234 14.5215 22.1118 14.4331 22.1118 14.3241C22.1118 14.215 22.0234 14.1266 21.9143 14.1266C21.8053 14.1266 21.7169 14.215 21.7169 14.3241C21.7169 14.4331 21.8053 14.5215 21.9143 14.5215Z" fill="black"/>
<path d="M21.8797 16.5468C21.9887 16.5468 22.0771 16.4584 22.0771 16.3494C22.0771 16.2404 21.9887 16.152 21.8797 16.152C21.7706 16.152 21.6823 16.2404 21.6823 16.3494C21.6823 16.4584 21.7706 16.5468 21.8797 16.5468Z" fill="black"/>
<path d="M21.1933 14.8058C21.3024 14.8058 21.3908 14.7174 21.3908 14.6084C21.3908 14.4993 21.3024 14.4109 21.1933 14.4109C21.0843 14.4109 20.9959 14.4993 20.9959 14.6084C20.9959 14.7174 21.0843 14.8058 21.1933 14.8058Z" fill="black"/>
<path d="M22.6004 16.2622C22.7093 16.2622 22.7976 16.1739 22.7976 16.065C22.7976 15.9561 22.7093 15.8679 22.6004 15.8679C22.4915 15.8679 22.4033 15.9561 22.4033 16.065C22.4033 16.1739 22.4915 16.2622 22.6004 16.2622Z" fill="black"/>
<path d="M20.884 15.5162C20.9929 15.5162 21.0812 15.428 21.0812 15.3191C21.0812 15.2102 20.9929 15.1219 20.884 15.1219C20.7752 15.1219 20.6869 15.2102 20.6869 15.3191C20.6869 15.428 20.7752 15.5162 20.884 15.5162Z" fill="black"/>
<path d="M22.9094 15.5518C23.0185 15.5518 23.1071 15.4633 23.1071 15.3541C23.1071 15.2449 23.0185 15.1564 22.9094 15.1564C22.8002 15.1564 22.7117 15.2449 22.7117 15.3541C22.7117 15.4633 22.8002 15.5518 22.9094 15.5518Z" fill="black"/>
<path d="M21.1687 16.2378C21.2777 16.2378 21.3661 16.1494 21.3661 16.0404C21.3661 15.9313 21.2777 15.843 21.1687 15.843C21.0596 15.843 20.9713 15.9313 20.9713 16.0404C20.9713 16.1494 21.0596 16.2378 21.1687 16.2378Z" fill="black"/>
<path d="M22.6253 14.8304C22.7344 14.8304 22.8228 14.7421 22.8228 14.633C22.8228 14.524 22.7344 14.4356 22.6253 14.4356C22.5163 14.4356 22.4279 14.524 22.4279 14.633C22.4279 14.7421 22.5163 14.8304 22.6253 14.8304Z" fill="black"/>
<path d="M28.893 12.8877C27.5409 12.8877 26.4444 13.9842 26.4444 15.3366C26.4444 16.689 27.5409 17.7855 28.893 17.7855C30.2457 17.7855 31.3422 16.689 31.3422 15.3366C31.3422 13.9842 30.2457 12.8877 28.893 12.8877ZM28.893 16.794C28.0883 16.794 27.4362 16.1416 27.4362 15.3369C27.4362 14.5321 28.0883 13.8797 28.893 13.8797C29.6978 13.8797 30.3505 14.5321 30.3505 15.3369C30.3505 16.1416 29.6978 16.794 28.893 16.794Z" fill="black"/>
<path d="M28.8933 15.8782C29.1925 15.8782 29.435 15.6357 29.435 15.3365C29.435 15.0374 29.1925 14.7949 28.8933 14.7949C28.5941 14.7949 28.3516 15.0374 28.3516 15.3365C28.3516 15.6357 28.5941 15.8782 28.8933 15.8782Z" fill="black"/>
<path d="M28.9105 14.5215C29.0195 14.5215 29.1079 14.4331 29.1079 14.3241C29.1079 14.215 29.0195 14.1266 28.9105 14.1266C28.8015 14.1266 28.7131 14.215 28.7131 14.3241C28.7131 14.4331 28.8015 14.5215 28.9105 14.5215Z" fill="black"/>
<path d="M28.8761 16.5468C28.9851 16.5468 29.0735 16.4584 29.0735 16.3494C29.0735 16.2404 28.9851 16.152 28.8761 16.152C28.767 16.152 28.6786 16.2404 28.6786 16.3494C28.6786 16.4584 28.767 16.5468 28.8761 16.5468Z" fill="black"/>
<path d="M28.1897 14.8058C28.2988 14.8058 28.3872 14.7174 28.3872 14.6084C28.3872 14.4993 28.2988 14.4109 28.1897 14.4109C28.0807 14.4109 27.9923 14.4993 27.9923 14.6084C27.9923 14.7174 28.0807 14.8058 28.1897 14.8058Z" fill="black"/>
<path d="M29.5969 16.2622C29.7058 16.2622 29.794 16.1739 29.794 16.065C29.794 15.9561 29.7058 15.8679 29.5969 15.8679C29.488 15.8679 29.3997 15.9561 29.3997 16.065C29.3997 16.1739 29.488 16.2622 29.5969 16.2622Z" fill="black"/>
<path d="M27.8808 15.5165C27.9898 15.5165 28.0782 15.4281 28.0782 15.3191C28.0782 15.21 27.9898 15.1216 27.8808 15.1216C27.7717 15.1216 27.6833 15.21 27.6833 15.3191C27.6833 15.4281 27.7717 15.5165 27.8808 15.5165Z" fill="black"/>
<path d="M29.9059 15.5515C30.0149 15.5515 30.1033 15.4631 30.1033 15.354C30.1033 15.245 30.0149 15.1566 29.9059 15.1566C29.7968 15.1566 29.7084 15.245 29.7084 15.354C29.7084 15.4631 29.7968 15.5515 29.9059 15.5515Z" fill="black"/>
<path d="M28.1649 16.2378C28.2739 16.2378 28.3623 16.1494 28.3623 16.0404C28.3623 15.9313 28.2739 15.843 28.1649 15.843C28.0559 15.843 27.9675 15.9313 27.9675 16.0404C27.9675 16.1494 28.0559 16.2378 28.1649 16.2378Z" fill="black"/>
<path d="M29.6217 14.8304C29.7308 14.8304 29.8192 14.7421 29.8192 14.633C29.8192 14.524 29.7308 14.4356 29.6217 14.4356C29.5127 14.4356 29.4243 14.524 29.4243 14.633C29.4243 14.7421 29.5127 14.8304 29.6217 14.8304Z" fill="black"/>
<path d="M34.0058 0H9.04447C8.4976 0 8.05025 0.447343 8.05025 0.994219V2.37508C2.56181 2.29086 2.1563 3.04692 1.75654 3.58531C1.20146 4.33262 0.599077 6.14551 0.410952 7.05743C-0.0897129 9.48692 0.0076309 15.3193 0.0076309 15.3193L1.36033 15.3366C1.36033 13.6806 2.70291 12.3383 4.35857 12.3383C6.01478 12.3383 7.35682 13.6806 7.35682 15.3366H9.31326V15.6365C9.31326 15.8594 9.49401 16.0407 9.71713 16.0407H15.2187C15.4418 16.0407 15.6226 15.8597 15.6226 15.6365V15.3366H18.8986C18.8986 13.6806 20.2407 12.3383 21.8969 12.3383C23.5528 12.3383 24.8951 13.6806 24.8951 15.3366H25.8948C25.8948 13.6806 27.2374 12.3383 28.893 12.3383C30.5495 12.3383 31.8918 13.6806 31.8918 15.3366H33.0534V14.324H32.3559V12.084H34.0058C34.5524 12.084 35 11.6364 35 11.0898V0.993945C35 0.44707 34.5524 0 34.0058 0ZM1.71279 7.76563H1.92142V5.04985H1.71279V4.64625C1.88177 4.25168 2.0617 3.89594 2.23834 3.64274L5.84525 3.47293L5.74709 6.27485C5.50564 6.06567 5.23193 5.88739 5.36209 5.52645C5.56635 4.95989 5.35498 4.50297 4.74795 4.46032C4.2347 4.42395 4.10072 5.05149 4.09334 5.45371C4.09006 5.64211 4.03263 5.99321 4.27326 6.07496C4.37717 6.11051 4.83052 6.15262 4.47834 6.36317C4.31427 6.46079 4.24728 6.36098 4.15076 6.53407C4.05424 6.70661 3.95717 6.88161 3.87158 7.06043C3.8292 7.14957 3.77943 7.26661 3.72584 7.39211L3.39334 7.40496L2.91482 7.95813L1.71251 8.00297L1.71279 7.76563ZM0.933764 7.05743C1.02072 6.63524 1.19708 6.02 1.41611 5.40696V8.01418L0.781186 8.03797C0.824663 7.67458 0.874975 7.34235 0.933764 7.05743ZM0.680014 12.5776V10.6641C1.12025 10.76 1.45001 11.1519 1.45001 11.6208C1.45001 12.0898 1.12052 12.4816 0.680014 12.5776ZM6.19908 7.27973L6.17721 8.34204L6.17447 8.48122L6.03228 8.48833L5.45314 8.51704L4.87373 8.53372L3.77259 8.56407C3.62521 8.73141 3.47701 8.89821 3.32416 9.06063L3.28396 9.10329H3.23474L2.00865 9.10192C1.59959 9.09044 1.19107 9.08907 0.78146 9.06883L0.780913 9.05133L3.22463 8.96712L3.69822 8.41751L3.70232 8.41258L3.70861 8.41231L6.01041 8.32126L6.15232 4.08953L6.16955 4.09008C6.1876 4.445 6.19088 4.79938 6.20045 5.15403C6.20892 5.50868 6.204 5.86278 6.20646 6.21743C6.20783 6.57153 6.20974 6.9259 6.19908 7.27973ZM9.31354 14.324H8.44674V13.5349H9.31354V14.324ZM14.2135 13.8521C13.9469 13.8521 13.7312 13.6363 13.7312 13.3697C13.7312 13.1034 13.9469 12.8877 14.2135 12.8877C14.4796 12.8877 14.6953 13.1034 14.6953 13.3697C14.6953 13.6363 14.4796 13.8521 14.2135 13.8521ZM18.6955 14.324H15.6226V13.5349H19.0649C18.9093 13.7785 18.7843 14.0432 18.6955 14.324ZM25.6919 14.324H25.0983C25.0097 14.0432 24.8844 13.7785 24.7289 13.5349H26.0613C25.906 13.7785 25.7805 14.0432 25.6919 14.324ZM34.4739 11.0898C34.4739 11.3479 34.2639 11.5579 34.0058 11.5579H9.04447C8.78635 11.5579 8.57635 11.3479 8.57635 11.0898V0.993945C8.57635 0.73582 8.78635 0.525821 9.04447 0.525821H34.0058C34.2639 0.525821 34.4739 0.73582 34.4739 0.993945V11.0898Z" fill="black"/>
<path d="M33.5795 1.38336H9.47105C9.37425 1.38336 9.29578 1.46184 9.29578 1.55864C9.29578 1.65543 9.37425 1.73418 9.47105 1.73418H33.5792C33.676 1.73418 33.7545 1.65571 33.7545 1.55864C33.7545 1.46184 33.676 1.38336 33.5795 1.38336Z" fill="black"/>
<path d="M33.5795 2.50415H9.47105C9.37425 2.50415 9.29578 2.58263 9.29578 2.6797C9.29578 2.77649 9.37425 2.85497 9.47105 2.85497H33.5792C33.676 2.85497 33.7545 2.77649 33.7545 2.6797C33.7545 2.58263 33.676 2.50415 33.5795 2.50415Z" fill="black"/>
<path d="M33.5795 3.62469H9.47105C9.37425 3.62469 9.29578 3.70317 9.29578 3.80024C9.29578 3.89704 9.37425 3.97579 9.47105 3.97579H33.5792C33.676 3.97579 33.7545 3.89704 33.7545 3.80024C33.7545 3.70317 33.676 3.62469 33.5795 3.62469Z" fill="black"/>
<path d="M33.5795 5.86664H9.47105C9.37425 5.86664 9.29578 5.94512 9.29578 6.04219C9.29578 6.13898 9.37425 6.21746 9.47105 6.21746H33.5792C33.676 6.21746 33.7545 6.13898 33.7545 6.04219C33.7545 5.94512 33.676 5.86664 33.5795 5.86664Z" fill="black"/>
<path d="M33.5795 6.98712H9.47105C9.37425 6.98712 9.29578 7.0656 9.29578 7.16267C9.29578 7.25974 9.37425 7.33822 9.47105 7.33822H33.5792C33.676 7.33822 33.7545 7.25974 33.7545 7.16267C33.7545 7.0656 33.676 6.98712 33.5795 6.98712Z" fill="black"/>
<path d="M33.5795 8.10828H9.47105C9.37425 8.10828 9.29578 8.18675 9.29578 8.28355C9.29578 8.38035 9.37425 8.4591 9.47105 8.4591H33.5792C33.676 8.4591 33.7545 8.38062 33.7545 8.28355C33.7545 8.18675 33.676 8.10828 33.5795 8.10828Z" fill="black"/>
<path d="M33.5795 4.74579H9.47105C9.37425 4.74579 9.29578 4.82427 9.29578 4.92134C9.29578 5.01813 9.37425 5.09661 9.47105 5.09661H33.5792C33.676 5.09661 33.7545 5.01813 33.7545 4.92134C33.7545 4.82427 33.676 4.74579 33.5795 4.74579Z" fill="black"/>
<path d="M33.5795 9.22876H9.47105C9.37425 9.22876 9.29578 9.30724 9.29578 9.40431C9.29578 9.50138 9.37425 9.57985 9.47105 9.57985H33.5792C33.676 9.57985 33.7545 9.50138 33.7545 9.40431C33.7545 9.30724 33.676 9.22876 33.5795 9.22876Z" fill="black"/>
<path d="M33.5795 10.3499H9.47105C9.37425 10.3499 9.29578 10.4284 9.29578 10.5252C9.29578 10.622 9.37425 10.7007 9.47105 10.7007H33.5792C33.676 10.7007 33.7545 10.6223 33.7545 10.5252C33.7545 10.4284 33.676 10.3499 33.5795 10.3499Z" fill="black"/>
</svg>
