<svg width="35" height="11" viewBox="0 0 35 11" fill="none" xmlns="http://www.w3.org/2000/svg">
<path d="M9.43561 8.40615C9.43561 9.6816 8.40056 10.717 7.12474 10.717C5.84818 10.717 4.8135 9.68197 4.8135 8.40615C4.8135 7.12959 5.84818 6.09454 7.12474 6.09454C8.40056 6.09454 9.43561 7.12959 9.43561 8.40615ZM8.57344 8.40615C8.57344 7.60594 7.92422 6.95597 7.12511 6.95597C6.32379 6.95597 5.6753 7.60594 5.6753 8.40615C5.6753 9.20637 6.32379 9.85596 7.12511 9.85596C7.92422 9.85596 8.57344 9.20637 8.57344 8.40615Z" fill="#444444"/>
<path d="M8.35529 8.40617C8.35529 9.08619 7.80511 9.6371 7.1251 9.6371C6.44545 9.6371 5.89269 9.08619 5.89269 8.40617C5.89269 7.72541 6.44545 7.1745 7.1251 7.1745C7.80511 7.1745 8.35529 7.72541 8.35529 8.40617ZM8.21023 8.40617C8.21023 7.80629 7.7235 7.32104 7.1251 7.32104C6.52447 7.32104 6.03848 7.80629 6.03848 8.40617C6.03848 9.00531 6.52447 9.49093 7.1251 9.49093C7.72313 9.49093 8.21023 9.00531 8.21023 8.40617Z" fill="#444444"/>
<path d="M7.1251 9.1522C6.71307 9.1522 6.37905 8.81818 6.37905 8.40615C6.37905 7.99411 6.71307 7.6601 7.1251 7.6601C7.53714 7.6601 7.87115 7.99411 7.87115 8.40615C7.87115 8.81818 7.53714 9.1522 7.1251 9.1522Z" fill="#444444"/>
<path d="M31.0763 8.40617C31.0763 9.08619 30.5246 9.6371 29.8446 9.6371C29.1646 9.6371 28.6133 9.08619 28.6133 8.40617C28.6133 7.72541 29.1646 7.1745 29.8446 7.1745C30.5246 7.1745 31.0763 7.72541 31.0763 8.40617ZM30.9301 8.40617C30.9301 7.80629 30.4438 7.32104 29.8446 7.32104C29.2451 7.32104 28.7591 7.80629 28.7591 8.40617C28.7591 9.00531 29.2455 9.49093 29.8446 9.49093C30.4438 9.49093 30.9301 9.00531 30.9301 8.40617Z" fill="#444444"/>
<path d="M29.8446 9.1522C29.4326 9.1522 29.0985 8.81818 29.0985 8.40615C29.0985 7.99411 29.4326 7.6601 29.8446 7.6601C30.2566 7.6601 30.5906 7.99411 30.5906 8.40615C30.5906 8.81818 30.2566 9.1522 29.8446 9.1522Z" fill="#444444"/>
<path d="M34.7854 7.88121C34.5844 7.96913 34.4931 8.00401 34.4931 8.00401L34.4219 7.87564L33.7092 8.08414L33.1939 8.29634L33.2384 9.15146C33.2384 9.15146 33.2536 9.44232 33.1075 9.45864C32.9613 9.47422 32.6014 9.21453 32.4738 9.23123C32.4119 9.23902 32.2193 9.21082 32.0361 9.13625C31.7311 10.0548 30.8649 10.717 29.8439 10.717C28.5681 10.717 27.533 9.68197 27.533 8.40615C27.533 8.2841 27.5434 8.16501 27.5612 8.04852H27.3019C27.2366 8.26666 27.2088 8.41061 27.2088 8.41061C27.2088 8.41061 26.9298 8.86172 26.6924 8.89437C26.4553 8.92665 10.638 9.30357 10.638 9.30357C10.638 9.30357 10.0166 9.42191 9.84595 8.63765C9.67529 7.85264 9.21268 5.86231 7.02906 5.84932C4.84544 5.83634 3.48392 9.38407 3.48392 9.38407C3.48392 9.38407 0.908173 8.94668 0 7.47795L0.0575027 7.31546L0.00482178 7.196L0.18475 6.69814L0.478199 6.53824L0.37989 6.40988C0.37989 6.40988 0.57169 5.66494 3.62675 4.49003C6.68181 3.31401 11.2327 3.28767 11.2327 3.28767L13.7376 1.14004L13.7398 0.921898L13.8329 0.777214L14.0522 0.798731C14.0522 0.798731 15.2931 0.488588 16.2217 0.447779C16.3668 0.440731 16.6446 0.433682 17.0175 0.424778C17.2222 0.290853 17.6392 0.0608416 18.0981 0.0463731C18.2888 0.0400664 18.796 0.0385825 19.4163 0.0385825C19.4333 0.0152104 19.4626 0 19.4956 0L19.6077 0.00185532C19.6392 0.00259729 19.6663 0.0166944 19.6848 0.0385825C20.7307 0.0393245 21.9998 0.0448904 22.6423 0.0493422C22.6609 0.0341318 22.6843 0.0248565 22.7087 0.0248565L22.8219 0.0267118C22.8468 0.0274538 22.8686 0.0363565 22.885 0.0515669C22.9484 0.0515669 22.9948 0.0530515 23.0241 0.0530515L23.0931 0.053793C24.3244 0.0664065 25.0734 0.15396 25.4017 0.325355C25.4837 0.325355 25.5605 0.325726 25.6321 0.325726C27.6874 0.336855 29.4139 0.525686 29.4139 0.525686C29.4139 0.525686 30.8114 0.781666 31.1557 0.895559C31.4992 1.00945 31.6428 1.1571 31.7504 1.26803C31.842 1.36115 33.1995 3.77255 33.6176 4.51786C33.7997 4.53789 34.0453 4.5646 34.141 4.57722C34.3057 4.59799 34.4504 4.61728 34.4504 4.61728L34.3547 4.9623C34.3547 4.9623 34.39 5.05504 34.4378 5.19268C34.4552 5.186 34.4764 5.18192 34.4975 5.18266C34.5877 5.18378 34.66 5.25871 34.6589 5.34849L34.6578 5.45831C34.6567 5.5184 34.6226 5.57071 34.5725 5.59817C34.6649 5.88753 34.7465 6.19657 34.7357 6.33235C34.7135 6.62357 34.6738 6.82353 34.6738 6.82353H34.6704C34.8166 6.88103 34.9564 6.95338 34.9798 7.02757C35.0321 7.19303 34.988 7.79254 34.7854 7.88121ZM2.71339 6.7523C3.24018 6.74228 3.34517 5.79664 3.31253 5.45979C3.28211 5.12294 2.51454 5.38448 2.04747 5.55068C1.58114 5.71688 1.10813 6.41025 1.10813 6.41025C0.838425 6.7805 2.18547 6.76269 2.71339 6.7523ZM3.47873 7.3277L3.21941 7.00569C3.21941 7.00569 2.90073 6.9927 2.68334 6.99789C2.46371 7.00383 1.88312 6.93149 1.88312 6.93149L2.04079 7.29839C2.04079 7.29839 3.32254 7.46126 3.40416 7.45346C3.48578 7.44604 3.47873 7.3277 3.47873 7.3277ZM22.8308 0.340566C23.6091 0.332775 24.33 0.327581 24.9076 0.325726C24.5603 0.260803 23.9983 0.208124 23.0916 0.198849H23.0222C22.9944 0.198107 22.9499 0.198107 22.8916 0.197365C22.8775 0.212204 22.8586 0.222592 22.8378 0.22593L22.8308 0.340566ZM19.6121 0.38026C20.6053 0.365421 21.6859 0.352065 22.6835 0.341678L22.6861 0.223704C22.6661 0.219623 22.6486 0.209236 22.6345 0.195509C21.9861 0.190687 20.7102 0.185864 19.6644 0.185122C19.6526 0.193283 19.6388 0.19922 19.6236 0.201446L19.6121 0.38026ZM17.3176 0.418843C17.9008 0.407342 18.6505 0.394358 19.4686 0.382116L19.4719 0.199962C19.4589 0.196994 19.4474 0.1918 19.4381 0.184751C18.8097 0.184751 18.2944 0.186977 18.103 0.192912C17.8073 0.201445 17.5265 0.311257 17.3176 0.418843ZM13.6537 3.88644C13.6537 3.88644 14.8873 2.14801 15.065 1.81412C15.2427 1.4806 15.1432 1.48802 14.9819 1.29474C14.8209 1.10146 13.837 1.16081 13.837 1.16081L11.2946 3.36261C11.2946 3.36261 11.7469 3.61488 12.4536 3.7796C13.1603 3.94432 13.6537 3.88644 13.6537 3.88644ZM19.5012 4.63361C19.4207 4.59614 18.5552 4.63843 18.4465 4.64548C18.3378 4.65327 18.3252 4.82615 18.3252 4.82615L18.4083 4.84544L18.4547 4.77421L19.2178 4.82095C19.2178 4.82095 19.3242 5.04095 19.4886 4.94301C19.6529 4.84544 19.5828 4.67145 19.5012 4.63361ZM20.0165 8.71815C20.0165 8.71815 19.8462 7.26908 19.8188 6.65807C19.7909 6.04817 19.8844 4.62136 19.8844 4.62136C19.8844 4.62136 19.7023 5.92872 19.7186 6.66586C19.736 7.40338 20.0165 8.71815 20.0165 8.71815ZM20.0291 1.42124L19.9839 1.42013C19.9839 1.42013 16.7374 1.38266 16.2729 1.36745C15.8095 1.35113 15.752 1.53328 15.6867 1.59524C15.6226 1.6583 14.6354 3.27283 14.6354 3.27283L14.8991 3.87717C14.8991 3.87717 16.5081 4.00924 17.3354 4.04856C17.5925 4.06043 18.5107 4.09753 19.6555 4.14353L20.0291 1.42124ZM20.0948 4.16097C22.6008 4.26077 25.8651 4.38727 25.8651 4.38727L25.4492 1.60711L20.3715 1.43275L20.0948 4.16097ZM26.0535 4.87252C25.9716 4.83505 25.1068 4.87734 24.997 4.88513C24.8883 4.89292 24.8764 5.06543 24.8764 5.06543L24.9584 5.08472L25.004 5.01238L25.7683 5.0595C25.7683 5.0595 25.8747 5.27949 26.0394 5.18192C26.2042 5.08398 26.1341 4.90999 26.0535 4.87252ZM31.2945 8.40615C31.2945 7.60594 30.6452 6.95597 29.8446 6.95597C29.0444 6.95597 28.3959 7.60594 28.3959 8.40615C28.3959 9.20637 29.0444 9.85596 29.8446 9.85596C30.6452 9.85596 31.2945 9.20637 31.2945 8.40615ZM31.8773 3.82671C31.8773 3.82671 30.5632 2.23407 30.3295 1.96733C30.0969 1.69985 29.6599 1.73881 29.6599 1.73881L26.2402 1.64532C25.7401 1.64717 25.8265 1.96696 25.8265 1.96696C25.8265 1.96696 25.9994 3.23462 26.0754 3.65383C26.1515 4.07305 26.4694 4.05005 26.4694 4.05005C26.4694 4.05005 31.4091 4.12053 31.7641 4.13426C32.1195 4.1491 31.8773 3.82671 31.8773 3.82671ZM33.2035 4.01851L31.907 1.77183L31.3976 1.77294C31.3976 1.77294 31.1509 1.77888 31.1858 1.96103C31.2199 2.14355 32.2746 3.36892 32.2746 3.36892L32.8029 3.97659C32.8029 3.97659 32.8563 4.05005 33.0307 4.03484C33.2035 4.01851 33.2035 4.01851 33.2035 4.01851Z" fill="#444444"/>
</svg>
