<svg width="38" height="39" viewBox="0 0 38 39" fill="none" xmlns="http://www.w3.org/2000/svg">
<path d="M34.2835 6.99536L30.9929 21.0924H30.546C30.4647 18.6955 25.1509 16.7616 18.6103 16.7616C12.0696 16.7616 6.75579 18.6955 6.68267 21.0924H6.22766L2.93701 6.99536C3.44889 6.88161 3.88764 6.59715 4.20452 6.1909C6.02454 3.89971 11.9477 2.29907 18.6103 2.29907C25.2728 2.29907 31.2041 3.89971 33.016 6.18285C33.3329 6.59715 33.7716 6.88161 34.2835 6.99536Z" fill="#0066FF"/>
<path d="M36.6235 22.5549C36.1929 22.9206 35.2585 22.888 34.251 22.7011L33.5198 22.0592L31.9272 20.6617L32.3741 18.7199C33.8935 18.2404 35.9248 17.7772 36.6235 18.3704C37.4198 19.0448 37.4198 21.8805 36.6235 22.5549Z" fill="#0066FF"/>
<path d="M5.29348 20.6616L3.70097 22.0591L2.96971 22.701C1.9622 22.8879 1.02782 22.9204 0.597192 22.5548C-0.199064 21.8804 -0.199064 19.0447 0.597192 18.3704C1.29595 17.7772 3.32722 18.2404 4.8466 18.7199L5.29348 20.6616Z" fill="#0066FF"/>
<path d="M35.7299 36.2617V37.8138C35.7299 38.4718 35.2018 39 34.5436 39H31.448C30.7898 39 30.2617 38.4719 30.2617 37.8138V36.9769H33.9505C34.6411 36.9769 35.2668 36.7087 35.7299 36.2617Z" fill="#0066FF"/>
<path d="M6.95938 36.9769V37.8138C6.95938 38.4718 6.43125 39 5.77312 39H2.67747C2.02747 39 1.49121 38.4719 1.49121 37.8138V36.2617C1.95434 36.7086 2.57997 36.9768 3.2706 36.9768L6.95938 36.9769Z" fill="#0066FF"/>
<path d="M10.8753 25.5367L6.26025 21.9779L6.34963 21.9048H30.8711L30.9605 21.9779L26.3454 25.5367H10.8753Z" fill="#0066FF"/>
<path d="M11.4521 27.1616H25.7685C25.2323 29.7048 22.226 31.6548 18.6103 31.6548C14.9947 31.6548 11.9884 29.7048 11.4521 27.1616Z" fill="#0066FF"/>
<path d="M33.0567 28.031C33.0567 28.4778 32.691 28.8435 32.2441 28.8435C31.7891 28.8435 31.4316 28.4778 31.4316 28.031C31.4316 27.5841 31.7891 27.2185 32.2441 27.2185C32.691 27.2185 33.0567 27.5841 33.0567 28.031Z" fill="#0066FF"/>
<path d="M34.7146 24.1798L32.2446 22.0186L26.622 26.3492H26.6708C26.6708 29.7292 23.0633 32.4674 18.6107 32.4674C14.1582 32.4674 10.5507 29.7292 10.5507 26.3492H10.5994L4.97686 22.0186L2.50684 24.1798C1.86496 24.7486 1.49121 25.5611 1.49121 26.4142V34.3848C1.49121 35.368 2.28747 36.1643 3.2706 36.1643H33.9509C34.934 36.1643 35.7302 35.368 35.7302 34.3848V26.4142C35.7302 25.561 35.3565 24.7485 34.7146 24.1798ZM7.32501 28.486C7.32501 28.9979 6.91071 29.4123 6.39875 29.4123H3.5631C3.05131 29.4123 2.63685 28.9979 2.63685 28.486V27.576C2.63685 27.0641 3.05122 26.6498 3.5631 26.6498H5.67562C6.59375 26.6498 7.32501 27.3891 7.32501 28.2992V28.486ZM34.5846 28.486C34.5846 28.9979 34.1702 29.4123 33.6584 29.4123H30.8227C30.3108 29.4123 29.8964 28.9979 29.8964 28.486V28.2992C29.8964 27.3891 30.6277 26.6498 31.5458 26.6498H33.6584C34.1702 26.6498 34.5846 27.0641 34.5846 27.576V28.486ZM4.76561 27.2185C4.31061 27.2185 3.95311 27.5841 3.95311 28.031C3.95311 28.4778 4.31061 28.8435 4.76561 28.8435C5.21249 28.8435 5.57812 28.4778 5.57812 28.031C5.57812 27.5841 5.21249 27.2185 4.76561 27.2185Z" fill="#0066FF"/>
<path d="M25.7685 27.1616C25.2323 29.7048 22.226 31.6548 18.6103 31.6548C14.9947 31.6548 11.9884 29.7048 11.4521 27.1616H25.7685Z" fill="#0066FF"/>
<path d="M34.8097 4.75999L34.4715 6.20129C34.1572 6.13012 33.8665 5.95811 33.653 5.68527C31.66 3.17032 25.6159 1.48583 18.6109 1.48583C11.6059 1.48583 5.56171 3.1704 3.56871 5.68535C3.35527 5.95819 3.06463 6.1302 2.75027 6.20138L2.41211 4.75999C7.44193 -1.58666 29.7798 -1.58666 34.8097 4.75999Z" fill="#0066FF"/>
<path d="M5.57765 28.031C5.57765 28.4778 5.21202 28.8435 4.76514 28.8435C4.31014 28.8435 3.95264 28.4778 3.95264 28.031C3.95264 27.5841 4.31014 27.2185 4.76514 27.2185C5.21202 27.2185 5.57765 27.5841 5.57765 28.031Z" fill="#0066FF"/>
<path d="M33.0567 28.031C33.0567 28.4778 32.691 28.8435 32.2441 28.8435C31.7891 28.8435 31.4316 28.4778 31.4316 28.031C31.4316 27.5841 31.7891 27.2185 32.2441 27.2185C32.691 27.2185 33.0567 27.5841 33.0567 28.031Z" fill="#0066FF"/>
<path d="M5.57765 28.031C5.57765 28.4778 5.21202 28.8435 4.76514 28.8435C4.31014 28.8435 3.95264 28.4778 3.95264 28.031C3.95264 27.5841 4.31014 27.2185 4.76514 27.2185C5.21202 27.2185 5.57765 27.5841 5.57765 28.031Z" fill="#0066FF"/>
<path d="M33.0567 28.031C33.0567 28.4778 32.691 28.8435 32.2441 28.8435C31.7891 28.8435 31.4316 28.4778 31.4316 28.031C31.4316 27.5841 31.7891 27.2185 32.2441 27.2185C32.691 27.2185 33.0567 27.5841 33.0567 28.031Z" fill="#0066FF"/>
</svg>
