<svg width="20" height="20" viewBox="0 0 20 20" fill="none" xmlns="http://www.w3.org/2000/svg">
<path fill-rule="evenodd" clip-rule="evenodd" d="M15.7094 5.37603C15.7806 5.30485 15.8372 5.22034 15.8758 5.12731C15.9144 5.03428 15.9343 4.93456 15.9343 4.83384C15.9344 4.73312 15.9146 4.63337 15.8761 4.54029C15.8376 4.44721 15.7812 4.36263 15.71 4.29136C15.6389 4.2201 15.5543 4.16355 15.4613 4.12495C15.3683 4.08635 15.2686 4.06645 15.1678 4.06639C15.0671 4.06633 14.9674 4.0861 14.8743 4.12459C14.7812 4.16308 14.6966 4.21952 14.6254 4.2907L10 8.91603L5.37603 4.2907C5.23211 4.14677 5.0369 4.06592 4.83336 4.06592C4.62982 4.06592 4.43462 4.14677 4.2907 4.2907C4.14677 4.43462 4.06592 4.62983 4.06592 4.83336C4.06592 5.0369 4.14677 5.23211 4.2907 5.37603L8.91603 10L4.2907 14.624C4.21943 14.6953 4.1629 14.7799 4.12434 14.873C4.08577 14.9661 4.06592 15.0659 4.06592 15.1667C4.06592 15.2675 4.08577 15.3673 4.12434 15.4604C4.1629 15.5535 4.21943 15.6381 4.2907 15.7094C4.43462 15.8533 4.62982 15.9341 4.83336 15.9341C4.93415 15.9341 5.03394 15.9143 5.12705 15.8757C5.22016 15.8372 5.30477 15.7806 5.37603 15.7094L10 11.084L14.6254 15.7094C14.7693 15.8531 14.9644 15.9338 15.1678 15.9337C15.3713 15.9335 15.5663 15.8526 15.71 15.7087C15.8538 15.5648 15.9345 15.3696 15.9343 15.1662C15.9342 14.9628 15.8533 14.7678 15.7094 14.624L11.084 10L15.7094 5.37603Z" fill="#444444"/>
</svg>
