<svg width="20" height="20" viewBox="0 0 20 20" fill="none" xmlns="http://www.w3.org/2000/svg">
<path d="M6.50008 1.6665H13.5001C16.1667 1.6665 18.3334 3.83317 18.3334 6.49984V13.4998C18.3334 14.7817 17.8242 16.0111 16.9178 16.9175C16.0113 17.8239 14.782 18.3332 13.5001 18.3332H6.50008C3.83341 18.3332 1.66675 16.1665 1.66675 13.4998V6.49984C1.66675 5.21796 2.17597 3.98858 3.0824 3.08215C3.98882 2.17573 5.2182 1.6665 6.50008 1.6665ZM6.33341 3.33317C5.53777 3.33317 4.7747 3.64924 4.21209 4.21185C3.64949 4.77446 3.33341 5.53752 3.33341 6.33317V13.6665C3.33341 15.3248 4.67508 16.6665 6.33341 16.6665H13.6667C14.4624 16.6665 15.2255 16.3504 15.7881 15.7878C16.3507 15.2252 16.6667 14.4622 16.6667 13.6665V6.33317C16.6667 4.67484 15.3251 3.33317 13.6667 3.33317H6.33341ZM14.3751 4.58317C14.6513 4.58317 14.9163 4.69292 15.1117 4.88827C15.307 5.08362 15.4167 5.34857 15.4167 5.62484C15.4167 5.9011 15.307 6.16606 15.1117 6.36141C14.9163 6.55676 14.6513 6.6665 14.3751 6.6665C14.0988 6.6665 13.8339 6.55676 13.6385 6.36141C13.4432 6.16606 13.3334 5.9011 13.3334 5.62484C13.3334 5.34857 13.4432 5.08362 13.6385 4.88827C13.8339 4.69292 14.0988 4.58317 14.3751 4.58317ZM10.0001 5.83317C11.1052 5.83317 12.165 6.27216 12.9464 7.05356C13.7278 7.83496 14.1667 8.89477 14.1667 9.99984C14.1667 11.1049 13.7278 12.1647 12.9464 12.9461C12.165 13.7275 11.1052 14.1665 10.0001 14.1665C8.89501 14.1665 7.8352 13.7275 7.0538 12.9461C6.2724 12.1647 5.83341 11.1049 5.83341 9.99984C5.83341 8.89477 6.2724 7.83496 7.0538 7.05356C7.8352 6.27216 8.89501 5.83317 10.0001 5.83317ZM10.0001 7.49984C9.33704 7.49984 8.70115 7.76323 8.23231 8.23207C7.76347 8.70091 7.50008 9.3368 7.50008 9.99984C7.50008 10.6629 7.76347 11.2988 8.23231 11.7676C8.70115 12.2364 9.33704 12.4998 10.0001 12.4998C10.6631 12.4998 11.299 12.2364 11.7678 11.7676C12.2367 11.2988 12.5001 10.6629 12.5001 9.99984C12.5001 9.3368 12.2367 8.70091 11.7678 8.23207C11.299 7.76323 10.6631 7.49984 10.0001 7.49984Z" fill="#444444"/>
</svg>
