<svg width="20" height="20" viewBox="0 0 20 20" fill="none" xmlns="http://www.w3.org/2000/svg">
<path d="M10.0001 16.6665C11.7682 16.6665 13.4639 15.9641 14.7141 14.7139C15.9644 13.4636 16.6667 11.7679 16.6667 9.99984C16.6667 8.23173 15.9644 6.53603 14.7141 5.28579C13.4639 4.03555 11.7682 3.33317 10.0001 3.33317C8.23197 3.33317 6.53628 4.03555 5.28604 5.28579C4.03579 6.53603 3.33341 8.23173 3.33341 9.99984C3.33341 11.7679 4.03579 13.4636 5.28604 14.7139C6.53628 15.9641 8.23197 16.6665 10.0001 16.6665ZM10.0001 18.3332C5.39758 18.3332 1.66675 14.6023 1.66675 9.99984C1.66675 5.39734 5.39758 1.6665 10.0001 1.6665C14.6026 1.6665 18.3334 5.39734 18.3334 9.99984C18.3334 14.6023 14.6026 18.3332 10.0001 18.3332Z" fill="#444444"/>
<path d="M14.1668 7.45568C13.8602 7.58901 13.531 7.68068 13.1852 7.72068C13.5385 7.51235 13.8085 7.18235 13.9368 6.78985C13.6001 6.98607 13.2328 7.12411 12.8502 7.19818C12.6892 7.02949 12.4956 6.89535 12.2811 6.80394C12.0667 6.71254 11.8358 6.66578 11.6027 6.66651C10.6585 6.66651 9.8935 7.42068 9.8935 8.34985C9.8935 8.48151 9.9085 8.60985 9.93766 8.73318C9.26044 8.70102 8.59735 8.52805 7.9907 8.2253C7.38406 7.92255 6.84718 7.49668 6.41433 6.97485C6.2623 7.23076 6.18225 7.52301 6.18266 7.82068C6.18266 8.40401 6.48516 8.92068 6.9435 9.22151C6.6722 9.213 6.40671 9.14078 6.1685 9.01068V9.03151C6.17107 9.42273 6.30916 9.80096 6.55926 10.1018C6.80936 10.4027 7.156 10.6075 7.54016 10.6815C7.28796 10.7482 7.02407 10.7579 6.76766 10.7098C6.87943 11.0464 7.09322 11.3398 7.37935 11.5493C7.66547 11.7588 8.00973 11.8741 8.36433 11.879C7.75596 12.3478 7.00903 12.6011 6.241 12.599C6.1035 12.599 5.96766 12.5907 5.8335 12.5757C6.61722 13.0718 7.52596 13.3345 8.4535 13.3332C11.5985 13.3332 13.3177 10.7682 13.3177 8.54318L13.3118 8.32485C13.6471 8.08925 13.9368 7.79475 14.1668 7.45568Z" fill="#444444"/>
</svg>
