<svg width="390" height="45" viewBox="0 0 390 45" fill="none" xmlns="http://www.w3.org/2000/svg">
<g filter="url(#filter0_b_0_9)">
<rect y="4" width="23" height="41" fill="black" fill-opacity="0.2"/>
<rect x="0.5" y="4.5" width="22" height="40" stroke="white"/>
</g>
<path d="M6.16794 23.1972C5.58215 23.7829 5.58215 24.7327 6.16794 25.3185L15.7139 34.8644C16.2997 35.4502 17.2494 35.4502 17.8352 34.8644C18.421 34.2786 18.421 33.3289 17.8352 32.7431L9.34992 24.2578L17.8352 15.7725C18.421 15.1867 18.421 14.237 17.8352 13.6512C17.2494 13.0654 16.2997 13.0654 15.7139 13.6512L6.16794 23.1972ZM7.88574 22.7578H7.2286V25.7578H7.88574V22.7578Z" fill="white"/>
<g filter="url(#filter1_b_0_9)">
<rect width="23" height="45" transform="matrix(-1 0 0 1 390 0)" fill="black" fill-opacity="0.2"/>
<rect x="-0.5" y="0.5" width="22" height="44" transform="matrix(-1 0 0 1 389 0)" stroke="white"/>
</g>
<path d="M383.832 21.1747C384.418 21.7605 384.418 22.7102 383.832 23.296L374.286 32.842C373.7 33.4277 372.751 33.4277 372.165 32.842C371.579 32.2562 371.579 31.3064 372.165 30.7206L380.65 22.2354L372.165 13.7501C371.579 13.1643 371.579 12.2145 372.165 11.6287C372.751 11.043 373.7 11.043 374.286 11.6287L383.832 21.1747ZM382.114 20.7354H382.771V23.7354H382.114V20.7354Z" fill="white"/>
<defs>
<filter id="filter0_b_0_9" x="-20" y="-16" width="63" height="81" filterUnits="userSpaceOnUse" color-interpolation-filters="sRGB">
<feFlood flood-opacity="0" result="BackgroundImageFix"/>
<feGaussianBlur in="BackgroundImageFix" stdDeviation="10"/>
<feComposite in2="SourceAlpha" operator="in" result="effect1_backgroundBlur_0_9"/>
<feBlend mode="normal" in="SourceGraphic" in2="effect1_backgroundBlur_0_9" result="shape"/>
</filter>
<filter id="filter1_b_0_9" x="347" y="-20" width="63" height="85" filterUnits="userSpaceOnUse" color-interpolation-filters="sRGB">
<feFlood flood-opacity="0" result="BackgroundImageFix"/>
<feGaussianBlur in="BackgroundImageFix" stdDeviation="10"/>
<feComposite in2="SourceAlpha" operator="in" result="effect1_backgroundBlur_0_9"/>
<feBlend mode="normal" in="SourceGraphic" in2="effect1_backgroundBlur_0_9" result="shape"/>
</filter>
</defs>
</svg>
