<svg width="35" height="16" viewBox="0 0 35 16" fill="none" xmlns="http://www.w3.org/2000/svg">
<path d="M34.8752 12.1482L34.9002 11.7369C34.9002 11.7369 34.9969 11.4049 34.9999 11.151C35.0033 10.8974 34.938 9.81792 34.938 9.81792L34.8756 9.38206C34.8756 9.38206 34.7387 9.07848 34.4521 8.72149C34.4521 8.72149 34.3317 7.59028 34.2278 7.25193C34.2278 7.25193 33.8046 6.67276 33.0699 6.26828C33.0699 6.26828 33.005 6.11988 32.9452 6.04356L33.0071 5.99353L33.0945 6.11861C33.0945 6.11861 33.1029 6.12412 33.1157 6.12666C33.1195 6.12751 33.1182 6.12921 33.1229 6.12921C33.1318 6.12921 33.1436 6.12624 33.1568 6.11903C33.1966 6.09486 33.2441 6.01897 33.2441 6.01897C33.2441 6.01897 33.2492 5.94053 33.2191 5.88202C33.189 5.82351 33.1818 5.74889 33.0822 5.68274C33.0822 5.68274 33.0783 5.6802 33.0686 5.6802C33.0686 5.6802 33.0669 5.68062 33.066 5.68062L33.0576 5.68232C33.0444 5.68444 33.0253 5.6891 32.9952 5.70734C32.935 5.74295 32.9329 5.74465 32.9329 5.74465C32.9329 5.74465 32.9283 5.74295 32.921 5.74041C32.9177 5.73956 32.9134 5.73829 32.9092 5.73701C32.9024 5.73532 32.8965 5.73362 32.8871 5.73108C32.8803 5.72981 32.8731 5.72896 32.8647 5.72726C32.8558 5.72557 32.8468 5.7243 32.8367 5.72302C32.8278 5.72175 32.818 5.72133 32.8078 5.7209C32.8006 5.72048 32.7938 5.71963 32.7858 5.71963C32.7769 5.71963 32.768 5.71963 32.7591 5.72048C32.7591 5.72048 31.8573 4.30986 30.6904 3.35377C30.6904 3.35377 30.6756 3.34189 30.7031 3.32875C30.7311 3.31518 31.0869 3.16 31.164 3.02941V2.83056C31.164 2.83056 31.1789 2.75891 31.0521 2.74237C31.0381 2.7411 31.0135 2.73855 30.9843 2.73601C30.9754 2.73516 30.9643 2.73431 30.9546 2.73347C30.9317 2.73177 30.9071 2.73007 30.8787 2.72795C30.863 2.72711 30.8469 2.72626 30.8291 2.72499C30.8019 2.72329 30.7718 2.7216 30.7413 2.7199C30.7201 2.71863 30.7002 2.71736 30.6773 2.71651C30.6429 2.71481 30.6065 2.71269 30.5692 2.71142C30.5255 2.7093 30.481 2.7076 30.4343 2.70633C30.4051 2.70506 30.3763 2.70379 30.3466 2.70294C30.3131 2.70209 30.2804 2.70124 30.2461 2.70082C30.219 2.7004 30.191 2.69997 30.1634 2.69955C30.1299 2.69912 30.0973 2.6987 30.065 2.69828C30.0557 2.69828 30.0455 2.69828 30.0362 2.69828C30.0294 2.69828 30.0239 2.6987 30.0171 2.6987C29.912 2.69912 29.8094 2.70082 29.7199 2.70591C29.7199 2.70591 29.6792 2.70633 29.6453 2.7182L29.6203 2.73092L29.234 2.7182C29.234 2.7182 28.7982 2.62747 28.4488 2.59397L28.4242 2.58125L28.3623 2.38156L28.3241 2.33237L28.5611 1.79645V1.75914L29.3214 0.30188C29.3214 0.30188 29.3485 0.254393 29.3705 0.239978L29.4706 0.0402788C29.4706 0.0402788 29.4931 0.0156874 29.4706 0.00339168C29.4659 0.000847735 29.4617 0 29.4579 0C29.4532 0 29.4498 0.00254381 29.4473 0.00466376L29.4414 0.00678336C29.4363 0.0110233 29.4329 0.0156879 29.4329 0.0156879L29.3209 0.227259L29.3082 0.27729L28.5366 1.74684L28.5111 1.77228L28.2245 2.25775C28.2245 2.25775 28.2156 2.25775 28.2029 2.25733C28.1999 2.25733 28.2008 2.25733 28.1974 2.25733C28.1965 2.25733 28.1944 2.25733 28.1944 2.25733C28.1745 2.25775 28.1482 2.25775 28.1138 2.26029C28.1138 2.26029 28.1092 2.26114 28.1066 2.26114C28.0761 2.26326 28.0409 2.2675 28.0032 2.27301C27.9943 2.27429 27.9871 2.27556 27.9782 2.2764C27.9379 2.28319 27.8959 2.29294 27.8518 2.30566C27.8429 2.3082 27.8336 2.3116 27.8243 2.31456C27.7785 2.3294 27.7322 2.34636 27.6886 2.36968L27.6267 2.38156L27.5521 2.46932C27.5521 2.46932 27.544 2.46805 27.5313 2.46635C27.5245 2.46551 27.5198 2.46466 27.5088 2.46339C27.4948 2.46127 27.4774 2.45914 27.4567 2.45618C27.4444 2.4549 27.435 2.45363 27.4202 2.45151C27.385 2.44685 27.3426 2.44134 27.2934 2.43498C27.2807 2.43328 27.2659 2.43116 27.2514 2.42989C27.2133 2.42523 27.1722 2.42014 27.1268 2.4142C27.1005 2.41081 27.0746 2.40784 27.0467 2.40445C26.9958 2.39851 26.9402 2.39173 26.8821 2.38537C26.8618 2.38325 26.8444 2.38071 26.8228 2.37816C26.7431 2.36926 26.6574 2.35993 26.5667 2.35018C26.5396 2.34721 26.5112 2.34424 26.4827 2.34128C26.4115 2.33364 26.3369 2.32601 26.2602 2.31838C26.2258 2.31499 26.1927 2.31117 26.1575 2.3082C26.052 2.29803 25.9426 2.287 25.8273 2.27683C25.8048 2.27513 25.781 2.27259 25.7586 2.27089C25.6602 2.26199 25.5589 2.25309 25.4546 2.24461C25.4113 2.24079 25.3681 2.2374 25.3236 2.23401C25.2265 2.22595 25.1277 2.21832 25.0263 2.21069C24.9878 2.20814 24.9504 2.20475 24.9114 2.20178C24.7749 2.19203 24.6341 2.18228 24.4896 2.1738C24.4506 2.17125 24.4107 2.16914 24.3717 2.16659C24.2602 2.15938 24.1474 2.15302 24.0317 2.14709C23.9795 2.14412 23.9282 2.14158 23.8752 2.13861C23.7357 2.1314 23.5937 2.12504 23.4491 2.11868C23.4304 2.11783 23.4126 2.11741 23.394 2.11656C23.235 2.1102 23.0717 2.10511 22.9072 2.0996C22.8547 2.09833 22.8017 2.09748 22.7482 2.09579C22.6219 2.09239 22.4938 2.08985 22.3654 2.08773C22.3149 2.08731 22.2657 2.08603 22.2153 2.08519C22.044 2.08307 21.871 2.08179 21.6955 2.08179C21.6861 2.08179 21.6764 2.08137 21.6671 2.08137C21.6565 2.08137 21.645 2.08179 21.6348 2.08179C21.3037 2.08222 20.9675 2.08688 20.6274 2.09621C20.5969 2.09706 20.5664 2.09791 20.5354 2.09875C20.1822 2.10935 19.8252 2.12504 19.4678 2.14794C19.4615 2.14836 19.4551 2.14878 19.4492 2.14878C19.0956 2.17168 18.742 2.20094 18.3892 2.23697C18.3608 2.23994 18.332 2.24291 18.3031 2.24588C17.9449 2.28361 17.5887 2.32813 17.2372 2.3824C17.1995 2.38876 16.0229 2.63256 15.6053 2.7941C15.6053 2.7941 15.5896 2.80046 15.5803 2.81869C15.5794 2.81996 15.5692 2.82378 15.5502 2.83098C15.5502 2.83098 15.5442 2.8331 15.5421 2.83395C15.4929 2.85176 15.3895 2.8878 15.2449 2.94122C15.2368 2.94377 15.2313 2.94589 15.2228 2.94928C14.413 3.24819 12.2702 4.10126 9.45147 5.8587C9.44935 5.8604 9.21446 5.99819 9.04232 6.10292L9.04063 6.10419C8.96728 6.14913 8.90495 6.18814 8.87909 6.20722H8.85365C8.85365 6.20722 8.84898 6.20044 8.84517 6.19789L8.8422 6.1945L8.84135 6.19535C8.84135 6.19535 8.82736 6.19704 8.81549 6.19662C8.80319 6.1962 8.79132 6.19535 8.79132 6.19535L8.77902 6.17033V6.1326L8.7273 6.06858C8.7273 6.06858 8.71755 6.06688 8.70313 6.06561C8.69804 6.06518 8.69889 6.06434 8.69168 6.06434C8.68956 6.06434 8.68532 6.06603 8.68278 6.06603C8.67091 6.06646 8.65734 6.06942 8.64207 6.07324C8.63317 6.07536 8.62596 6.07663 8.61706 6.08045C8.59204 6.08978 8.56618 6.10462 8.54032 6.13048C8.54032 6.13048 8.50767 6.16185 8.54032 6.20553C8.55304 6.2263 8.55304 6.23054 8.55304 6.23054L8.51573 6.29287C8.51573 6.29287 8.50343 6.30347 8.50343 6.33018H8.44153C8.44153 6.33018 8.23208 6.281 8.09258 6.28057L8.04298 6.21825C8.04298 6.21825 8.03577 6.21316 8.0239 6.21189C8.0222 6.21189 8.02262 6.21104 8.02262 6.21104C8.01075 6.21104 7.99676 6.21528 7.98023 6.23054C7.94291 6.26573 7.94291 6.28057 7.94291 6.28057L7.93062 6.39293L7.69361 6.40522C7.69361 6.40522 5.8679 6.69354 4.85372 6.96574C3.83869 7.23794 2.9411 7.497 2.52432 7.78786C2.52432 7.78786 2.4374 7.82305 2.30935 7.88029C2.30426 7.88283 2.30045 7.8841 2.29494 7.88665H2.29536C2.10584 7.97187 1.83109 8.10246 1.58942 8.24873L1.46519 8.27375L1.3028 8.38611C1.3028 8.38611 1.27185 8.43656 1.25319 8.44801C1.23454 8.45946 0.844888 8.7783 0.617629 9.03354C0.617629 9.03354 0.564631 9.07764 0.530288 9.18321C0.495944 9.28794 0.567599 9.33288 0.567599 9.33288L0.592614 9.35789L0.580319 9.38291H0.530711C0.530711 9.38291 0.0613539 9.72465 0.0198028 10.2296C-0.0162364 10.6854 0.00793115 11.0517 0.00793115 11.0517L0.14488 11.1891C0.14488 11.1891 0.17032 11.226 0.219503 11.2264V11.5872C0.219503 11.5872 0.132584 11.6173 0.131736 11.8743C0.131736 12.1308 0.144456 12.1613 0.144456 12.1613C0.144456 12.1613 0.151664 12.1906 0.219079 12.2105C0.287341 12.2309 0.717267 12.2478 0.717267 12.2478H0.77917C0.77917 12.2478 0.805034 12.272 0.667237 12.3229C0.52944 12.3742 0.219503 12.4717 0.156328 12.5594C0.0927294 12.6481 0.130888 12.6845 0.130888 12.6845C0.130888 12.6845 0.0443942 12.7146 0.0817054 12.7973C0.117745 12.8791 0.143608 12.9211 0.143608 12.9211C0.143608 12.9211 0.194063 12.9512 0.267837 12.9716L0.305149 13.1458C0.305149 13.1458 0.354755 13.2255 0.529016 13.2824C0.529016 13.2824 0.610846 13.4367 1.27651 13.5066C1.9426 13.5758 3.39392 13.6313 3.39392 13.6313C3.39392 13.6313 3.3901 13.622 3.39053 13.6126C3.39095 13.6101 3.39604 13.6101 3.39604 13.6101C3.39986 13.6008 3.4024 13.5931 3.41936 13.594H3.42106C3.44013 13.594 3.44692 13.5851 3.45285 13.5762C3.45964 13.5664 3.46473 13.5558 3.48084 13.5558C3.49186 13.5567 3.49992 13.5596 3.50797 13.5626V13.5618C3.51942 13.566 3.53172 13.5698 3.54528 13.5698C3.54825 13.5698 3.55249 13.5694 3.55588 13.569C3.58641 13.5643 3.64323 13.5071 3.64323 13.5071L3.80519 13.4821L3.80858 13.4825C4.1588 14.7841 5.34428 15.7432 6.75659 15.7432C8.02093 15.7432 9.10634 14.9753 9.57104 13.8802C9.67661 13.8157 9.8195 13.7144 9.90938 13.594L9.94627 13.6054L9.97128 13.7805L11.5905 13.7682L11.6278 13.7555L11.6651 13.7682L26.8868 13.6186L26.9127 13.6182L26.95 13.6054C26.95 13.6054 27.1259 13.7763 27.3193 13.9069C27.7903 14.9872 28.8668 15.7428 30.121 15.7428C30.983 15.7428 31.7606 15.3841 32.3164 14.8104C32.7481 14.4038 33.0597 13.8742 33.1932 13.279C33.1988 13.2815 33.2068 13.2896 33.2161 13.3069C33.2161 13.3069 33.3073 13.2934 33.4324 13.2726C33.4379 13.2718 33.4447 13.2709 33.4506 13.2696C33.5248 13.2578 33.6083 13.2433 33.6948 13.2277C33.702 13.2264 33.708 13.2255 33.7152 13.2238C33.8114 13.2065 33.9068 13.1878 33.9887 13.1696L34.1256 13.1568L34.3249 13.1323H34.3626L34.7137 13.0941L34.7887 13.0445L34.8511 13.0076C34.8511 13.0076 34.9155 12.7562 34.938 12.2097C34.938 12.2097 34.9498 12.1499 34.8752 12.1482ZM2.37677 8.87158C1.80226 9.06025 1.38505 9.18236 1.07766 9.26207L1.01788 9.20314C1.1985 9.02125 1.43339 8.82409 1.49105 8.77915C1.51946 8.7588 1.55422 8.72912 1.59323 8.68036L1.628 8.65619L1.6704 8.64771L1.74036 8.63372L1.80141 8.59683C2.18131 8.36661 2.67271 8.16733 2.67738 8.16521L2.7202 8.14783L2.75793 8.12154C2.88471 8.03292 3.07974 7.94431 3.31421 7.8557L4.41531 7.82305C4.41446 7.82347 4.65232 8.12493 2.37677 8.87158ZM6.75871 14.824C6.44792 14.824 6.15537 14.7549 5.8891 14.6366L6.30928 13.9209C6.31182 13.9226 6.31394 13.9238 6.31691 13.9205C6.41146 13.7805 6.57258 13.6885 6.75362 13.6885C6.94781 13.6885 7.1191 13.7954 7.20984 13.9531H7.21238L7.61729 14.6417C7.35442 14.7578 7.06483 14.824 6.75871 14.824ZM8.11421 14.3275L7.53461 13.3413C7.51002 13.2798 7.49433 13.2141 7.49433 13.145C7.49433 12.9203 7.6351 12.7295 7.83268 12.6536L7.83183 12.6502L8.85916 12.3021C8.88163 12.4272 8.89816 12.5544 8.89816 12.6858C8.89816 13.3498 8.58865 13.9349 8.11421 14.3275ZM7.72286 12.0663C7.67707 12.0791 7.62959 12.0888 7.57998 12.0888C7.2887 12.0888 7.05253 11.8539 7.05253 11.5631V10.5769C7.76653 10.6752 8.36394 11.1221 8.67091 11.745L7.72286 12.0663ZM7.08857 12.6854C7.08857 12.8681 6.9406 13.0144 6.75913 13.0144C6.57682 13.0144 6.42884 12.8677 6.42884 12.6854C6.42884 12.5035 6.57682 12.3564 6.75913 12.3564C6.9406 12.3564 7.08857 12.5039 7.08857 12.6854ZM6.46446 11.5656C6.46319 11.8552 6.22702 12.0888 5.93913 12.0888C5.88529 12.0888 5.83356 12.0782 5.7848 12.0625L4.84609 11.7445C5.15348 11.1217 5.75004 10.6752 6.46446 10.5764V11.5656ZM5.65337 12.6392C5.85349 12.7155 5.99722 12.9097 5.99722 13.1373C5.99722 13.24 5.96797 13.3366 5.91751 13.4185C5.91327 13.4252 5.91327 13.4303 5.9137 13.435L5.39346 14.3199C4.92368 13.9272 4.61925 13.3451 4.61925 12.6858C4.61925 12.5539 4.63536 12.4272 4.65784 12.3021L5.65337 12.6392ZM10.0807 13.2188L10.0697 13.2154L10.0328 13.2043L9.78007 13.1246C9.80084 12.9809 9.81526 12.835 9.81526 12.6854C9.81526 10.9979 8.44662 9.62882 6.75871 9.62882C5.0708 9.62882 3.70258 10.9979 3.70258 12.6854C3.70258 12.8194 3.71403 12.9504 3.73057 13.0801L3.58302 13.1034L3.44777 13.1259L3.42741 13.1462C3.40791 13.0034 3.39731 12.8579 3.39731 12.71C3.39731 10.8533 4.90248 9.34814 6.75913 9.34814C8.61579 9.34814 10.121 10.8533 10.121 12.71C10.1205 12.8825 10.1061 13.053 10.0807 13.2188ZM11.3764 5.71412C10.9075 5.97487 10.3084 6.06942 9.83391 6.10038C11.8241 4.87377 13.872 3.85831 15.6201 3.23674C15.6634 3.22106 15.6973 3.2024 15.7346 3.18544C15.7236 3.32705 15.4514 3.47291 15.4514 3.47291C15.4514 3.47291 12.2935 5.20448 11.3764 5.71412ZM22.6723 4.2539C22.3734 4.99503 22.0347 5.74041 21.8083 6.22588L14.3749 6.64096L13.5777 5.84386L16.9332 3.57466C16.9998 3.52718 17.0608 3.4852 17.1193 3.44704C17.2393 3.42076 17.3424 3.39871 17.4102 3.38514C18.2484 3.2571 19.177 3.17526 20.1721 3.13329C21.101 3.13329 21.994 3.13329 21.994 3.13329C21.994 3.13329 23.1269 3.12863 22.6723 4.2539ZM30.2592 3.5276L30.4314 3.66879C31.2666 4.35311 31.9709 5.29819 32.2656 5.72006H31.5452L30.1236 3.8121C29.9913 3.63402 30.0294 3.52463 30.1325 3.45807C30.1715 3.4322 30.2592 3.5276 30.2592 3.5276ZM23.6899 4.2539C23.9172 3.56194 24.2772 3.2978 24.529 3.19689C26.2199 3.3084 27.3926 3.47503 27.4202 3.47927L28.1808 3.57721C28.2364 3.59205 28.2928 3.60222 28.35 3.60773C28.3721 3.60943 28.3962 3.61367 28.4195 3.61664L29.8891 5.77517L23.0162 6.15889C23.1883 5.70394 23.4351 5.0298 23.6899 4.2539ZM29.2544 14.6366L29.6745 13.9209C29.6771 13.9226 29.6796 13.9238 29.6826 13.9205C29.7772 13.7805 29.9383 13.6885 30.1193 13.6885C30.3135 13.6885 30.4844 13.7954 30.5755 13.9531C30.5764 13.9548 30.5768 13.9523 30.5768 13.9523L30.9826 14.6417C30.7197 14.7574 30.4297 14.824 30.1244 14.824C29.8132 14.824 29.5206 14.7549 29.2544 14.6366ZM31.4791 14.3275L30.8999 13.3413C30.8749 13.2798 30.8596 13.2141 30.8596 13.145C30.8596 12.9203 31.0004 12.7295 31.1979 12.6536C31.1996 12.6531 31.1971 12.6515 31.1971 12.6515L32.2244 12.3021C32.2473 12.4272 32.2634 12.5544 32.2634 12.6858C32.263 13.3498 31.9539 13.9349 31.4791 14.3275ZM31.0881 12.0663C31.0423 12.0791 30.9949 12.0888 30.9452 12.0888C30.6535 12.0888 30.4178 11.8539 30.4178 11.5631V10.5769C31.1318 10.6752 31.7292 11.1221 32.0362 11.745L31.0881 12.0663ZM30.4534 12.6854C30.4534 12.8681 30.3054 13.0144 30.1244 13.0144C29.9417 13.0144 29.7941 12.8677 29.7941 12.6854C29.7941 12.5035 29.9421 12.3564 30.1244 12.3564C30.3054 12.3564 30.4534 12.5039 30.4534 12.6854ZM29.8293 11.5656C29.828 11.8552 29.5919 12.0888 29.3044 12.0888C29.2501 12.0888 29.1988 12.0782 29.1501 12.0625L28.2109 11.7445C28.5183 11.1217 29.1153 10.6752 29.8293 10.5764V11.5656ZM29.0182 12.6392C29.2188 12.7155 29.3625 12.9097 29.3625 13.1373C29.3625 13.24 29.3332 13.3366 29.2828 13.4185C29.2781 13.4252 29.2781 13.4303 29.2785 13.435L28.7583 14.3199C28.2889 13.9272 27.9841 13.3451 27.9841 12.6858C27.9841 12.5539 28.0002 12.4272 28.0231 12.3021L29.0182 12.6392ZM33.4786 12.8516C33.4146 12.8626 33.3531 12.8728 33.3031 12.8804L33.1729 12.8249C33.1754 12.7782 33.1805 12.7324 33.1805 12.6854C33.1805 10.9979 31.8115 9.62882 30.124 9.62882C28.4356 9.62882 27.0674 10.9979 27.0674 12.6854C27.0674 12.8575 27.0848 13.0258 27.1119 13.1903L27.0568 13.1356L26.8436 13.2107L26.8033 13.2111C26.7774 13.047 26.7617 12.8804 26.7617 12.7091C26.7617 10.8525 28.2669 9.3473 30.1236 9.3473C31.9802 9.3473 33.4854 10.8525 33.4854 12.7091C33.4854 12.7575 33.4807 12.8045 33.4786 12.8516Z" fill="#444444"/>
</svg>
