<svg width="20" height="20" viewBox="0 0 20 20" fill="none" xmlns="http://www.w3.org/2000/svg">
<path d="M1.66663 4.99567C1.66663 4.53734 2.03829 4.1665 2.49579 4.1665H9.17079C9.3907 4.1665 9.6016 4.25386 9.7571 4.40936C9.9126 4.56486 9.99996 4.77576 9.99996 4.99567C9.99996 5.21558 9.9126 5.42648 9.7571 5.58198C9.6016 5.73748 9.3907 5.82484 9.17079 5.82484H2.49579C2.27588 5.82484 2.06498 5.73748 1.90948 5.58198C1.75398 5.42648 1.66663 5.21558 1.66663 4.99567ZM1.66663 9.99984C1.66663 9.5415 2.03829 9.17067 2.49579 9.17067H17.5041C17.724 9.17067 17.9349 9.25803 18.0904 9.41353C18.2459 9.56903 18.3333 9.77993 18.3333 9.99984C18.3333 10.2197 18.2459 10.4306 18.0904 10.5861C17.9349 10.7416 17.724 10.829 17.5041 10.829H2.49579C2.27588 10.829 2.06498 10.7416 1.90948 10.5861C1.75398 10.4306 1.66663 10.2197 1.66663 9.99984ZM2.49579 14.1748C2.27588 14.1748 2.06498 14.2622 1.90948 14.4177C1.75398 14.5732 1.66663 14.7841 1.66663 15.004C1.66663 15.2239 1.75398 15.4348 1.90948 15.5903C2.06498 15.7458 2.27588 15.8332 2.49579 15.8332H12.5041C12.724 15.8332 12.9349 15.7458 13.0904 15.5903C13.2459 15.4348 13.3333 15.2239 13.3333 15.004C13.3333 14.7841 13.2459 14.5732 13.0904 14.4177C12.9349 14.2622 12.724 14.1748 12.5041 14.1748H2.49579Z" fill="#EDEDED"/>
</svg>
