<svg width="24" height="24" viewBox="0 0 24 24" fill="none" xmlns="http://www.w3.org/2000/svg">
<g clip-path="url(#clip0_1_4480)">
<path d="M12 13.5C13.7902 13.5 15.5071 12.7888 16.773 11.523C18.0388 10.2571 18.75 8.54021 18.75 6.75C18.75 4.95979 18.0388 3.2429 16.773 1.97703C15.5071 0.711159 13.7902 0 12 0C10.2098 0 8.4929 0.711159 7.22703 1.97703C5.96116 3.2429 5.25 4.95979 5.25 6.75C5.25 8.54021 5.96116 10.2571 7.22703 11.523C8.4929 12.7888 10.2098 13.5 12 13.5ZM7.56094 15C3.38438 15 0 18.3844 0 22.5609C0 23.3578 0.646875 24 1.43906 24H22.5609C23.3578 24 24 23.3531 24 22.5609C24 18.3844 20.6156 15 16.4391 15H7.56094Z" fill="#444444"/>
</g>
<defs>
<clipPath id="clip0_1_4480">
<rect width="24" height="24" fill="white"/>
</clipPath>
</defs>
</svg>
