<svg width="24" height="24" viewBox="0 0 24 24" fill="none" xmlns="http://www.w3.org/2000/svg">
<path d="M15.2142 12.0001C15.1028 12.0001 14.9828 11.9829 14.8713 11.9486C14.6582 11.8766 14.4731 11.7394 14.3423 11.5563C14.2116 11.3732 14.1417 11.1536 14.1428 10.9286V9.42007C12.9428 9.30864 11.9999 8.29721 11.9999 7.0715V4.0715C11.9999 2.76864 13.0542 1.71436 14.357 1.71436H19.9285C21.2313 1.71436 22.2856 2.76864 22.2856 4.0715V7.0715C22.2856 8.37436 21.2313 9.42864 19.9285 9.42864H17.6828L16.0713 11.5715C15.8656 11.8458 15.5485 12.0001 15.2142 12.0001ZM8.14276 14.1429C7.17731 14.1407 6.25205 13.7561 5.56937 13.0735C4.88669 12.3908 4.50217 11.4655 4.4999 10.5001C4.50217 9.53462 4.88669 8.60936 5.56937 7.92668C6.25205 7.244 7.17731 6.85948 8.14276 6.85721C9.10821 6.85948 10.0335 7.244 10.7161 7.92668C11.3988 8.60936 11.7834 9.53462 11.7856 10.5001C11.7834 11.4655 11.3988 12.3908 10.7161 13.0735C10.0335 13.7561 9.10821 14.1407 8.14276 14.1429ZM2.97505 20.5029C4.0979 21.6858 5.8379 22.2858 8.14362 22.2858C10.4493 22.2858 12.1893 21.6858 13.3122 20.5029C14.6168 19.1229 14.5748 17.4575 14.5722 17.3452V17.3401C14.5722 16.2858 13.715 15.4286 12.6608 15.4286H3.62647C2.57219 15.4286 1.71505 16.2858 1.71505 17.3058V17.3169C1.71162 17.4798 1.67905 19.1315 2.97505 20.5029Z" fill="#444444"/>
</svg>
