<svg width="12" height="12" viewBox="0 0 12 12" fill="none" xmlns="http://www.w3.org/2000/svg">
<path d="M9 8C8.606 8 8.2505 8.155 7.983 8.4035L4.455 6.35C4.48 6.235 4.5 6.12 4.5 6C4.5 5.88 4.48 5.765 4.455 5.65L7.98 3.595C8.25 3.845 8.605 4 9 4C9.83 4 10.5 3.33 10.5 2.5C10.5 1.67 9.83 1 9 1C8.17 1 7.5 1.67 7.5 2.5C7.5 2.62 7.52 2.735 7.545 2.85L4.02 4.905C3.75 4.655 3.395 4.5 3 4.5C2.17 4.5 1.5 5.17 1.5 6C1.5 6.83 2.17 7.5 3 7.5C3.395 7.5 3.75 7.345 4.02 7.095L7.544 9.154C7.51584 9.26721 7.50108 9.38334 7.5 9.5C7.5 9.79667 7.58797 10.0867 7.7528 10.3334C7.91762 10.58 8.15189 10.7723 8.42597 10.8858C8.70006 10.9994 9.00166 11.0291 9.29264 10.9712C9.58361 10.9133 9.85088 10.7704 10.0607 10.5607C10.2704 10.3509 10.4133 10.0836 10.4712 9.79264C10.5291 9.50166 10.4994 9.20006 10.3858 8.92597C10.2723 8.65189 10.08 8.41762 9.83335 8.2528C9.58668 8.08797 9.29667 8 9 8Z" fill="#444444"/>
</svg>
