<svg width="48" height="22" viewBox="0 0 48 22" fill="none" xmlns="http://www.w3.org/2000/svg">
<path d="M2.35235 8.66992C4.85235 6.98748 8.15235 6.08155 12.8523 5.95213L20.8523 0.64598C20.9523 0.516561 21.0523 0.516561 21.1523 0.516561C27.5523 -0.518786 34.5523 0.257725 35.2523 0.64598L41.9523 4.26969L45.9523 4.78737C46.4523 4.91678 46.7523 5.30504 46.8523 5.95213C46.9523 9.70526 47.9523 11.5171 47.9523 12.0348C48.0523 14.2349 47.4523 16.3056 46.3523 18.2469C46.1523 18.5057 45.8523 18.7645 45.5523 18.7645C44.7523 18.7645 43.8523 18.7645 42.9523 18.6351C43.0523 17.988 43.1523 17.3409 43.1523 16.6938C43.1523 12.2936 40.4523 8.79933 37.0523 8.79933C33.6523 8.79933 30.9523 12.423 30.9523 16.6938C30.9523 17.3409 31.0523 17.8586 31.1523 18.3763C27.4523 18.3763 22.5523 18.3763 16.0523 18.3763C16.1523 17.7292 16.2523 17.2115 16.2523 16.5644C16.2523 12.1642 13.4523 8.66992 10.1523 8.66992C6.85235 8.66992 4.05235 12.2936 4.05235 16.5644C4.05235 17.2115 4.15235 17.988 4.25235 18.6351H3.15235C2.85235 18.6351 2.65235 18.5057 2.45235 18.2469C-0.647652 14.882 -0.947651 11.2583 2.35235 8.66992ZM34.9523 6.85806L34.1523 2.97551C32.0523 2.71667 29.8523 2.58725 27.7523 2.58725C27.4523 4.01086 27.0523 5.95213 26.9523 7.37573L34.9523 6.85806ZM15.8523 7.8934L24.9523 7.37573C25.0523 5.82271 25.3523 4.01086 25.7523 2.58725C24.4523 2.71667 23.0523 2.71667 21.7523 2.97551L15.3523 7.24631L15.8523 7.8934Z" fill="#00C070"/>
<path d="M32.8522 16.6938C32.8522 13.7172 34.7522 11.3877 36.9522 11.3877C39.2522 11.3877 41.0522 13.8466 41.0522 16.6938C41.0522 19.6705 39.2522 22 36.9522 22C34.6522 22 32.8522 19.541 32.8522 16.6938Z" fill="#00C070"/>
<path d="M5.75239 16.6938C5.75239 13.7172 7.65239 11.3877 9.85239 11.3877C12.1524 11.3877 13.9524 13.8466 13.9524 16.6938C13.9524 19.6705 12.0524 22 9.85239 22C7.55239 22 5.75239 19.541 5.75239 16.6938Z" fill="#00C070"/>
</svg>
