<svg width="18" height="18" viewBox="0 0 18 18" fill="none" xmlns="http://www.w3.org/2000/svg">
<path d="M12.9675 8.22908C12.9689 8.46706 12.8653 8.6958 12.6794 8.86503C12.4934 9.03426 12.2405 9.13012 11.976 9.13155C11.845 9.13093 11.7155 9.1071 11.5947 9.06141C11.4739 9.01572 11.3644 8.94907 11.2722 8.86527C11.1801 8.78147 11.1072 8.68215 11.0577 8.57299C11.0082 8.46384 10.9831 8.34697 10.9838 8.22908C10.983 8.11113 11.008 7.99419 11.0575 7.88496C11.1069 7.77572 11.1798 7.67632 11.272 7.59245C11.3641 7.50857 11.4737 7.44187 11.5945 7.39613C11.7153 7.3504 11.845 7.32655 11.976 7.32593C12.5235 7.32593 12.9675 7.73025 12.9675 8.22908Z" fill="#444444"/>
<path fill-rule="evenodd" clip-rule="evenodd" d="M13.599 5.15034C12.9623 5.06934 12.1425 5.06934 11.1203 5.06934H6.87976C5.85751 5.06934 5.03776 5.06934 4.40101 5.15034C3.74326 5.23471 3.19501 5.41561 2.78701 5.83884C2.37976 6.26274 2.25451 6.78181 2.25001 7.38661C2.24551 7.97116 2.35426 8.71096 2.48926 9.63369L2.76301 11.5041C2.86876 12.2257 2.95426 12.8089 3.08701 13.2659C3.22576 13.7411 3.42976 14.1359 3.81301 14.441C4.19551 14.7461 4.65301 14.8784 5.18851 14.9405C5.70376 14.9999 6.35101 14.9999 7.14976 14.9999H10.8503C11.649 14.9999 12.2963 14.9999 12.8115 14.9405C13.3478 14.8784 13.8038 14.7461 14.187 14.441C14.5703 14.1359 14.7743 13.7411 14.913 13.2659C15.0458 12.8089 15.1313 12.225 15.237 11.5041L15.5108 9.63369C15.6458 8.71096 15.7545 7.97116 15.75 7.38594C15.7448 6.78181 15.621 6.26274 15.213 5.83951C14.805 5.41561 14.2568 5.23471 13.599 5.15034ZM4.53901 6.04404C3.99451 6.11424 3.71851 6.24114 3.53401 6.43419C3.34801 6.62656 3.24601 6.89184 3.24151 7.39269C3.23776 7.90704 3.33601 8.58339 3.47776 9.54931L3.51526 9.80581L3.79351 9.62154C4.51351 9.14769 5.57551 9.17064 6.25951 9.68566L8.79751 11.5979C9.03751 11.7788 9.45076 11.8126 9.74926 11.6546L9.92551 11.5615C10.7693 11.1146 11.901 11.1619 12.6795 11.6897L14.0535 12.6212C14.121 12.2864 14.1818 11.8754 14.2583 11.3549L14.5223 9.54931C14.664 8.58406 14.7623 7.90704 14.7578 7.39269C14.754 6.89184 14.652 6.62656 14.4668 6.43419C14.2815 6.24114 14.0055 6.11424 13.4603 6.04404C12.9015 5.97249 12.1515 5.97181 11.0813 5.97181H6.91876C5.84851 5.97181 5.09776 5.97249 4.53901 6.04404Z" fill="#444444"/>
<path d="M6.64432 1.5H11.3558C11.5133 1.5 11.6333 1.5 11.7383 1.51013C12.0973 1.5463 12.4384 1.67075 12.724 1.86983C13.0096 2.06891 13.2288 2.33493 13.3576 2.63873H4.64257C4.77131 2.33493 4.99051 2.06891 5.27614 1.86983C5.56177 1.67075 5.9028 1.5463 6.26182 1.51013C6.36682 1.5 6.48682 1.5 6.64432 1.5ZM5.16007 3.1875C4.22107 3.1875 3.45157 3.7545 3.19507 4.50645C3.18959 4.52214 3.18434 4.53789 3.17932 4.5537C3.44782 4.4727 3.72682 4.4187 4.01032 4.38293C4.74007 4.2891 5.66182 4.2891 6.73207 4.2891H11.3843C12.4546 4.2891 13.3763 4.2891 14.1053 4.38293C14.3888 4.4187 14.6678 4.47203 14.9378 4.5537C14.9328 4.53789 14.9276 4.52214 14.9221 4.50645C14.6648 3.7545 13.8953 3.1875 12.9571 3.1875H5.15857H5.16007Z" fill="#444444"/>
</svg>
