<svg width="16" height="16" viewBox="0 0 16 16" fill="none" xmlns="http://www.w3.org/2000/svg">
<g clip-path="url(#clip0_1_162)">
<path d="M8.00008 5.33317C6.52675 5.33317 5.33342 6.5265 5.33342 7.99984C5.33342 9.47317 6.52675 10.6665 8.00008 10.6665C9.47342 10.6665 10.6667 9.47317 10.6667 7.99984C10.6667 6.5265 9.47342 5.33317 8.00008 5.33317ZM13.9601 7.33317C13.8091 5.98125 13.2028 4.72086 12.241 3.75897C11.2791 2.79707 10.0187 2.19085 8.66675 2.03984V0.666504H7.33342V2.03984C5.9815 2.19085 4.72111 2.79707 3.75921 3.75897C2.79731 4.72086 2.19109 5.98125 2.04008 7.33317H0.666748V8.6665H2.04008C2.19109 10.0184 2.79731 11.2788 3.75921 12.2407C4.72111 13.2026 5.9815 13.8088 7.33342 13.9598V15.3332H8.66675V13.9598C10.0187 13.8088 11.2791 13.2026 12.241 12.2407C13.2028 11.2788 13.8091 10.0184 13.9601 8.6665H15.3334V7.33317H13.9601ZM8.00008 12.6665C5.42008 12.6665 3.33341 10.5798 3.33341 7.99984C3.33341 5.41984 5.42008 3.33317 8.00008 3.33317C10.5801 3.33317 12.6667 5.41984 12.6667 7.99984C12.6667 10.5798 10.5801 12.6665 8.00008 12.6665Z" fill="#0066FF"/>
</g>
<defs>
<clipPath id="clip0_1_162">
<rect width="16" height="16" fill="white"/>
</clipPath>
</defs>
</svg>
