<svg width="35" height="18" viewBox="0 0 35 18" fill="none" xmlns="http://www.w3.org/2000/svg">
<path d="M6.32666 15.7403L8.28281 15.7373C8.01239 16.7039 7.24126 17.4057 6.32666 17.426V17.4273H6.28599H4.87443C3.94473 17.4273 3.15667 16.7222 2.88012 15.7457L4.29105 15.7436L6.32666 15.7403Z" fill="#444444"/>
<path d="M8.2641 13.2513C7.8031 13.2513 7.42938 12.8776 7.42938 12.4166C7.42938 11.9556 7.8031 11.5819 8.2641 11.5819C8.7251 11.5819 9.09882 11.9556 9.09882 12.4166C9.09882 12.8776 8.7251 13.2513 8.2641 13.2513Z" fill="#444444"/>
<path d="M9.57376 11.5912C9.32553 11.5912 9.1243 11.39 9.1243 11.1417C9.1243 10.8935 9.32553 10.6923 9.57376 10.6923C9.82199 10.6923 10.0232 10.8935 10.0232 11.1417C10.0232 11.39 9.82199 11.5912 9.57376 11.5912Z" fill="#444444"/>
<path d="M2.74078 13.2513C2.27978 13.2513 1.90607 12.8776 1.90607 12.4166C1.90607 11.9556 2.27978 11.5818 2.74078 11.5818C3.20179 11.5818 3.5755 11.9556 3.5755 12.4166C3.5755 12.8776 3.20179 13.2513 2.74078 13.2513Z" fill="#444444"/>
<path d="M13.2185 8.54784C13.1788 8.54784 13.1396 8.54485 13.1014 8.53942C13.0308 8.52925 12.9598 8.52347 12.8885 8.52013C12.8128 8.51651 12.7368 8.51574 12.6609 8.51574H12.0424V8.05304C12.1803 8.05304 12.296 7.96732 12.3431 7.84684C12.3589 7.80672 12.367 7.76271 12.3658 7.71682C12.3656 7.70957 12.3655 7.70247 12.3655 7.69523V6.04355C12.3655 6.01409 12.367 5.98498 12.3699 5.95636C12.3845 5.81297 12.4345 5.68016 12.5111 5.56679C12.537 5.52835 12.5666 5.49276 12.5983 5.45912C12.6415 5.41337 12.6891 5.37179 12.7414 5.33642C12.8549 5.25974 12.9876 5.20981 13.131 5.19518C13.1597 5.19233 13.1887 5.1908 13.2182 5.1908H13.6397C13.9341 5.1908 14.1935 5.3399 14.3468 5.56672C14.4234 5.68009 14.4733 5.8129 14.4879 5.95629C14.4908 5.98491 14.4923 6.01402 14.4923 6.04348V6.59016V7.69516C14.4923 7.72462 14.4908 7.75366 14.4879 7.78235C14.4733 7.92567 14.4232 8.05848 14.3468 8.17192C14.1935 8.39874 13.934 8.54784 13.6397 8.54784H13.2185Z" fill="#444444"/>
<path d="M29.8139 15.7044C29.7675 15.6578 29.726 15.6053 29.6896 15.5479C29.6586 15.499 29.6315 15.4468 29.6087 15.3914C29.579 15.3191 29.5563 15.242 29.5427 15.1611C29.5328 15.1014 29.5272 15.0399 29.5272 14.9768C29.5272 14.6811 29.6419 14.4168 29.822 14.2405C29.8893 14.1748 29.9658 14.1217 30.0488 14.0834C30.1424 14.0403 30.2441 14.0158 30.3509 14.0158C30.3646 14.0158 30.378 14.0174 30.3915 14.0182C30.4826 14.0234 30.5697 14.0456 30.6507 14.0825C30.7339 14.1205 30.8106 14.1732 30.8781 14.2389C31.0591 14.4151 31.1744 14.6801 31.1744 14.9768C31.1744 15.0397 31.1689 15.1012 31.1589 15.1611C31.1456 15.2411 31.1232 15.3173 31.0939 15.3889C31.0713 15.4444 31.0443 15.4968 31.0134 15.5458C30.9771 15.6033 30.9356 15.6559 30.8894 15.7027C30.7546 15.839 30.5816 15.9245 30.3915 15.9354C30.3779 15.9362 30.3645 15.9378 30.3509 15.9378C30.1456 15.9378 29.9582 15.8495 29.8139 15.7044Z" fill="#444444"/>
<path d="M34.5624 14.2332C34.5952 14.2332 34.6271 14.2373 34.658 14.2441C34.8533 14.2879 35 14.4626 35 14.6711V14.9457C35 15.1872 34.8035 15.3835 34.5621 15.3835L32.4214 15.3868C32.4321 15.3127 32.4399 15.2373 32.4447 15.161C32.4486 15.1001 32.4513 15.0388 32.4513 14.9767C32.4513 14.7187 32.4169 14.4701 32.3535 14.2365L34.5624 14.2332Z" fill="#444444"/>
<path d="M19.5695 15.7199L20.3632 15.7187L22.3255 15.7157C22.0607 16.6934 21.2846 17.4055 20.3632 17.426V17.4273H20.3226H18.911C18.676 17.4273 18.4503 17.3816 18.2394 17.2984C18.5017 17.1953 18.7407 17.0332 18.9451 16.8259C19.2325 16.5344 19.4513 16.1536 19.5695 15.7199Z" fill="#444444"/>
<path d="M17.0504 15.724C17.0017 15.6779 16.9578 15.6252 16.9191 15.5675C16.8935 15.5292 16.8701 15.489 16.8496 15.4464C16.844 15.4348 16.839 15.4229 16.8337 15.4109C16.8022 15.3386 16.7779 15.2613 16.7628 15.1798C16.7616 15.1735 16.7607 15.1673 16.7596 15.1611C16.7495 15.1014 16.744 15.0399 16.744 14.9768C16.744 14.8061 16.7826 14.6461 16.8495 14.5073C16.8945 14.4139 16.9525 14.3309 17.0204 14.2601C17.0816 14.1965 17.1507 14.1434 17.2262 14.1031C17.3303 14.0476 17.4457 14.0158 17.5677 14.0158C17.5814 14.0158 17.5948 14.0174 17.6083 14.0182C17.7145 14.0243 17.8154 14.0534 17.9073 14.102C17.9829 14.1421 18.0522 14.195 18.1135 14.2584C18.1731 14.3201 18.2248 14.3916 18.2671 14.4711C18.3454 14.618 18.3914 14.791 18.3914 14.9768C18.3914 15.0397 18.3858 15.1012 18.3759 15.1611C18.3748 15.1673 18.3738 15.1735 18.3726 15.1798C18.3578 15.2604 18.3338 15.337 18.3027 15.4087C18.2918 15.434 18.2798 15.4586 18.2671 15.4827C18.2518 15.5114 18.2354 15.5391 18.2178 15.5655C18.1793 15.6233 18.1357 15.6763 18.0871 15.7225C17.9552 15.8476 17.7895 15.9251 17.6084 15.9355C17.5949 15.9363 17.5815 15.9378 17.5677 15.9378C17.3718 15.9378 17.1919 15.8575 17.0504 15.724Z" fill="#444444"/>
<path d="M0.300285 14.308C0.343533 14.2937 0.389565 14.2856 0.437687 14.2856L2.86029 14.2819L4.27219 14.2798L6.32654 14.2766L8.29815 14.2736L14.0589 14.2647L14.1464 14.2647C14.1484 14.2566 14.1505 14.2486 14.1527 14.2405C14.1648 14.1956 14.1781 14.1516 14.1924 14.1078C14.2096 14.0545 14.2286 14.0023 14.249 13.9511L10.8903 13.9561L10.8831 8.94693L10.8752 8.9502L10.8852 6.60956C10.8976 4.01126 12.9066 1.809 15.307 1.71721H15.3179H18.8767L18.8979 9.0525L18.8989 9.38079L19.2123 9.37989L19.2114 9.05654L19.1901 1.71707V1.69827H24.5984V1.01481H13.6733V1.71707H13.8193C11.9572 2.4561 10.5823 4.39762 10.5717 6.60789L10.5612 9.08099L9.65322 9.45928C8.22774 10.0531 7.00895 11.0674 6.20369 12.3851C6.17535 12.4316 6.14721 12.4786 6.11943 12.5262C6.11775 12.5292 6.11594 12.5321 6.11427 12.535C5.92144 12.8665 5.74218 13.2282 5.5834 13.6235C5.47608 13.352 5.35915 13.0966 5.23512 12.8554C5.17697 12.7425 5.11743 12.6328 5.05628 12.5262C4.2903 11.1912 3.30544 10.356 2.52205 9.85818C1.38599 9.13607 0.415264 8.947 0.405582 8.94526L0.323406 8.93432L0.333786 6.48811C0.346249 3.84948 2.48876 1.71707 5.12739 1.71707H6.06134V1.01488H5.37489C5.09508 1.01488 4.86749 0.787222 4.86749 0.507405C4.86749 0.227587 5.09521 0 5.37489 0H11.8225H32.9565C33.2363 0 33.464 0.227656 33.464 0.507405C33.464 0.787292 33.2363 1.01488 32.9565 1.01488H32.2102V1.69841H33.3105C34.0547 1.69841 34.658 2.30171 34.658 3.04589V8.94686V13.9266C34.6265 13.9226 34.5947 13.9197 34.5622 13.9197L32.2477 13.9233C31.9155 13.1107 31.211 12.5458 30.3916 12.5275V12.5262H30.351C29.5123 12.5262 28.7886 13.0998 28.452 13.9291C28.4312 13.9804 28.4122 14.0327 28.3943 14.086C28.3771 14.1374 28.3608 14.1895 28.3466 14.2427C28.2842 14.4744 28.2506 14.721 28.2506 14.9767C28.2506 15.0389 28.2532 15.1001 28.2571 15.161C28.2622 15.2395 28.2702 15.317 28.2814 15.3933C28.2892 15.4461 28.2984 15.4983 28.309 15.5499C28.3199 15.6028 28.3317 15.6552 28.3454 15.7066C28.6115 16.7034 29.4089 17.4273 30.351 17.4273H28.9395C27.998 17.4273 27.2012 16.7045 26.9344 15.7087C26.9207 15.6573 26.9087 15.605 26.8979 15.552C26.8872 15.5005 26.878 15.4483 26.8703 15.3955L22.3909 15.4023L20.3634 15.4054L19.6355 15.4067C19.6469 15.3322 19.6553 15.2564 19.6606 15.1797L19.6619 15.161C19.6658 15.1001 19.6684 15.0389 19.6684 14.9767C19.6684 14.7259 19.6359 14.484 19.576 14.2562L20.3634 14.2549L22.3296 14.2518L24.0576 14.2492L26.9345 14.2448C26.9488 14.1916 26.965 14.1395 26.9822 14.088C27 14.0348 27.019 13.9824 27.0397 13.9312L24.0576 13.9357L22.2255 13.9386L20.3635 13.9414L19.4724 13.9428C19.3471 13.6292 19.1666 13.352 18.9454 13.1275C18.9121 13.0937 18.878 13.061 18.8428 13.0296C18.6625 12.8686 18.4592 12.7413 18.2396 12.6549C18.0409 12.5767 17.829 12.5323 17.6087 12.5274V12.5261H17.568C16.7601 12.5261 16.0592 13.0585 15.7079 13.8389C15.6917 13.875 15.6762 13.9116 15.6614 13.9487C15.6411 13.9999 15.6222 14.0522 15.6047 14.1054C15.588 14.157 15.5724 14.2091 15.5586 14.2623C15.4996 14.4883 15.4676 14.728 15.4676 14.9767C15.4676 15.0388 15.4702 15.1 15.4742 15.1609C15.4746 15.1671 15.4749 15.1734 15.4754 15.1796C15.4809 15.2585 15.4897 15.3363 15.5015 15.4129C15.5096 15.4658 15.519 15.5181 15.5299 15.5696C15.5412 15.6226 15.554 15.6748 15.5682 15.7263C15.8395 16.713 16.6322 17.4274 17.5681 17.4274H16.1565C15.2213 17.4274 14.4292 16.7141 14.1572 15.7284C14.143 15.6769 14.13 15.6247 14.1188 15.5717C14.1077 15.5202 14.0985 15.4678 14.0903 15.415L8.35107 15.4239L6.32696 15.427L4.22233 15.4303L2.81113 15.4325L0.437618 15.436C0.196381 15.436 -3.8147e-06 15.2397 -3.8147e-06 14.9982V14.7236C-0.000213623 14.5301 0.125973 14.3658 0.300285 14.308ZM5.52406 10.8029C6.21637 10.8029 6.77781 10.2414 6.77781 9.54918C6.77781 8.85674 6.21637 8.29544 5.52406 8.29544C4.83169 8.29544 4.27038 8.85674 4.27038 9.54918C4.27038 10.2415 4.83169 10.8029 5.52406 10.8029ZM4.49428 2.54183C4.49428 2.54183 1.58384 3.54174 1.58384 6.64627H9.62857C9.62857 6.64627 9.56896 6.16867 9.71806 5.00448C9.86744 3.84029 11.2703 2.52693 11.2703 2.52693L4.49428 2.54183ZM13.315 1.01495H11.8224H6.41951V1.71721H13.315V1.01495ZM32.9266 8.22823H33.9565V7.91485H32.9266V8.22823ZM32.9266 7.42228H33.9565V7.10889H32.9266V7.42228ZM32.9266 6.61632H33.9565V6.30293H32.9266V6.61632ZM32.9266 5.81043H33.9565V5.49705H32.9266V5.81043ZM32.9266 5.00441H33.9565V4.69102H32.9266V5.00441ZM32.9266 4.19845H33.9565V3.88507H32.9266V4.19845ZM32.9266 3.3925H33.9565V3.07911H32.9266V3.3925ZM31.852 1.01495H24.9566V1.69848H31.852V1.01495ZM26.6432 6.59013H32.0093V3.87504C32.0093 3.18406 31.4491 2.62387 30.7581 2.62387H26.6432V6.59013ZM24.5864 10.3904H25.3215C25.4973 10.3904 25.6411 10.2466 25.6411 10.0707C25.6411 9.89502 25.4973 9.75121 25.3215 9.75121H24.5864C24.4107 9.75121 24.2668 9.89495 24.2668 10.0707C24.2668 10.2466 24.4107 10.3904 24.5864 10.3904ZM20.3633 12.5277V12.5263H20.3227C20.3362 12.5263 20.3497 12.5273 20.3633 12.5277ZM20.1956 6.59013H24.0574H25.5615V2.62387H23.9822H20.1955L20.1956 6.59013ZM17.692 10.3904H18.427C18.6028 10.3904 18.7466 10.2466 18.7466 10.0707C18.7466 9.89502 18.6028 9.75121 18.427 9.75121H17.692C17.5163 9.75121 17.3724 9.89495 17.3724 10.0707C17.3724 10.2466 17.5162 10.3904 17.692 10.3904ZM14.8059 7.69513V6.59013H17.8075V2.62387H14.9554C13.8434 2.62387 12.5986 3.52537 12.5986 4.6374V5.05754C12.2711 5.26424 12.0524 5.62832 12.0524 6.04345V7.69513C12.0524 7.70495 12.0525 7.7147 12.0528 7.72473C12.0529 7.72995 12.0514 7.73413 12.0485 7.73712C12.0463 7.73935 12.0447 7.73956 12.0425 7.73956H11.7292V8.05294V8.51571V8.8291H12.0425H12.661C12.8127 8.8291 12.938 8.83265 13.0569 8.84971C13.1106 8.85737 13.165 8.86134 13.2185 8.86134H13.6399C14.283 8.8612 14.8059 8.33805 14.8059 7.69513Z" fill="#444444"/>
<path d="M1.43115 11.5913C1.18292 11.5913 0.981689 11.39 0.981689 11.1418C0.981689 10.8936 1.18292 10.6923 1.43115 10.6923C1.67939 10.6923 1.88062 10.8936 1.88062 11.1418C1.88062 11.39 1.67939 11.5913 1.43115 11.5913Z" fill="#444444"/>
</svg>
