<svg width="48" height="23" viewBox="0 0 48 23" fill="none" xmlns="http://www.w3.org/2000/svg">
<path d="M47.7472 13.4359C47.7472 13.3354 45.0358 6.30585 45.2366 4.79951L45.5379 3.29317C45.7387 2.08809 44.9354 1.08387 43.7303 0.883022C38.4079 0.180064 25.1521 -1.02501 20.5327 1.6864L13.2018 6.00458C11.2938 7.20965 8.28109 6.70754 3.96292 8.91684C0.146855 10.8249 -2.06244 17.6536 2.75784 20.0637C3.05911 20.1642 3.15953 20.1642 4.56545 20.1642C4.36461 19.5616 4.26418 18.9591 4.26418 18.2561C4.26418 14.5405 7.27686 11.4274 11.0929 11.4274C14.8086 11.4274 17.9217 14.4401 17.9217 18.2561C17.9217 18.9591 17.8212 19.5616 17.6204 20.1642H32.5834C32.3825 19.5616 32.2821 18.9591 32.2821 18.2561C32.2821 14.5405 35.2948 11.4274 39.1108 11.4274C42.9269 11.4274 45.9396 14.4401 45.9396 18.2561C45.9396 18.5574 45.9396 18.8587 45.8392 19.1599C47.6468 17.8545 48.4502 15.6452 47.7472 13.4359ZM28.8677 7.31007L17.0179 8.41472C16.6162 8.51515 16.1141 8.3143 15.7124 8.11346L14.6077 7.4105L21.5369 3.29317C23.1436 2.38936 27.1605 1.98767 28.8677 1.98767V7.31007ZM37.1024 6.50669L30.8762 7.10923V1.98767C32.5834 1.98767 34.391 1.98767 36.299 2.18852L37.3032 6.30585C37.4037 6.30585 37.3032 6.50669 37.1024 6.50669Z" fill="#00C070"/>
<path d="M15.9132 18.1557C15.9132 20.7667 13.8043 22.976 11.0929 22.976C8.48192 22.976 6.27262 20.8671 6.27262 18.1557C6.27262 15.4443 8.38149 13.3354 11.0929 13.3354C13.8043 13.3354 15.9132 15.5447 15.9132 18.1557Z" fill="#00C070"/>
<path d="M44.0315 18.1557C44.0315 20.7667 41.9227 22.976 39.2113 22.976C36.4998 22.976 34.391 20.8671 34.391 18.1557C34.391 15.4443 36.4998 13.3354 39.2113 13.3354C41.9227 13.3354 44.0315 15.5447 44.0315 18.1557Z" fill="#00C070"/>
</svg>
