<svg width="67" height="22" viewBox="0 0 67 22" fill="none" xmlns="http://www.w3.org/2000/svg">
<path d="M65.3974 9.54717C66.0893 10.3774 66.0893 11.2075 65.9509 11.761C65.3974 14.5283 63.1836 16.4654 59.7245 17.2956C60.2779 14.3899 59.3094 11.4843 57.2339 9.4088C55.5735 7.74843 53.2213 6.77987 50.8691 6.77987C50.3157 6.77987 49.7622 6.77987 49.2088 6.91824C45.6113 7.61006 42.7056 10.5157 42.0138 14.1132C41.8754 14.6667 41.8754 15.2201 41.8754 15.7736C41.8754 16.4654 42.0138 17.1572 42.1521 17.8491H23.7496C23.888 17.1572 24.0264 16.4654 24.0264 15.7736C24.0264 10.7925 20.0138 6.77987 15.0326 6.77987C10.0515 6.77987 6.03893 10.7925 6.03893 15.7736C6.03893 16.4654 6.1773 17.1572 6.31566 17.8491H6.03893C2.71818 17.8491 0.504341 16.327 0.0892487 13.9748C-0.464211 11.2075 1.61127 8.02516 4.79366 6.77987C9.77478 4.7044 14.2025 3.59748 18.3534 3.59748C18.6301 3.59748 18.9069 3.59748 19.1836 3.45912C26.1018 0.691824 34.9572 -0.415094 47.1333 0.138365C50.3157 0.27673 52.3911 3.59748 54.7433 3.87421C57.2339 4.28931 63.5987 6.77987 65.3974 9.54717ZM41.1836 2.62893C34.2654 2.62893 28.7308 3.18239 23.888 4.56604C30.3911 5.81132 38.1396 6.91824 41.1836 6.08805V2.62893ZM46.8566 2.7673C45.888 2.7673 44.9194 2.76729 43.9509 2.62893V5.94968L45.888 6.50314C46.4415 6.64151 46.9949 6.50314 47.5484 6.36478L50.3157 4.84277C49.0704 3.87421 47.8251 2.7673 46.8566 2.7673Z" fill="#00C070"/>
<path d="M21.259 15.7738C21.259 19.2329 18.4917 22.0002 15.0326 22.0002C11.5735 22.0002 8.8062 19.2329 8.8062 15.7738C8.8062 12.3147 11.5735 9.54736 15.0326 9.54736C18.3534 9.54736 21.259 12.3147 21.259 15.7738Z" fill="#00C070"/>
<path d="M49.6241 9.68555C51.6995 9.27046 53.775 9.96228 55.297 11.3459C56.819 12.7296 57.3725 14.9434 57.0958 17.0189C56.6807 19.5095 54.6052 21.4466 52.1146 22C51.6995 22 51.2844 22 50.8693 22C49.209 22 47.5486 21.3082 46.4417 20.2013C45.1964 19.0944 44.6429 17.434 44.6429 15.7736C44.6429 15.3585 44.6429 14.9434 44.7813 14.5283C45.1964 12.0378 47.1335 10.1006 49.6241 9.68555Z" fill="#00C070"/>
</svg>
