<svg width="12" height="23" viewBox="0 0 12 23" fill="none" xmlns="http://www.w3.org/2000/svg">
<path fill-rule="evenodd" clip-rule="evenodd" d="M11.4807 18.3408C11.4148 20.0579 9.99019 21.4421 8.25773 21.4421H3.22574C1.49328 21.4421 0.0686981 20.0579 0.00274658 18.3408H11.4807Z" fill="#9D9D9D" fill-opacity="0.97"/>
<path fill-rule="evenodd" clip-rule="evenodd" d="M11.4833 9.37354V16.2213H0V9.37354H11.4833ZM5.08366 15.2978C3.30357 14.0528 4.88583 11.5216 5.74165 10.218C6.59746 11.5216 8.17972 14.0528 6.39964 15.2978C6.36858 15.329 6.31982 15.3553 6.25892 15.3767C6.93641 14.5895 6.16952 13.2152 5.74165 12.484C5.31378 13.2152 4.54687 14.5895 5.22437 15.3767C5.16346 15.3553 5.11468 15.329 5.08366 15.2978Z" fill="#9D9D9D" fill-opacity="0.97"/>
<path fill-rule="evenodd" clip-rule="evenodd" d="M3.22568 4.15283H8.25767C9.99013 4.15283 11.4147 5.53707 11.4807 7.25414H0.00268555C0.0686371 5.53707 1.49322 4.15283 3.22568 4.15283Z" fill="#9D9D9D" fill-opacity="0.97"/>
<path d="M8.04565 4.16317C8.04565 4.44943 8.27772 4.6815 8.56398 4.6815C8.85023 4.6815 9.0823 4.44943 9.0823 4.16317V1.46777H8.04565V4.16317ZM2.40118 1.46777V4.16317C2.40118 4.44943 2.63325 4.6815 2.9195 4.6815C3.20576 4.6815 3.43783 4.44943 3.43783 4.16317V1.46777H2.40118Z" fill="#9D9D9D" fill-opacity="0.97"/>
<path d="M9.16666 0H2.31673C1.91144 0 1.58289 0.328553 1.58289 0.733843V0.733849C1.58289 1.13914 1.91144 1.46769 2.31673 1.46769H9.16666C9.57195 1.46769 9.90051 1.13914 9.90051 0.733843C9.90051 0.328553 9.57195 0 9.16666 0Z" fill="#9D9D9D" fill-opacity="0.97"/>
<path d="M5.33319 4.15282C5.33319 4.38069 5.51607 4.56543 5.74167 4.56543C5.96726 4.56543 6.15014 4.38069 6.15014 4.15282V2.80519C6.15014 2.57732 5.96726 2.39258 5.74167 2.39258C5.51607 2.39258 5.33319 2.57732 5.33319 2.80519V4.15282Z" fill="#9D9D9D" fill-opacity="0.97"/>
<path d="M5.07893 2.38965C4.84944 2.38965 4.66339 2.5757 4.66339 2.8052C4.66339 3.03469 4.84944 3.22074 5.07893 3.22074H6.40447C6.63395 3.22074 6.82001 3.03469 6.82001 2.8052C6.82001 2.5757 6.63395 2.38965 6.40447 2.38965H5.07893Z" fill="#9D9D9D" fill-opacity="0.97"/>
<path fill-rule="evenodd" clip-rule="evenodd" d="M8.25774 21.8567H3.22574C3.15877 21.8567 3.09224 21.8547 3.02625 21.8506V22.4015C3.02625 22.7307 3.29556 23 3.62473 23H7.85876C8.18793 23 8.45725 22.7307 8.45725 22.4015V21.8506C8.39126 21.8547 8.32472 21.8567 8.25774 21.8567Z" fill="#9D9D9D" fill-opacity="0.97"/>
<path fill-rule="evenodd" clip-rule="evenodd" d="M11.4833 16.6357H6.10352e-05V17.9261H11.4833V16.6357Z" fill="#9D9D9D" fill-opacity="0.97"/>
<path fill-rule="evenodd" clip-rule="evenodd" d="M6.10352e-05 7.66846V8.95871H11.4833V7.66846H6.10352e-05Z" fill="#9D9D9D" fill-opacity="0.97"/>
</svg>
